<svg xmlns="http://www.w3.org/2000/svg" viewBox="0 0 22 26"><defs><style>.cls-1{fill:#fff}</style></defs><g id="Layer_2" data-name="Layer 2"><g id="Capa_1" data-name="Capa 1"><path class="cls-1" d="M1.61 8.42a1.55 1.55 0 0 0-1.14.47A1.55 1.55 0 0 0 0 10v6.71a1.59 1.59 0 0 0 .47 1.15 1.55 1.55 0 0 0 1.14.46 1.52 1.52 0 0 0 1.13-.46 1.58 1.58 0 0 0 .46-1.15V10a1.51 1.51 0 0 0-.47-1.13 1.53 1.53 0 0 0-1.12-.45zM3.83 19.13a1.66 1.66 0 0 0 .5 1.21 1.63 1.63 0 0 0 1.22.5H6.7v3.55a1.6 1.6 0 0 0 2.73 1.14 1.52 1.52 0 0 0 .47-1.14v-3.55h2.16v3.55a1.52 1.52 0 0 0 .47 1.14 1.61 1.61 0 0 0 2.75-1.14v-3.55h1.17a1.6 1.6 0 0 0 1.2-.5 1.62 1.62 0 0 0 .5-1.21V8.72H3.83zM14.55 2.39L15.66.34a.21.21 0 0 0-.08-.34.21.21 0 0 0-.31.1l-1.13 2.09a7.8 7.8 0 0 0-6.28 0L6.73.13A.21.21 0 0 0 6.42 0a.21.21 0 0 0-.08.31l1.11 2.08a6.76 6.76 0 0 0-2.68 2.4 6 6 0 0 0-1 3.37h14.45a6 6 0 0 0-1-3.37 6.87 6.87 0 0 0-2.67-2.4zm-6.42 3a.58.58 0 0 1-.43.18.58.58 0 0 1-.42-.18.63.63 0 0 1-.17-.43.61.61 0 0 1 .17-.43.58.58 0 0 1 .42-.18.61.61 0 0 1 .61.61.6.6 0 0 1-.18.41zm6.59 0a.58.58 0 0 1-.42.18.58.58 0 0 1-.43-.18.6.6 0 0 1-.18-.43.61.61 0 0 1 .61-.61.58.58 0 0 1 .42.18.61.61 0 0 1 .17.43.63.63 0 0 1-.17.41zM21.53 8.88a1.59 1.59 0 0 0-1.14-.46 1.56 1.56 0 0 0-1.12.46A1.52 1.52 0 0 0 18.8 10v6.71a1.55 1.55 0 0 0 .47 1.15 1.52 1.52 0 0 0 1.12.46 1.55 1.55 0 0 0 1.14-.46 1.59 1.59 0 0 0 .47-1.13V10a1.55 1.55 0 0 0-.47-1.12z"/></g></g></svg>