<svg xmlns="http://www.w3.org/2000/svg" viewBox="0 0 29.2 30"><title>ic_Man</title><g id="Layer_2" data-name="Layer 2"><g id="Layer_3" data-name="Layer 3"><path d="M2.6,30H0c0-4.85,4.2-8.79,9.36-8.79v2.6A6.5,6.5,0,0,0,2.6,30Z"/><path d="M29.2,30H26.6a6.5,6.5,0,0,0-6.76-6.19v-2.6c5.16,0,9.36,3.94,9.36,8.79Z"/><path d="M14.6,22.22h0c-4,0-7-3.83-8.26-10.24a10.93,10.93,0,0,1,2-9.14A7.65,7.65,0,0,1,14.64,0H15a7.65,7.65,0,0,1,5.85,2.84,10.89,10.89,0,0,1,2,9.13c-1.22,6.42-4.3,10.24-8.25,10.25ZM14.19,1.3A6.36,6.36,0,0,0,9.33,3.68a9.63,9.63,0,0,0-1.71,8.06c1.09,5.74,3.7,9.17,7,9.18s5.88-3.44,7-9.19a9.62,9.62,0,0,0-1.7-8,6.35,6.35,0,0,0-5.23-2.37Z"/><path d="M6.18,11.22a.32.32,0,0,0-.14,0c-.65.18-.72,1.88-.23,3.59s1.06,2.46,1.5,2.46h.1c.45-.15.65-1.33.34-3.1s-1-3-1.57-3Z"/><path d="M23,11.22c-.6,0-1.29,1.33-1.57,3s-.11,3,.34,3.1h.1c.45,0,1.05-.88,1.51-2.46s.42-3.41-.23-3.59l-.15,0Z"/><path d="M16.09.54c-.51,0-1,0-1.56.07S13.48.54,13,.54s-.89,0-1.3,0a4,4,0,0,0-2.8,1.67,2.23,2.23,0,0,0-.95,1.3l-.15.68A4.57,4.57,0,0,0,7.4,6a12.62,12.62,0,0,0-.47,3.53.38.38,0,0,0,.13,0c.21,0,.61-.15.76-1.3.09-.73,0-1.59.11-2.34A5,5,0,0,1,11,4.39h0c.7.39,1.32.47,1.91.85a3.79,3.79,0,0,0,1.58.25,3.79,3.79,0,0,0,1.58-.25c.59-.38,1.22-.46,1.92-.85h0a5,5,0,0,1,3.07,1.47c.07.75,0,1.61.11,2.34.14,1.15.54,1.3.75,1.3a.38.38,0,0,0,.13,0A12.49,12.49,0,0,0,21.67,6a4.79,4.79,0,0,0-.37-1.71l-.15-.68a2.32,2.32,0,0,0-.95-1.3A4,4,0,0,0,17.4.59c-.42,0-.86,0-1.31,0Z"/></g></g></svg>