<svg xmlns="http://www.w3.org/2000/svg" viewBox="0 0 56 50.75"><defs><style>.cls-1{fill:#fff;}</style></defs><title>ic_1 Community</title><g id="Layer_2" data-name="Layer 2"><g id="Isolation_Mode" data-name="Isolation Mode"><path class="cls-1" d="M5.25,35H2.63C1.2,35,0,33.4,0,31.5V29.24l6.57-3.75L7.43,27,1.75,30.26V31.5c0,1.07.62,1.75.88,1.75H5.25Z"/><polygon class="cls-1" points="18.35 30.74 11.82 27.01 12.68 25.49 18.4 28.76 24.98 25.47 25.77 27.03 18.35 30.74"/><polygon class="cls-1" points="37.65 30.74 30.23 27.03 31.02 25.47 37.6 28.76 43.32 25.49 44.18 27.01 37.65 30.74"/><path class="cls-1" d="M53.38,35H50.75V33.25h2.63c.25,0,.87-.68.87-1.75V30.26L48.57,27l.86-1.52L56,29.24V31.5C56,33.4,54.8,35,53.38,35Z"/><path class="cls-1" d="M9.63,28c-3,0-5.25-2.82-5.25-6.56,0-2.65.59-5.69,5.25-5.69s5.25,3,5.25,5.69C14.88,25.18,12.62,28,9.63,28Zm0-10.5c-2.65,0-3.5,1-3.5,3.94,0,2.33,1.22,4.81,3.5,4.81s3.5-2.48,3.5-4.81C13.13,18.46,12.27,17.5,9.63,17.5Z"/><path class="cls-1" d="M28,28c-3,0-5.25-2.82-5.25-6.56,0-2.65.6-5.69,5.25-5.69s5.25,3,5.25,5.69C33.25,25.18,31,28,28,28Zm0-10.5c-2.65,0-3.5,1-3.5,3.94,0,2.33,1.23,4.81,3.5,4.81s3.5-2.48,3.5-4.81C31.5,18.46,30.65,17.5,28,17.5Z"/><path class="cls-1" d="M46.38,28c-3,0-5.25-2.82-5.25-6.56,0-2.65.59-5.69,5.25-5.69s5.25,3,5.25,5.69C51.63,25.18,49.37,28,46.38,28Zm0-10.5c-2.65,0-3.5,1-3.5,3.94,0,2.33,1.22,4.81,3.5,4.81s3.5-2.48,3.5-4.81C49.88,18.46,49,17.5,46.38,17.5Z"/><rect class="cls-1" x="17.5" y="29.75" width="1.75" height="2.63"/><rect class="cls-1" x="36.75" y="29.75" width="1.75" height="2.63"/><path class="cls-1" d="M53.38,50.75H2.63C1.2,50.75,0,49.15,0,47.25V45l6.57-3.75.86,1.52L1.75,46v1.24c0,1.07.62,1.75.88,1.75H53.38c.25,0,.87-.68.87-1.75V46l-5.68-3.25.86-1.52L56,45v2.26C56,49.15,54.8,50.75,53.38,50.75Z"/><polygon class="cls-1" points="37.65 46.49 30.23 42.78 31.02 41.22 37.6 44.51 43.32 41.24 44.18 42.76 37.65 46.49"/><polygon class="cls-1" points="18.35 46.49 11.82 42.76 12.68 41.24 18.4 44.51 24.98 41.22 25.77 42.78 18.35 46.49"/><path class="cls-1" d="M9.63,43.75c-3,0-5.25-2.82-5.25-6.56,0-2.65.59-5.69,5.25-5.69s5.25,3,5.25,5.69C14.88,40.93,12.62,43.75,9.63,43.75Zm0-10.5c-2.65,0-3.5,1-3.5,3.94,0,2.33,1.22,4.81,3.5,4.81s3.5-2.48,3.5-4.81C13.13,34.21,12.27,33.25,9.63,33.25Z"/><path class="cls-1" d="M28,43.75c-3,0-5.25-2.82-5.25-6.56,0-2.65.6-5.69,5.25-5.69s5.25,3,5.25,5.69C33.25,40.93,31,43.75,28,43.75Zm0-10.5c-2.65,0-3.5,1-3.5,3.94C24.5,39.52,25.73,42,28,42s3.5-2.48,3.5-4.81C31.5,34.21,30.65,33.25,28,33.25Z"/><path class="cls-1" d="M46.38,43.75c-3,0-5.25-2.82-5.25-6.56,0-2.65.59-5.69,5.25-5.69s5.25,3,5.25,5.69C51.63,40.93,49.37,43.75,46.38,43.75Zm0-10.5c-2.65,0-3.5,1-3.5,3.94,0,2.33,1.22,4.81,3.5,4.81s3.5-2.48,3.5-4.81C49.88,34.21,49,33.25,46.38,33.25Z"/><rect class="cls-1" x="17.5" y="45.5" width="1.75" height="2.63"/><rect class="cls-1" x="36.75" y="45.5" width="1.75" height="2.63"/><path class="cls-1" d="M5.25,19.25H2.63C1.2,19.25,0,17.65,0,15.75V13.49L6.57,9.74l.86,1.52L1.75,14.51v1.24c0,1.07.62,1.75.88,1.75H5.25Z"/><polygon class="cls-1" points="18.35 14.99 11.82 11.26 12.68 9.74 18.4 13.01 24.98 9.72 25.77 11.28 18.35 14.99"/><polygon class="cls-1" points="37.65 14.99 30.23 11.28 31.02 9.72 37.6 13.01 43.32 9.74 44.18 11.26 37.65 14.99"/><path class="cls-1" d="M53.38,19.25H50.75V17.5h2.63c.25,0,.87-.68.87-1.75V14.51l-5.68-3.25.86-1.52L56,13.49v2.26C56,17.65,54.8,19.25,53.38,19.25Z"/><path class="cls-1" d="M9.63,12.25c-3,0-5.25-2.82-5.25-6.56C4.38,3,5,0,9.63,0s5.25,3,5.25,5.69C14.88,9.43,12.62,12.25,9.63,12.25Zm0-10.5c-2.65,0-3.5,1-3.5,3.94,0,2.33,1.22,4.81,3.5,4.81s3.5-2.48,3.5-4.81C13.13,2.71,12.27,1.75,9.63,1.75Z"/><path class="cls-1" d="M28,12.25c-3,0-5.25-2.82-5.25-6.56C22.75,3,23.35,0,28,0s5.25,3,5.25,5.69C33.25,9.43,31,12.25,28,12.25Zm0-10.5c-2.65,0-3.5,1-3.5,3.94C24.5,8,25.73,10.5,28,10.5S31.5,8,31.5,5.69C31.5,2.71,30.65,1.75,28,1.75Z"/><path class="cls-1" d="M46.38,12.25c-3,0-5.25-2.82-5.25-6.56C41.13,3,41.72,0,46.38,0s5.25,3,5.25,5.69C51.63,9.43,49.37,12.25,46.38,12.25Zm0-10.5c-2.65,0-3.5,1-3.5,3.94,0,2.33,1.22,4.81,3.5,4.81s3.5-2.48,3.5-4.81C49.88,2.71,49,1.75,46.38,1.75Z"/><rect class="cls-1" x="17.5" y="14" width="1.75" height="2.63"/><rect class="cls-1" x="36.75" y="14" width="1.75" height="2.63"/></g></g></svg>