<svg xmlns="http://www.w3.org/2000/svg" viewBox="0 0 47.25 56"><defs><style>.cls-1{fill:#fff;}</style></defs><title>ic_3 Rent</title><g id="Layer_2" data-name="Layer 2"><g id="icons"><path class="cls-1" d="M47.25,15.75H0V0H47.25ZM1.75,14H45.5V1.75H1.75Z"/><rect class="cls-1" x="3.5" y="14.88" width="1.75" height="3.5"/><rect class="cls-1" x="42" y="14.88" width="1.75" height="3.5"/><rect class="cls-1" x="5.25" y="5.25" width="1.75" height="5.25"/><rect class="cls-1" x="8.75" y="5.25" width="1.75" height="5.25"/><rect class="cls-1" x="12.25" y="5.25" width="1.75" height="5.25"/><rect class="cls-1" x="15.75" y="5.25" width="1.75" height="5.25"/><rect class="cls-1" x="19.25" y="5.25" width="1.75" height="5.25"/><path class="cls-1" d="M47.25,33.25H0V17.5H47.25ZM1.75,31.5H45.5V19.25H1.75Z"/><rect class="cls-1" x="3.5" y="32.38" width="1.75" height="3.5"/><rect class="cls-1" x="42" y="32.38" width="1.75" height="3.5"/><rect class="cls-1" x="5.25" y="22.75" width="1.75" height="5.25"/><rect class="cls-1" x="8.75" y="22.75" width="1.75" height="5.25"/><rect class="cls-1" x="12.25" y="22.75" width="1.75" height="5.25"/><rect class="cls-1" x="15.75" y="22.75" width="1.75" height="5.25"/><rect class="cls-1" x="19.25" y="22.75" width="1.75" height="5.25"/><rect class="cls-1" x="30.63" y="24.5" width="1.75" height="1.75"/><rect class="cls-1" x="27.13" y="24.5" width="1.75" height="1.75"/><rect class="cls-1" x="23.63" y="24.5" width="1.75" height="1.75"/><path class="cls-1" d="M47.25,50.75H0V35H47.25ZM1.75,49H45.5V36.75H1.75Z"/><rect class="cls-1" x="3.5" y="49.88" width="1.75" height="6.13"/><rect class="cls-1" x="42" y="49.88" width="1.75" height="6.13"/><rect class="cls-1" x="5.25" y="40.25" width="1.75" height="5.25"/><rect class="cls-1" x="8.75" y="40.25" width="1.75" height="5.25"/><rect class="cls-1" x="12.25" y="40.25" width="1.75" height="5.25"/><rect class="cls-1" x="15.75" y="40.25" width="1.75" height="5.25"/><rect class="cls-1" x="19.25" y="40.25" width="1.75" height="5.25"/><path class="cls-1" d="M38.5,28.88a3.5,3.5,0,1,1,3.5-3.5A3.51,3.51,0,0,1,38.5,28.88Zm0-5.25a1.75,1.75,0,1,0,1.75,1.75A1.75,1.75,0,0,0,38.5,23.63Z"/><rect class="cls-1" x="30.63" y="42" width="1.75" height="1.75"/><rect class="cls-1" x="27.13" y="42" width="1.75" height="1.75"/><rect class="cls-1" x="23.63" y="42" width="1.75" height="1.75"/><path class="cls-1" d="M38.5,46.38a3.5,3.5,0,1,1,3.5-3.5A3.51,3.51,0,0,1,38.5,46.38Zm0-5.25a1.75,1.75,0,1,0,1.75,1.75A1.75,1.75,0,0,0,38.5,41.13Z"/><rect class="cls-1" x="30.63" y="7" width="1.75" height="1.75"/><rect class="cls-1" x="27.13" y="7" width="1.75" height="1.75"/><rect class="cls-1" x="23.63" y="7" width="1.75" height="1.75"/><path class="cls-1" d="M38.5,11.38A3.5,3.5,0,1,1,42,7.88,3.51,3.51,0,0,1,38.5,11.38Zm0-5.25a1.75,1.75,0,1,0,1.75,1.75A1.75,1.75,0,0,0,38.5,6.13Z"/><rect class="cls-1" x="7" y="52.5" width="33.25" height="1.75"/></g></g></svg>