<svg xmlns="http://www.w3.org/2000/svg" viewBox="0 0 11.89 22"><defs><style>.cls-1{fill:#828282;}</style></defs><title>ic_fb</title><g id="Layer_2" data-name="Layer 2"><g id="Layer_1-2" data-name="Layer 1"><path class="cls-1" d="M11.45,0H8.59C5.39,0,3.32,2.13,3.32,5.41v2.5H.45A.45.45,0,0,0,0,8.36V12a.45.45,0,0,0,.45.44H3.32v9.13a.45.45,0,0,0,.45.45H7.51A.45.45,0,0,0,8,21.55V12.42h3.35a.45.45,0,0,0,.45-.44V8.36a.44.44,0,0,0-.45-.45H8V5.79c0-1,.24-1.53,1.56-1.53h1.93a.45.45,0,0,0,.44-.45V.45A.46.46,0,0,0,11.45,0Z"/></g></g></svg>