<svg xmlns="http://www.w3.org/2000/svg" viewBox="0 0 35 35"><defs><style>.cls-1{fill:#fff;}</style></defs><title>ic_4 High Speed</title><g id="Layer_2" data-name="Layer 2"><g id="Режим_изоляции" data-name="Режим изоляции"><path class="cls-1" d="M17.5,22.27a8.59,8.59,0,0,1-8.58-8.58.75.75,0,1,1,1.49,0A7.09,7.09,0,0,0,23,18.16a.74.74,0,0,1,1.15.93A8.54,8.54,0,0,1,17.5,22.27Z"/><path class="cls-1" d="M25.34,14.43a.74.74,0,0,1-.75-.74A7.09,7.09,0,0,0,11.76,9.52a.74.74,0,1,1-1.2-.88,8.58,8.58,0,0,1,15.52,5A.74.74,0,0,1,25.34,14.43Z"/><path class="cls-1" d="M13.48,9.85H10.94a.75.75,0,0,1-.74-.75V6.56a.75.75,0,0,1,.74-.75.76.76,0,0,1,.75.75v1.8h1.79a.74.74,0,0,1,.75.74A.75.75,0,0,1,13.48,9.85Z"/><path class="cls-1" d="M24.13,21.26a.75.75,0,0,1-.74-.75V18.72h-1.8a.75.75,0,0,1-.74-.75.74.74,0,0,1,.74-.74h2.54a.74.74,0,0,1,.75.74v2.54A.75.75,0,0,1,24.13,21.26Z"/><path class="cls-1" d="M34.26,27.37H.74A.74.74,0,0,1,0,26.63V.74A.74.74,0,0,1,.74,0H34.26A.74.74,0,0,1,35,.74V26.63A.74.74,0,0,1,34.26,27.37ZM1.49,25.88h32V1.49h-32Z"/><path class="cls-1" d="M27.18,35H7.83a.75.75,0,0,1-.67-1.07l3.73-7.63a.74.74,0,0,1,.66-.42h11.9a.74.74,0,0,1,.66.42l3.67,7.51a.76.76,0,0,1,.15.45A.75.75,0,0,1,27.18,35ZM9,33.51H26l-3-6.14H12Z"/></g></g></svg>