<svg xmlns="http://www.w3.org/2000/svg" viewBox="0 0 20 23"><defs><style>.cls-1{fill:#383023;}</style></defs><title>ic_P Logo</title><g id="Layer_2" data-name="Layer 2"><g id="Isolation_Mode" data-name="Isolation Mode"><path class="cls-1" d="M6.57,12.25H18.83a8,8,0,0,0,.62-1.32A8.17,8.17,0,0,0,20,8a7.65,7.65,0,0,0-.58-2.9,8.35,8.35,0,0,0-1.59-2.56A8,8,0,0,0,15.41.7,6.8,6.8,0,0,0,12.33,0H6.57Zm5.34-6.74A1.71,1.71,0,0,1,13.06,6,2.52,2.52,0,0,1,13.64,8a2.81,2.81,0,0,1-.5,1.93,1.47,1.47,0,0,1-1.07.53H8.76V5.51Z"/><polygon class="cls-1" points="4.69 23 4.69 14.11 0 14.11 0 15.94 2.5 15.94 2.5 23 4.69 23"/><polygon class="cls-1" points="4.69 12.25 4.69 0 2.5 0 2.5 10.43 0 10.43 0 12.25 4.69 12.25"/><path class="cls-1" d="M6.57,14.11V23H8.76V15.94h3.73a6.93,6.93,0,0,0,3.06-.67,7.36,7.36,0,0,0,1.76-1.16Z"/></g></g></svg>