<svg xmlns="http://www.w3.org/2000/svg" viewBox="0 0 200 23.94"><defs><style>.cls-1{fill:#fff}</style></defs><g id="Layer_2" data-name="Layer 2"><g id="Layer_1-2" data-name="Layer 1"><path id="_Compound_Path_" data-name="&lt;Compound Path&gt;" class="cls-1" d="M22.64 23.74V.13h6.49v18h10.71v5.65z"/><path id="_Compound_Path_2" data-name="&lt;Compound Path&gt;" class="cls-1" d="M50.12.13H56l8.18 23.61h-6.54l-1.43-4.62h-6.29l-1.4 4.62h-6.61zm5.05 14.67l-2.09-7.32-2.2 7.32z"/><path id="_Compound_Path_3" data-name="&lt;Compound Path&gt;" class="cls-1" d="M82.41 5.79h-6.78v18h-6.49v-18h-6.82V.13h20.09z"/><path id="_Compound_Path_4" data-name="&lt;Compound Path&gt;" class="cls-1" d="M84.77 23.74V.13h6.49v23.61z"/><path id="_Compound_Path_5" data-name="&lt;Compound Path&gt;" class="cls-1" d="M101.8 12.14v11.6h-6.49V.13h5.06l9.48 12v-12h6.48v23.61h-5.15z"/><path id="_Compound_Path_6" data-name="&lt;Compound Path&gt;" class="cls-1" d="M119.09 11.74a11.74 11.74 0 0 1 3.19-8A12.33 12.33 0 0 1 126.07 1a13.16 13.16 0 0 1 11 .38 9.28 9.28 0 0 1 3.74 3.74l-5 3.53a4.08 4.08 0 0 0-.81-1.4 4.34 4.34 0 0 0-1.21-.9 5.21 5.21 0 0 0-1.38-.46 7.51 7.51 0 0 0-1.41-.14 4.88 4.88 0 0 0-4.08 2 6.18 6.18 0 0 0-1 2 8.09 8.09 0 0 0-.32 2.21 7.72 7.72 0 0 0 .4 2.34 6.28 6.28 0 0 0 1.06 2 5.41 5.41 0 0 0 1.72 1.38 5 5 0 0 0 2.28.51 6.51 6.51 0 0 0 1.36-.15 5 5 0 0 0 1.35-.5 4.37 4.37 0 0 0 1.16-.9 4 4 0 0 0 .81-1.34l5.29 3.16a6.61 6.61 0 0 1-1.61 2.32 10 10 0 0 1-2.42 1.73 13.2 13.2 0 0 1-3 1.07 13.89 13.89 0 0 1-3.08.36 10.89 10.89 0 0 1-4.8-1 12.15 12.15 0 0 1-3.76-2.78A12.76 12.76 0 0 1 120 16.2a12.23 12.23 0 0 1-.91-4.46z"/><path id="_Compound_Path_7" data-name="&lt;Compound Path&gt;" class="cls-1" d="M153.64 23.94a11.36 11.36 0 0 1-4.89-1 12.11 12.11 0 0 1-6.18-6.55 11.79 11.79 0 0 1-.87-4.45 11.54 11.54 0 0 1 .9-4.49 12.08 12.08 0 0 1 2.51-3.81A12.32 12.32 0 0 1 148.94 1a11.83 11.83 0 0 1 4.84-1 11.29 11.29 0 0 1 4.88 1 11.94 11.94 0 0 1 3.76 2.73 12.08 12.08 0 0 1 2.41 3.86 11.89 11.89 0 0 1 .85 4.42 11.44 11.44 0 0 1-.9 4.47 12.11 12.11 0 0 1-2.49 3.79 12.34 12.34 0 0 1-3.81 2.73 11.7 11.7 0 0 1-4.84.94zm-5.35-12a8.06 8.06 0 0 0 .33 2.31 6 6 0 0 0 1 2 5 5 0 0 0 1.68 1.4 5.16 5.16 0 0 0 2.41.53 5.07 5.07 0 0 0 2.43-.55 5 5 0 0 0 1.68-1.43 6.13 6.13 0 0 0 1-2 8.5 8.5 0 0 0 .32-2.29 7.85 7.85 0 0 0-.34-2.32 5.79 5.79 0 0 0-1-2 5.07 5.07 0 0 0-1.7-1.36 5.21 5.21 0 0 0-2.37-.52 5.09 5.09 0 0 0-2.42.54 4.86 4.86 0 0 0-1.67 1.41 5.9 5.9 0 0 0-1 2 8.41 8.41 0 0 0-.35 2.34z"/><path id="_Compound_Path_8" data-name="&lt;Compound Path&gt;" class="cls-1" d="M168.44 23.74V.13h6.49v23.61z"/><path id="_Compound_Path_9" data-name="&lt;Compound Path&gt;" class="cls-1" d="M185.47 12.14v11.6H179V.13h5l9.48 12v-12H200v23.61h-5.15z"/><path class="cls-1" d="M6.73 12.65h12.55a8.91 8.91 0 0 0 .64-1.36 8.68 8.68 0 0 0 .56-3.06 8.12 8.12 0 0 0-.59-3 8.92 8.92 0 0 0-1.63-2.63A8.26 8.26 0 0 0 15.78.72 7.14 7.14 0 0 0 12.62 0H6.73zm5.46-7a1.82 1.82 0 0 1 1.19.53 2.69 2.69 0 0 1 .59 2 3 3 0 0 1-.51 2 1.49 1.49 0 0 1-1.1.55H9V5.69zM4.8 23.75v-9.18H0v1.89h2.56v7.29H4.8zM4.8 12.65V.01H2.56v10.76H0v1.88h4.8zM6.73 14.57v9.17H9v-7.28h3.82a7.15 7.15 0 0 0 3.14-.69 7.44 7.44 0 0 0 1.8-1.2z"/></g></g></svg>