<svg xmlns="http://www.w3.org/2000/svg" viewBox="0 0 21.13 30"><defs><style>.cls-1{fill:#fff;}</style></defs><title>ic_Mouse</title><g id="Layer_2" data-name="Layer 2"><g id="Capa_1" data-name="Capa 1"><path class="cls-1" d="M10.56,0A10.66,10.66,0,0,0,0,10.73v8.54A10.66,10.66,0,0,0,10.56,30,10.65,10.65,0,0,0,21.13,19.3V10.73A10.66,10.66,0,0,0,10.56,0Zm8.58,19.3A8.65,8.65,0,0,1,10.56,28,8.66,8.66,0,0,1,2,19.27V10.73A8.66,8.66,0,0,1,10.56,2a8.67,8.67,0,0,1,8.58,8.74Z"/><path class="cls-1" d="M10.56,8.21a1,1,0,0,0-1,1v3.47a1,1,0,1,0,2,0V9.21A1,1,0,0,0,10.56,8.21Z"/></g></g></svg>