<svg xmlns="http://www.w3.org/2000/svg" viewBox="0 0 24.57 22.52"><g data-name="Layer 2"><g data-name="Layer 3"><path d="M22.12 2H1a1 1 0 0 1 0-2h21.12a1 1 0 0 1 0 2zM4.62 14.42H1a1 1 0 0 1 0-2h3.62a1 1 0 0 1 0 2zM6.79 20.62H1a1 1 0 0 1 0-2h5.79a1 1 0 0 1 0 2zM6.79 8.21H1a1 1 0 0 1 0-2h5.79a1 1 0 0 1 0 2zM16.63 22.52h-1.88A1.51 1.51 0 0 1 13.24 21v-1l-.24-.13-.73.72a1.55 1.55 0 0 1-2.14 0l-1.38-1.33a1.5 1.5 0 0 1-.44-1.07 1.46 1.46 0 0 1 .44-1.07l.72-.73-.11-.29h-1a1.51 1.51 0 0 1-1.51-1.51v-1.88a1.51 1.51 0 0 1 1.51-1.52h1l.11-.29-.72-.72a1.5 1.5 0 0 1-.44-1.07A1.46 1.46 0 0 1 8.75 8l1.33-1.33a1.55 1.55 0 0 1 2.14 0l.73.73.29-.12v-1a1.51 1.51 0 0 1 1.51-1.52h1.88a1.52 1.52 0 0 1 1.52 1.52v1l.28.12.73-.72a1.55 1.55 0 0 1 2.14 0L22.63 8a1.46 1.46 0 0 1 .44 1.07 1.5 1.5 0 0 1-.44 1.07l-.72.72.12.29h1a1.52 1.52 0 0 1 1.52 1.52v1.88a1.52 1.52 0 0 1-1.52 1.51H22l-.12.29.72.73a1.51 1.51 0 0 1 0 2.14l-1.3 1.37a1.55 1.55 0 0 1-2.14 0l-.73-.73-.28.12v1a1.52 1.52 0 0 1-1.52 1.51zm-1.39-2h.91v-.73a1.76 1.76 0 0 1 1.16-1.62l.49-.17a1.64 1.64 0 0 1 .68-.14 1.71 1.71 0 0 1 1.23.5l.52.51.65-.64-.52-.52a1.75 1.75 0 0 1-.32-2l.19-.48a1.75 1.75 0 0 1 1.61-1.11h.73v-.91h-.73A1.75 1.75 0 0 1 20.21 12l-.2-.48a1.72 1.72 0 0 1 .35-1.91l.51-.52-.64-.65-.52.56a1.79 1.79 0 0 1-2 .32l-.49-.2a1.72 1.72 0 0 1-1.1-1.6v-.75h-.91v.73a1.77 1.77 0 0 1-1.18 1.63l-.48.2a1.64 1.64 0 0 1-.68.14 1.75 1.75 0 0 1-1.2-.47l-.52-.52-.64.65.52.52a1.75 1.75 0 0 1 .31 2l-.19.48a1.73 1.73 0 0 1-1.6 1.11h-.73v.91h.73a1.75 1.75 0 0 1 1.62 1.17l.21.49a1.74 1.74 0 0 1-.38 1.86l-.52.52.64.64.52-.52a1.82 1.82 0 0 1 2-.32l.48.2a1.74 1.74 0 0 1 1.11 1.6v.73zm.45-3.39a3.49 3.49 0 1 1 3.48-3.48 3.48 3.48 0 0 1-3.48 3.48zm0-5a1.49 1.49 0 1 0 1.48 1.49 1.49 1.49 0 0 0-1.48-1.49z"/></g></g></svg>