<svg xmlns="http://www.w3.org/2000/svg" viewBox="0 0 56 50.58"><defs><style>.cls-1{fill:#fff}</style></defs><g id="Layer_2" data-name="Layer 2"><g id="icons"><path class="cls-1" d="M45.16 47H0v-5.45h45.16zM1.81 45.16h41.54v-1.81H1.81zM1.81 39.74H0v-28.9h17.16v1.8H1.81v27.1z"/><path class="cls-1" d="M45.16 39.74h-1.81V1.81H18.07v37.93h-1.81V0h28.9v39.74zM4.52 16.26h1.81v1.81H4.52zM8.13 16.26h1.81v1.81H8.13zM11.74 16.26h1.81v1.81h-1.81zM4.52 19.87h1.81v1.81H4.52zM8.13 19.87h1.81v1.81H8.13zM11.74 19.87h1.81v1.81h-1.81zM4.52 23.48h1.81v1.81H4.52zM8.13 23.48h1.81v1.81H8.13zM11.74 23.48h1.81v1.81h-1.81zM4.52 27.1h1.81v1.81H4.52zM8.13 27.1h1.81v1.81H8.13zM11.74 27.1h1.81v1.81h-1.81zM4.52 30.71h1.81v1.81H4.52zM8.13 30.71h1.81v1.81H8.13zM11.74 30.71h1.81v1.81h-1.81zM4.52 34.32h1.81v1.81H4.52zM8.13 34.32h1.81v1.81H8.13zM11.74 34.32h1.81v1.81h-1.81z"/><path class="cls-1" d="M26.19 10.84h-5.42V5.42h5.42zM22.58 9h1.81V7.23h-1.81zM33.42 10.84H28V5.42h5.42zM29.81 9h1.8V7.23h-1.8zM40.65 10.84h-5.42V5.42h5.42zM37 9h1.81V7.23H37zM26.19 18.06h-5.42v-5.41h5.42zm-3.61-1.8h1.81v-1.81h-1.81zM33.42 18.06H28v-5.41h5.42zm-3.61-1.8h1.8v-1.81h-1.8zM40.65 18.06h-5.42v-5.41h5.42zM37 16.26h1.81v-1.81H37zM26.19 25.29h-5.42v-5.42h5.42zm-3.61-1.81h1.81v-1.8h-1.81zM33.42 25.29H28v-5.42h5.42zm-3.61-1.81h1.8v-1.8h-1.8zM40.65 25.29h-5.42v-5.42h5.42zM37 23.48h1.81v-1.8H37zM26.19 32.52h-5.42V27.1h5.42zm-3.61-1.81h1.81V28.9h-1.81zM33.42 32.52H28V27.1h5.42zm-3.61-1.81h1.8V28.9h-1.8zM40.65 32.52h-5.42V27.1h5.42zM37 30.71h1.81V28.9H37zM40.65 39.74h-1.81v-3.61H22.58v3.61h-1.81v-5.42h19.88v5.42z"/><path class="cls-1" d="M31.61 35.23h1.81v4.52h-1.81zM56 47h-9V0h9zm-7.23-1.81h5.42V1.81h-5.42z"/><path class="cls-1" d="M47.87 10.84h2.71v1.81h-2.71zM47.87 14.45h2.71v1.81h-2.71zM47.87 18.06h2.71v1.81h-2.71zM47.87 21.68h2.71v1.81h-2.71zM47.87 25.29h2.71v1.81h-2.71zM47.87 28.9h2.71v1.81h-2.71zM47.87 32.52h2.71v1.81h-2.71zM47.87 36.13h2.71v1.81h-2.71zM47.87 39.74h2.71v1.81h-2.71zM50.58 3.61h1.81v1.81h-1.81zM0 48.77h1.81v1.81H0zM3.61 48.77h1.81v1.81H3.61zM7.23 48.77h1.81v1.81H7.23zM10.84 48.77h1.81v1.81h-1.81zM14.45 48.77h1.81v1.81h-1.81zM18.06 48.77h1.81v1.81h-1.81zM21.68 48.77h1.81v1.81h-1.81zM25.29 48.77h1.81v1.81h-1.81zM28.9 48.77h1.81v1.81H28.9zM32.52 48.77h1.81v1.81h-1.81zM36.13 48.77h1.81v1.81h-1.81zM39.74 48.77h1.81v1.81h-1.81zM43.35 48.77h1.81v1.81h-1.81z"/></g></g></svg>