<svg xmlns="http://www.w3.org/2000/svg" viewBox="0 0 64 64"><defs><style>.cls-1{fill:#fff}</style></defs><g id="Layer_2" data-name="Layer 2"><g id="icons"><path class="cls-1" d="M32 64a32 32 0 1 1 32-32 32 32 0 0 1-32 32zm0-62a30 30 0 1 0 30 30A30 30 0 0 0 32 2z"/><path class="cls-1" d="M25 38h2v6h-2zM37 38h2v6h-2zM43 25h-1a3 3 0 0 1-3-3v-2a1 1 0 0 0-1-1h-1v-1.38L34.24 19H26a1 1 0 0 0-1 1v2a3 3 0 0 1-3 3v-2a1 1 0 0 0 1-1v-2a3 3 0 0 1 3-3h7.76L39 14.38v2.79A3 3 0 0 1 41 20v2a1 1 0 0 0 1 1h1zM21 23h1v2h-1z"/><path class="cls-1" d="M32 41c-7.79 0-10.83-7.54-11-12.58l-1-1V16a4 4 0 0 1 4-4h.13A4 4 0 0 1 28 9h11a5 5 0 0 1 5 5v13.41l-1 1C42.83 33.46 39.79 41 32 41zM22 26.59l1 1V28c0 4.25 2.44 11 9 11s9-6.75 9-11v-.41l1-1V14a3 3 0 0 0-3-3H28a2 2 0 0 0-2 2v1h-2a2 2 0 0 0-2 2zM28.22 53.19l-11.13-4.94 6.67-5.34L33 45.22v3.19zm-7.31-5.44l6.87 3.06L31 47.59v-.81l-6.76-1.69z"/><path class="cls-1" d="M35.78 53.19L31 48.41v-3.19l9.24-2.31 6.67 5.34zM33 47.59l3.22 3.22 6.87-3.06-3.33-2.66L33 46.78zM31 57h2v2h-2zM31 53h2v2h-2zM9.88 53.48l-1.77-.93c.19-.39 1.49-2.47 7.57-4.5l3-1 .64 1.9-3 1c-5.32 1.78-6.43 3.51-6.44 3.53z"/><path class="cls-1" d="M54.11 53.45S53 51.72 47.68 50l-3-1 .64-1.9 3 1c6.08 2 7.38 4.11 7.57 4.5l-1.78.9z"/></g></g></svg>