<svg xmlns="http://www.w3.org/2000/svg" viewBox="0 0 56 49"><defs><style>.cls-1{fill:#fff}</style></defs><g id="Layer_2" data-name="Layer 2"><g id="icons"><path class="cls-1" d="M52.5 49H6.13A6.13 6.13 0 0 1 0 42.88V6.13h1.75v36.75a4.38 4.38 0 0 0 4.38 4.37h44.62V35.88h1.75z"/><path class="cls-1" d="M52.5 23.63h-1.75V12.25H6.13A6.13 6.13 0 1 1 6.13 0H52.5v8.75h-1.75v-7H6.13a4.38 4.38 0 1 0 0 8.75H52.5z"/><path class="cls-1" d="M7 5.25h40.25V7H7zM35.88 33.25a3.5 3.5 0 1 1 3.5-3.5 3.5 3.5 0 0 1-3.5 3.5zm0-5.25a1.75 1.75 0 1 0 1.75 1.75A1.75 1.75 0 0 0 35.88 28zM45.5 14h1.75v1.75H45.5zM42 14h1.75v1.75H42zM38.5 14h1.75v1.75H38.5zM35 14h1.75v1.75H35zM31.5 14h1.75v1.75H31.5zM28 14h1.75v1.75H28zM24.5 14h1.75v1.75H24.5zM21 14h1.75v1.75H21zM17.5 14h1.75v1.75H17.5zM14 14h1.75v1.75H14zM10.5 14h1.75v1.75H10.5zM7 14h1.75v1.75H7z"/><path class="cls-1" d="M45.5 14h1.75v1.75H45.5zM42 14h1.75v1.75H42zM38.5 14h1.75v1.75H38.5zM35 14h1.75v1.75H35zM31.5 14h1.75v1.75H31.5zM28 14h1.75v1.75H28zM24.5 14h1.75v1.75H24.5zM21 14h1.75v1.75H21zM17.5 14h1.75v1.75H17.5zM14 14h1.75v1.75H14zM10.5 14h1.75v1.75H10.5zM7 14h1.75v1.75H7zM45.5 43.75h1.75v1.75H45.5zM42 43.75h1.75v1.75H42zM38.5 43.75h1.75v1.75H38.5zM35 43.75h1.75v1.75H35zM31.5 43.75h1.75v1.75H31.5zM28 43.75h1.75v1.75H28zM24.5 43.75h1.75v1.75H24.5zM21 43.75h1.75v1.75H21zM17.5 43.75h1.75v1.75H17.5zM14 43.75h1.75v1.75H14zM10.5 43.75h1.75v1.75H10.5zM7 43.75h1.75v1.75H7z"/><path class="cls-1" d="M45.5 43.75h1.75v1.75H45.5zM42 43.75h1.75v1.75H42zM38.5 43.75h1.75v1.75H38.5zM35 43.75h1.75v1.75H35zM31.5 43.75h1.75v1.75H31.5zM28 43.75h1.75v1.75H28zM24.5 43.75h1.75v1.75H24.5zM21 43.75h1.75v1.75H21zM17.5 43.75h1.75v1.75H17.5zM14 43.75h1.75v1.75H14zM10.5 43.75h1.75v1.75H10.5zM7 43.75h1.75v1.75H7zM52.5 36.75H35.88a7 7 0 0 1 0-14H52.5a1.75 1.75 0 0 0 0-3.5h-.87V17.5h.87A3.5 3.5 0 0 1 56 21v12.25a3.5 3.5 0 0 1-3.5 3.5zM35.88 24.5a5.25 5.25 0 0 0 0 10.5H52.5a1.75 1.75 0 0 0 1.75-1.75V24a3.47 3.47 0 0 1-1.75.47z"/></g></g></svg>