<svg xmlns="http://www.w3.org/2000/svg" viewBox="0 0 40 40"><defs><style>.cls-1{fill:#fff}</style></defs><g id="Layer_2" data-name="Layer 2"><g id="Режим_изоляции" data-name="Режим изоляции"><path class="cls-1" d="M36.27 40h-17a3.74 3.74 0 0 1-3.73-3.73V25.75h1.67v10.52a2.06 2.06 0 0 0 2.06 2.06h17a2.06 2.06 0 0 0 2.06-2.06V3.73a2.06 2.06 0 0 0-2.06-2.06h-17a2.06 2.06 0 0 0-2.06 2.06v6.9h-1.7v-6.9A3.74 3.74 0 0 1 19.24 0h17A3.73 3.73 0 0 1 40 3.73v32.54A3.73 3.73 0 0 1 36.27 40z"/><path class="cls-1" d="M36.73 32.53H18.78V22.39h1.67v8.47h14.61V5.6H20.45v8.49h-1.67V3.93h17.95v28.6zM25.41 34.6h4.7v1.67h-4.7z"/><path class="cls-1" d="M12.73 30.65v-7.21H0V13h12.73V5.81l12.11 12.42zM1.67 21.77H14.4v4.78l8.11-8.32-8.11-8.32v4.78H1.67z"/></g></g></svg>