<svg xmlns="http://www.w3.org/2000/svg" viewBox="0 0 40 40"><defs><style>.cls-1{fill:#fff;}</style></defs><title>ic_2 High Security</title><g id="Layer_2" data-name="Layer 2"><g id="Режим_изоляции" data-name="Режим изоляции"><path class="cls-1" d="M36.27,40h-17a3.74,3.74,0,0,1-3.73-3.73V25.75h1.67V36.27a2.06,2.06,0,0,0,2.06,2.06h17a2.06,2.06,0,0,0,2.06-2.06V3.73a2.06,2.06,0,0,0-2.06-2.06h-17a2.06,2.06,0,0,0-2.06,2.06v6.9H15.51V3.73A3.74,3.74,0,0,1,19.24,0h17A3.73,3.73,0,0,1,40,3.73V36.27A3.73,3.73,0,0,1,36.27,40Z"/><polygon class="cls-1" points="36.73 32.53 18.78 32.53 18.78 22.39 20.45 22.39 20.45 30.86 35.06 30.86 35.06 5.6 20.45 5.6 20.45 14.09 18.78 14.09 18.78 3.93 36.73 3.93 36.73 32.53"/><rect class="cls-1" x="25.41" y="34.6" width="4.7" height="1.67"/><path class="cls-1" d="M12.73,30.65V23.44H0V13H12.73V5.81L24.84,18.23ZM1.67,21.77H14.4v4.78l8.11-8.32L14.4,9.91v4.78H1.67Z"/></g></g></svg>