<?xml version="1.0" encoding="UTF-8"?>
<svg width="21px" height="16px" viewBox="0 0 21 16" version="1.1" xmlns="http://www.w3.org/2000/svg" xmlns:xlink="http://www.w3.org/1999/xlink">
    <!-- Generator: Sketch 49.3 (51167) - http://www.bohemiancoding.com/sketch -->
    <title>Slice 1</title>
    <desc>Created with Sketch.</desc>
    <defs></defs>
    <g id="Page-1" stroke="none" stroke-width="1" fill="none" fill-rule="evenodd">
        <g id="youtube" fill="#828282" fill-rule="nonzero">
            <path d="M20.79,3.46 C20.7111707,2.67295413 20.4398592,1.91740331 20,1.26 C19.4891674,0.630733178 18.7096088,0.281787905 17.9,0.32 C14.91,0 10.5,0 10.5,0 C10.5,0 6.09,0 3.15,0.21 C2.34400557,0.247369251 1.58704101,0.607828563 1.05,1.21 C0.600109304,1.90349765 0.31294149,2.68979047 0.21,3.51 C0.0787121422,4.71567461 0.0086222166,5.92722903 0,7.14 L0,8.82 C0.00692144351,10.0494539 0.0770138584,11.27774 0.21,12.5 C0.303795282,13.2915057 0.592408805,14.0473982 1.05,14.7 C1.66858368,15.3016226 2.49710141,15.6387683 3.36,15.64 C5.04,15.85 10.5,15.85 10.5,15.85 C10.5,15.85 14.91,15.85 17.85,15.64 C18.666576,15.6410734 19.4462946,15.3001732 20,14.7 C20.444075,14.03662 20.7313305,13.2808645 20.84,12.49 C20.84,12.49 21,10.61 21,8.82 L21,7.14 C20.9930786,5.91054611 20.9229861,4.68225998 20.79,3.46 Z M8,12.18 L8,4.3 L14.93,8.3 L8,12.18 Z" id="Shape"></path>
        </g>
    </g>
</svg>