<svg xmlns="http://www.w3.org/2000/svg" viewBox="0 0 21 15.85"><g data-name="Layer 2"><path d="M20.79 3.46a4.82 4.82 0 0 0-.79-2.2 2.55 2.55 0 0 0-2.1-.94C14.91 0 10.5 0 10.5 0S6.09 0 3.15.21a3 3 0 0 0-2.1 1 5.48 5.48 0 0 0-.84 2.3A35.89 35.89 0 0 0 0 7.14v1.68a35.89 35.89 0 0 0 .21 3.68 4.82 4.82 0 0 0 .84 2.2 3.32 3.32 0 0 0 2.31.94c1.68.21 7.14.21 7.14.21s4.41 0 7.35-.21A2.92 2.92 0 0 0 20 14.7a5.26 5.26 0 0 0 .84-2.21s.16-1.88.16-3.67V7.14a35.89 35.89 0 0 0-.21-3.68zM8 12.18V4.3l6.93 4z" fill="#828282" data-name="Layer 1"/></g></svg>