<svg xmlns="http://www.w3.org/2000/svg" viewBox="0 0 24 24"><g data-name="Layer 2"><g data-name="Layer 1"><circle cx="12" cy="12" r="11.5" transform="rotate(-1.68 12.102 12.116)" stroke="#b2b2b2" stroke-miterlimit="10"/><path d="M.65 12a11.37 11.37 0 0 0 6.62 10.32V1.68A11.37 11.37 0 0 0 .65 12z" fill="#002f66"/><path d="M23.35 12a11.37 11.37 0 0 0-6.62-10.32v20.64A11.37 11.37 0 0 0 23.35 12z" fill="#ef4135"/><path d="M12 .65a11.32 11.32 0 0 0-4.73 1v20.67a11.38 11.38 0 0 0 9.46 0V1.68A11.32 11.32 0 0 0 12 .65z" fill="#fff"/></g></g></svg>