<?xml version="1.0" encoding="utf-8"?>
<!-- Generator: Adobe Illustrator 22.0.1, SVG Export Plug-In . SVG Version: 6.00 Build 0)  -->
<svg version="1.1" id="Режим_изоляции"
	 xmlns="http://www.w3.org/2000/svg" xmlns:xlink="http://www.w3.org/1999/xlink" x="0px" y="0px" viewBox="0 0 24 24"
	 style="enable-background:new 0 0 24 24;" xml:space="preserve">
<style type="text/css">
	.st0{fill:#B2B2B2;stroke:#B2B2B2;stroke-miterlimit:10;}
	.st1{fill:#4E8623;}
	.st2{fill:#E6973E;}
	.st3{fill:#FFFFFF;}
	.st4{fill:#000064;}
</style>
<g>
	<path class="st0" d="M23.5,12c0,6.4-5.1,11.5-11.5,11.5S0.5,18.4,0.5,12C0.5,5.6,5.6,0.5,12,0.5S23.5,5.6,23.5,12z"/>
	<g>
		<path class="st1" d="M12,23.3c4.6,0,8.5-2.7,10.3-6.6H1.7C3.5,20.6,7.4,23.3,12,23.3z"/>
		<path class="st2" d="M12,0.7c-4.6,0-8.5,2.7-10.3,6.6h20.6C20.5,3.4,16.6,0.7,12,0.7z"/>
		<path class="st3" d="M0.7,12c0,1.7,0.4,3.3,1,4.7h20.6c0.7-1.4,1-3,1-4.7c0-1.7-0.4-3.3-1-4.7H1.7C1,8.7,0.7,10.3,0.7,12z"/>
		<g>
			<path class="st4" d="M15.3,10.8c-0.1,0-0.2,0-0.2-0.1c0-0.1,0-0.2,0.1-0.2c0.1,0,0.2,0,0.2,0.1C15.4,10.7,15.4,10.8,15.3,10.8z"
				/>
			<path class="st4" d="M15.5,11.7c-0.1,0-0.2-0.1-0.2-0.2c0-0.1,0.1-0.2,0.2-0.2c0.1,0,0.2,0.1,0.2,0.2
				C15.7,11.6,15.6,11.7,15.5,11.7z"/>
			<path class="st4" d="M15.5,12.6c-0.1,0-0.1-0.1-0.1-0.2c0-0.1,0.1-0.1,0.2-0.1c0.1,0,0.1,0.1,0.1,0.2
				C15.6,12.6,15.5,12.6,15.5,12.6z"/>
			<path class="st4" d="M15.2,13.5c-0.1,0-0.1-0.1-0.1-0.2c0-0.1,0.1-0.1,0.2-0.1c0.1,0,0.1,0.1,0.1,0.2
				C15.4,13.5,15.3,13.5,15.2,13.5z"/>
			<path class="st4" d="M15.3,10.8c-0.1,0-0.2,0-0.2-0.1c0-0.1,0-0.2,0.1-0.2c0.1,0,0.2,0,0.2,0.1C15.4,10.7,15.4,10.8,15.3,10.8z"
				/>
			<path class="st4" d="M15.5,11.7c-0.1,0-0.2-0.1-0.2-0.2c0-0.1,0.1-0.2,0.2-0.2c0.1,0,0.2,0.1,0.2,0.2
				C15.7,11.6,15.6,11.7,15.5,11.7z"/>
			<path class="st4" d="M15.5,12.6c-0.1,0-0.1-0.1-0.1-0.2c0-0.1,0.1-0.1,0.2-0.1c0.1,0,0.1,0.1,0.1,0.2
				C15.6,12.6,15.5,12.6,15.5,12.6z"/>
			<path class="st4" d="M15.2,13.5c-0.1,0-0.1-0.1-0.1-0.2c0-0.1,0.1-0.1,0.2-0.1c0.1,0,0.1,0.1,0.1,0.2
				C15.4,13.5,15.3,13.5,15.2,13.5z"/>
			<g>
				<path class="st4" d="M11.7,8.5c0,0.1-0.1,0.2-0.2,0.2c-0.1,0-0.2-0.1-0.2-0.2c0-0.1,0.1-0.2,0.2-0.2C11.6,8.3,11.7,8.4,11.7,8.5
					z"/>
				<path class="st4" d="M12.6,8.5c0,0.1-0.1,0.1-0.2,0.1c-0.1,0-0.1-0.1-0.1-0.2c0-0.1,0.1-0.1,0.2-0.1C12.6,8.4,12.6,8.5,12.6,8.5
					z"/>
				<path class="st4" d="M13.5,8.8c0,0.1-0.1,0.1-0.2,0.1c-0.1,0-0.1-0.1-0.1-0.2c0-0.1,0.1-0.1,0.2-0.1C13.5,8.6,13.5,8.7,13.5,8.8
					z"/>
				<path class="st4" d="M14.2,9.3c-0.1,0.1-0.2,0.1-0.2,0c-0.1-0.1-0.1-0.2,0-0.2c0.1-0.1,0.2-0.1,0.2,0
					C14.3,9.1,14.3,9.2,14.2,9.3z"/>
				<path class="st4" d="M14.9,10c-0.1,0-0.2,0-0.2-0.1c0-0.1,0-0.2,0.1-0.2c0.1,0,0.2,0,0.2,0.1C15,9.8,14.9,9.9,14.9,10z"/>
				<path class="st4" d="M14.7,14.2c-0.1-0.1-0.1-0.2,0-0.2c0.1-0.1,0.2-0.1,0.2,0c0.1,0.1,0.1,0.2,0,0.2
					C14.9,14.3,14.8,14.3,14.7,14.2z"/>
				<path class="st4" d="M14,14.9c0-0.1,0-0.2,0.1-0.2c0.1,0,0.2,0,0.2,0.1c0,0.1,0,0.2-0.1,0.2C14.2,15,14.1,14.9,14,14.9z"/>
				<path class="st4" d="M13.2,15.3c0-0.1,0-0.2,0.1-0.2c0.1,0,0.2,0,0.2,0.1c0,0.1,0,0.2-0.1,0.2C13.3,15.4,13.2,15.4,13.2,15.3z"
					/>
				<path class="st4" d="M12.3,15.5c0-0.1,0.1-0.2,0.2-0.2c0.1,0,0.2,0.1,0.2,0.2c0,0.1-0.1,0.2-0.2,0.2
					C12.4,15.7,12.3,15.6,12.3,15.5z"/>
				<path class="st4" d="M11.4,15.5c0-0.1,0.1-0.1,0.2-0.1c0.1,0,0.1,0.1,0.1,0.2c0,0.1-0.1,0.1-0.2,0.1
					C11.4,15.6,11.4,15.5,11.4,15.5z"/>
				<path class="st4" d="M10.5,15.2c0-0.1,0.1-0.1,0.2-0.1c0.1,0,0.1,0.1,0.1,0.2c0,0.1-0.1,0.1-0.2,0.1
					C10.5,15.4,10.5,15.3,10.5,15.2z"/>
				<path class="st4" d="M9.8,14.7c0.1-0.1,0.2-0.1,0.2,0c0.1,0.1,0.1,0.2,0,0.2c-0.1,0.1-0.2,0.1-0.2,0C9.7,14.9,9.7,14.8,9.8,14.7
					z"/>
				<path class="st4" d="M9.1,14c0.1,0,0.2,0,0.2,0.1c0,0.1,0,0.2-0.1,0.2c-0.1,0-0.2,0-0.2-0.1C9,14.2,9.1,14.1,9.1,14z"/>
				<path class="st4" d="M8.7,13.2c0.1,0,0.2,0,0.2,0.1c0,0.1,0,0.2-0.1,0.2c-0.1,0-0.2,0-0.2-0.1C8.6,13.3,8.6,13.2,8.7,13.2z"/>
				<path class="st4" d="M8.5,12.3c0.1,0,0.2,0.1,0.2,0.2c0,0.1-0.1,0.2-0.2,0.2c-0.1,0-0.2-0.1-0.2-0.2C8.3,12.4,8.4,12.3,8.5,12.3
					z"/>
				<path class="st4" d="M8.5,11.4c0.1,0,0.1,0.1,0.1,0.2c0,0.1-0.1,0.1-0.2,0.1c-0.1,0-0.1-0.1-0.1-0.2C8.4,11.4,8.5,11.4,8.5,11.4
					z"/>
				<path class="st4" d="M8.8,10.5c0.1,0,0.1,0.1,0.1,0.2c0,0.1-0.1,0.1-0.2,0.1c-0.1,0-0.1-0.1-0.1-0.2C8.6,10.5,8.7,10.5,8.8,10.5
					z"/>
				<path class="st4" d="M9.3,9.8c0.1,0.1,0.1,0.2,0,0.2c-0.1,0.1-0.2,0.1-0.2,0C9,9.9,9,9.8,9.1,9.8C9.1,9.7,9.2,9.7,9.3,9.8z"/>
				<path class="st4" d="M10,9.1c0,0.1,0,0.2-0.1,0.2c-0.1,0-0.2,0-0.2-0.1c0-0.1,0-0.2,0.1-0.2C9.8,9,9.9,9.1,10,9.1z"/>
				<path class="st4" d="M10.8,8.7c0,0.1,0,0.2-0.1,0.2c-0.1,0-0.2,0-0.2-0.1c0-0.1,0-0.2,0.1-0.2C10.7,8.6,10.8,8.6,10.8,8.7z"/>
				<g>
					<polygon class="st4" points="11.9,12 12,10.6 11.9,8.5 11.8,10.6 					"/>
					<polygon class="st4" points="11.9,12 12.4,10.7 12.8,8.6 12.2,10.6 					"/>
					<polygon class="st4" points="11.9,12 12.7,10.8 13.7,9 12.5,10.7 					"/>
					<polygon class="st4" points="11.9,12 13,11.1 14.4,9.5 12.8,10.9 					"/>
					<polygon class="st4" points="11.9,12 13.2,11.4 14.9,10.2 13.1,11.2 					"/>
					<polygon class="st4" points="11.9,12 13.3,11.7 15.3,11.1 13.2,11.5 					"/>
					<polygon class="st4" points="11.9,12 13.3,12.1 15.4,12 13.3,11.9 					"/>
					<polygon class="st4" points="11.9,12 13.2,12.4 15.3,12.9 13.3,12.2 					"/>
					<polygon class="st4" points="11.9,12 13.1,12.8 15,13.7 13.2,12.6 					"/>
					<polygon class="st4" points="11.9,12 12.8,13 14.4,14.5 13,12.9 					"/>
					<polygon class="st4" points="11.9,12 12.5,13.2 13.7,15 12.7,13.1 					"/>
					<polygon class="st4" points="11.9,12 12.2,13.4 12.8,15.4 12.4,13.3 					"/>
					<polygon class="st4" points="11.9,12 11.8,13.4 11.9,15.5 12,13.4 					"/>
					<polygon class="st4" points="11.9,12 11.5,13.3 11,15.4 11.7,13.4 					"/>
					<polygon class="st4" points="11.9,12 11.1,13.1 10.2,15 11.3,13.2 					"/>
					<polygon class="st4" points="11.9,12 10.9,12.9 9.5,14.5 11,13.1 					"/>
					<polygon class="st4" points="11.9,12 10.7,12.6 8.9,13.7 10.8,12.8 					"/>
					<polygon class="st4" points="11.9,12 10.6,12.3 8.6,12.9 10.6,12.5 					"/>
					<polygon class="st4" points="11.9,12 10.5,11.9 8.4,12 10.5,12.1 					"/>
					<polygon class="st4" points="11.9,12 10.6,11.5 8.5,11.1 10.6,11.7 					"/>
					<polygon class="st4" points="11.9,12 10.8,11.2 8.9,10.2 10.7,11.4 					"/>
					<polygon class="st4" points="11.9,12 11,10.9 9.4,9.5 10.9,11.1 					"/>
					<polygon class="st4" points="11.9,12 11.3,10.7 10.2,9 11.1,10.8 					"/>
					<polygon class="st4" points="11.9,12 11.7,10.6 11,8.6 11.5,10.7 					"/>
				</g>
				<g>
					<path class="st4" d="M13,8.2C10.9,7.6,8.7,8.9,8.2,11c-0.6,2.1,0.7,4.3,2.8,4.9c2.1,0.6,4.3-0.7,4.9-2.8
						C16.4,10.9,15.1,8.7,13,8.2z M11.1,15.4c-1.9-0.5-3-2.4-2.5-4.3c0.5-1.9,2.4-3,4.3-2.5c1.9,0.5,3,2.4,2.5,4.3
						C14.9,14.8,13,15.9,11.1,15.4z"/>
					<path class="st4" d="M12.7,12.2c-0.1,0.4-0.5,0.6-0.9,0.5c-0.4-0.1-0.6-0.5-0.5-0.9c0.1-0.4,0.5-0.6,0.9-0.5
						C12.6,11.4,12.8,11.8,12.7,12.2z"/>
				</g>
				<path class="st4" d="M13.5,8.8c0,0.1-0.1,0.1-0.2,0.1c-0.1,0-0.1-0.1-0.1-0.2c0-0.1,0.1-0.1,0.2-0.1C13.5,8.6,13.5,8.7,13.5,8.8
					z"/>
				<path class="st4" d="M14.2,9.3c-0.1,0.1-0.2,0.1-0.2,0c-0.1-0.1-0.1-0.2,0-0.2c0.1-0.1,0.2-0.1,0.2,0
					C14.3,9.1,14.3,9.2,14.2,9.3z"/>
				<path class="st4" d="M14.9,10c-0.1,0-0.2,0-0.2-0.1c0-0.1,0-0.2,0.1-0.2c0.1,0,0.2,0,0.2,0.1C15,9.8,14.9,9.9,14.9,10z"/>
				<path class="st4" d="M14.7,14.2c-0.1-0.1-0.1-0.2,0-0.2c0.1-0.1,0.2-0.1,0.2,0c0.1,0.1,0.1,0.2,0,0.2
					C14.9,14.3,14.8,14.3,14.7,14.2z"/>
				<path class="st4" d="M14,14.9c0-0.1,0-0.2,0.1-0.2c0.1,0,0.2,0,0.2,0.1c0,0.1,0,0.2-0.1,0.2C14.2,15,14.1,14.9,14,14.9z"/>
				<path class="st4" d="M13.2,15.3c0-0.1,0-0.2,0.1-0.2c0.1,0,0.2,0,0.2,0.1c0,0.1,0,0.2-0.1,0.2C13.3,15.4,13.2,15.4,13.2,15.3z"
					/>
				<path class="st4" d="M12.3,15.5c0-0.1,0.1-0.2,0.2-0.2c0.1,0,0.2,0.1,0.2,0.2c0,0.1-0.1,0.2-0.2,0.2
					C12.4,15.7,12.3,15.6,12.3,15.5z"/>
				<path class="st4" d="M11.4,15.5c0-0.1,0.1-0.1,0.2-0.1c0.1,0,0.1,0.1,0.1,0.2c0,0.1-0.1,0.1-0.2,0.1
					C11.4,15.6,11.4,15.5,11.4,15.5z"/>
				<path class="st4" d="M10.5,15.2c0-0.1,0.1-0.1,0.2-0.1c0.1,0,0.1,0.1,0.1,0.2c0,0.1-0.1,0.1-0.2,0.1
					C10.5,15.4,10.5,15.3,10.5,15.2z"/>
				<path class="st4" d="M9.8,14.7c0.1-0.1,0.2-0.1,0.2,0c0.1,0.1,0.1,0.2,0,0.2c-0.1,0.1-0.2,0.1-0.2,0C9.7,14.9,9.7,14.8,9.8,14.7
					z"/>
				<path class="st4" d="M9.1,14c0.1,0,0.2,0,0.2,0.1c0,0.1,0,0.2-0.1,0.2c-0.1,0-0.2,0-0.2-0.1C9,14.2,9.1,14.1,9.1,14z"/>
				<path class="st4" d="M8.7,13.2c0.1,0,0.2,0,0.2,0.1c0,0.1,0,0.2-0.1,0.2c-0.1,0-0.2,0-0.2-0.1C8.6,13.3,8.6,13.2,8.7,13.2z"/>
				<path class="st4" d="M8.5,12.3c0.1,0,0.2,0.1,0.2,0.2c0,0.1-0.1,0.2-0.2,0.2c-0.1,0-0.2-0.1-0.2-0.2C8.3,12.4,8.4,12.3,8.5,12.3
					z"/>
				<path class="st4" d="M8.5,11.4c0.1,0,0.1,0.1,0.1,0.2c0,0.1-0.1,0.1-0.2,0.1c-0.1,0-0.1-0.1-0.1-0.2C8.4,11.4,8.5,11.4,8.5,11.4
					z"/>
				<path class="st4" d="M8.8,10.5c0.1,0,0.1,0.1,0.1,0.2c0,0.1-0.1,0.1-0.2,0.1c-0.1,0-0.1-0.1-0.1-0.2C8.6,10.5,8.7,10.5,8.8,10.5
					z"/>
				<path class="st4" d="M9.3,9.8c0.1,0.1,0.1,0.2,0,0.2c-0.1,0.1-0.2,0.1-0.2,0C9,9.9,9,9.8,9.1,9.8C9.1,9.7,9.2,9.7,9.3,9.8z"/>
				<path class="st4" d="M10,9.1c0,0.1,0,0.2-0.1,0.2c-0.1,0-0.2,0-0.2-0.1c0-0.1,0-0.2,0.1-0.2C9.8,9,9.9,9.1,10,9.1z"/>
				<path class="st4" d="M10.8,8.7c0,0.1,0,0.2-0.1,0.2c-0.1,0-0.2,0-0.2-0.1c0-0.1,0-0.2,0.1-0.2C10.7,8.6,10.8,8.6,10.8,8.7z"/>
				<path class="st4" d="M11.7,8.5c0,0.1-0.1,0.2-0.2,0.2c-0.1,0-0.2-0.1-0.2-0.2c0-0.1,0.1-0.2,0.2-0.2C11.6,8.3,11.7,8.4,11.7,8.5
					z"/>
			</g>
		</g>
	</g>
</g>
</svg>
