<svg xmlns="http://www.w3.org/2000/svg" viewBox="0 0 23.75 23.75"><defs><style>.cls-1{stroke:#b2b2b2;stroke-miterlimit:10;stroke-width:0.75px;}.cls-2{fill:#008d46;}.cls-3{fill:#d2232c;}.cls-4{fill:#fff;}</style></defs><title>ic_Asset 1</title><g id="Layer_2" data-name="Layer 2"><g id="Layer_1-2" data-name="Layer 1"><path class="cls-1" d="M23.38,11.88A11.5,11.5,0,1,1,11.87.38,11.5,11.5,0,0,1,23.38,11.88Z"/><path class="cls-2" d="M.53,11.88A11.34,11.34,0,0,0,7.15,22.19V1.56A11.34,11.34,0,0,0,.53,11.88Z"/><path class="cls-3" d="M23.22,11.88A11.34,11.34,0,0,0,16.6,1.56V22.19A11.34,11.34,0,0,0,23.22,11.88Z"/><path class="cls-4" d="M11.87.53a11.31,11.31,0,0,0-4.72,1V22.19a11.35,11.35,0,0,0,9.45,0V1.56A11.32,11.32,0,0,0,11.87.53Z"/></g></g></svg>