<svg xmlns="http://www.w3.org/2000/svg" viewBox="0 0 23.75 23.75"><g data-name="Layer 2"><g data-name="Layer 1"><path d="M23.38 11.88A11.5 11.5 0 1 1 11.87.38a11.5 11.5 0 0 1 11.51 11.5z" stroke="#b2b2b2" stroke-miterlimit="10" stroke-width=".75"/><path d="M.53 11.88a11.34 11.34 0 0 0 6.62 10.31V1.56A11.34 11.34 0 0 0 .53 11.88z" fill="#008d46"/><path d="M23.22 11.88A11.34 11.34 0 0 0 16.6 1.56v20.63a11.34 11.34 0 0 0 6.62-10.31z" fill="#d2232c"/><path d="M11.87.53a11.31 11.31 0 0 0-4.72 1v20.66a11.35 11.35 0 0 0 9.45 0V1.56A11.32 11.32 0 0 0 11.87.53z" fill="#fff"/></g></g></svg>