<svg xmlns="http://www.w3.org/2000/svg" viewBox="0 0 24 24"><defs><style>.cls-3{fill:#fec91b}</style></defs><g id="Слой_2" data-name="Слой 2"><g id="Режим_изоляции" data-name="Режим изоляции"><circle cx="12" cy="12" r="11.5" fill="#b2b2b2" stroke="#b2b2b2" stroke-miterlimit="10"/><ellipse cx="12" cy="12.01" rx="11.35" ry="11.3" fill="#00a1cc"/><path class="cls-3" d="M6.45 11h.07a.66.66 0 0 1 .12.17c.18.34.31.69.46 1v-.43a2 2 0 0 1 0-.39.1.1 0 0 1 .15-.05.84.84 0 0 1 0 .13 4.54 4.54 0 0 0 .43 1.46 4.88 4.88 0 0 0 1.66 1.91 4.69 4.69 0 0 0 2.6.78c.07 0 .1.09 0 .12a.32.32 0 0 0-.15.09 1 1 0 0 1-.27.21.49.49 0 0 0-.12-.14.94.94 0 0 0-.4-.16 4.27 4.27 0 0 0-.51-.07h-.34a.13.13 0 0 1-.1 0 5.11 5.11 0 0 0-.92-.71.44.44 0 0 0-.13-.1.35.35 0 0 1-.14 0 .52.52 0 0 1-.14-.11A3.77 3.77 0 0 1 8.2 14a2.8 2.8 0 0 0-.4-.49 2.54 2.54 0 0 0-.41-.34v.06a.29.29 0 0 0-.2 0 .59.59 0 0 0 .08.25s.08.07.12.11 0 .1 0 .11a1.68 1.68 0 0 0-.2 0 .6.6 0 0 0 .21.3.92.92 0 0 1 .19.14v.07H7.4a.24.24 0 0 0 .08.09 3.28 3.28 0 0 0 .43.19h.06-.13c.05.07.15.08.21.14v.07l-.15.06c.1.1.26.12.38.19v.06l-.12.07a.21.21 0 0 0 .16.07.58.58 0 0 1 .23 0 .07.07 0 0 1 0 .11s-.11.07-.16.11a3.59 3.59 0 0 0 .38.19 4.09 4.09 0 0 0 .76.27 2.52 2.52 0 0 0 .67.05.37.37 0 0 1 .13 0s0 .06-.06.07a1 1 0 0 1-.34.07 2.87 2.87 0 0 1-.93.05 5.79 5.79 0 0 1-1.11-.46.35.35 0 0 1-.11-.08v-.06a.6.6 0 0 1 .14 0c-.15-.05-.31 0-.47-.09a.14.14 0 0 1-.08-.05.08.08 0 0 1 0-.1 1.59 1.59 0 0 1 .2 0 .78.78 0 0 0-.2-.06.79.79 0 0 1-.13-.17.11.11 0 0 1-.05-.1.11.11 0 0 1 .09 0 1.61 1.61 0 0 0 .26 0h-.07a3.72 3.72 0 0 1-.43-.1.21.21 0 0 1-.13-.12.06.06 0 0 1 0-.06h.43a.19.19 0 0 0-.11-.09 1.31 1.31 0 0 1-.31-.14 2.38 2.38 0 0 1-.43-.34.57.57 0 0 1-.14-.2v-.1a.16.16 0 0 1 .13 0 4.1 4.1 0 0 1 .48.22 9.24 9.24 0 0 1-.8-.75.88.88 0 0 1-.21-.35.19.19 0 0 1 0-.06.1.1 0 0 1 .09 0 1.1 1.1 0 0 1 .16.12c.17.15.34.31.52.46a.6.6 0 0 0 .2.12 1.27 1.27 0 0 0-.12-.2c-.2-.28-.39-.57-.56-.87a2.38 2.38 0 0 1-.24-.81.39.39 0 0 1 0-.29c.05 0 .08.05.11.09.24.35.42.74.67 1.09a.59.59 0 0 0 .17.18.6.6 0 0 0 0-.13c-.14-.39-.3-.76-.42-1.16a1.86 1.86 0 0 1-.08-.35.19.19 0 0 1 0-.11zM13.69 16.41a.09.09 0 0 1 .1 0h.26c.35 0 .71 0 1.06.06h.35c.11 0 0 0 0 0a.32.32 0 0 1-.17.33.93.93 0 0 1-.52.07.38.38 0 0 1 0 .2.23.23 0 0 1-.16.08.79.79 0 0 1-.35 0 .35.35 0 0 1-.18.16.28.28 0 0 1-.21 0 .53.53 0 0 1-.31.16.94.94 0 0 1-.18 0 .64.64 0 0 1-.24.13.27.27 0 0 1-.2-.07.82.82 0 0 1-.24.13h-.08a.21.21 0 0 1-.13-.12.52.52 0 0 1-.18.07.46.46 0 0 1-.23 0H12a.71.71 0 0 1-.28 0 .19.19 0 0 1-.11-.07.47.47 0 0 1-.23.08.24.24 0 0 1-.17-.05.12.12 0 0 1 0-.15.89.89 0 0 1 .16-.14l.27-.22a.08.08 0 0 1 .06 0 3.37 3.37 0 0 0 .94 0 2.12 2.12 0 0 0 .51-.17.24.24 0 0 1 .12 0h.21a.29.29 0 0 1 0-.08h.08a.2.2 0 0 0 .08-.09 1 1 0 0 0 0-.14z"/><path class="cls-3" d="M17.67 12.46a2.84 2.84 0 0 0 .36-.7.76.76 0 0 0 0-.23.19.19 0 0 0 0-.1.05.05 0 0 0-.05 0 .57.57 0 0 0-.09.11c-.29.42-.53.87-.83 1.28a.58.58 0 0 1-.18.18 2.13 2.13 0 0 1 .1-.28c.18-.42.36-.84.51-1.27a1.6 1.6 0 0 0 .09-.36s0-.11-.05-.12-.08 0-.11.08a3.52 3.52 0 0 0-.21.42c-.11.25-.22.5-.34.74v-.81a.18.18 0 0 0 0-.11.11.11 0 0 0-.13 0 .28.28 0 0 0 0 .1 4.15 4.15 0 0 1-.8 2.08 5.39 5.39 0 0 1-1.39 1.32 4.86 4.86 0 0 1-2 .79 1.21 1.21 0 0 0-.38.12 5.29 5.29 0 0 0-.46.29 2.09 2.09 0 0 1-.42.23 2.53 2.53 0 0 0-.57.24 1.41 1.41 0 0 0-.38.38.23.23 0 0 0 0 .21s0 .09.09.08 0-.1.07-.14h.05c.06 0 .12 0 .17-.06h.15l1.62-.07a.62.62 0 0 0 .35-.09.09.09 0 0 0-.07 0h-1.44-.05c.02 0 .17-.19.24-.28h-.22c-.06 0-.12.07-.19.06a.67.67 0 0 1 .14-.1c.23-.14.47-.25.72-.37a2.34 2.34 0 0 1 .31-.13 6.56 6.56 0 0 1 .88-.19h.65a2.37 2.37 0 0 1 .88-.63l.47-.17a1.1 1.1 0 0 0 .22-.23c.11-.15.2-.31.3-.47a2.5 2.5 0 0 1 .54-.63.71.71 0 0 1 .24-.14v.09a.36.36 0 0 1 .16-.08 1.58 1.58 0 0 1-.15.43v.11a.58.58 0 0 0 .2 0c0 .15-.18.24-.29.35s-.05.07 0 .09a1 1 0 0 0 .16 0 .23.23 0 0 1-.08.1c-.12.09-.27.15-.4.22s-.05 0 0 .07l.09.07c-.09.07-.2.11-.3.17s0 0 0 .06 0 .06.06.08a.88.88 0 0 1-.28.09.09.09 0 0 0-.08 0v.13a.14.14 0 0 1-.07.07h-.13a.07.07 0 0 0 0 .09 1.22 1.22 0 0 0 .08.12h-.14a1.34 1.34 0 0 0-.3.15.7.7 0 0 1-.22.07l-.36.08A3.87 3.87 0 0 0 14 16h-.06.08a4.06 4.06 0 0 0 .76-.07 6.12 6.12 0 0 0 .82-.18l.37-.12s.1 0 .12-.09a.07.07 0 0 0 0-.06l-.18-.06a.47.47 0 0 1 .2 0 1.17 1.17 0 0 0 .34-.06.07.07 0 0 0 0-.12c-.06 0-.14 0-.21-.07a2 2 0 0 1 .31-.06.53.53 0 0 0 .24-.09v-.1c0-.01-.14 0-.21 0a.17.17 0 0 1 .07-.05 2.85 2.85 0 0 0 .38-.14.17.17 0 0 0 .09-.14s0-.05-.06-.05h-.24a.82.82 0 0 1 .16-.09 1.91 1.91 0 0 0 .28-.18 2.67 2.67 0 0 0 .28-.24.54.54 0 0 0 .14-.19.09.09 0 0 0 0-.11.16.16 0 0 0-.12 0 2.38 2.38 0 0 0-.3.17.76.76 0 0 1-.26.1s0-.08.07-.11l.44-.41a3.88 3.88 0 0 0 .39-.43.51.51 0 0 0 .1-.22.09.09 0 0 0-.07-.11.39.39 0 0 0-.19.09c-.2.15-.37.32-.56.48a.48.48 0 0 1-.17.1 1.84 1.84 0 0 1 .17-.24c.16-.2.33-.44.49-.69zM11 16.73a.21.21 0 0 1-.14.08h-.1a.08.08 0 0 1 0-.1.2.2 0 0 1 .14-.08h.1c.03 0 0 .07 0 .1zM12 7.52c-.14 0-.21-.08-.21-.22a7.87 7.87 0 0 1 .21-.88 7.92 7.92 0 0 1 .21.88c.02.14-.05.22-.21.22zM11.44 7.57a.19.19 0 0 1-.25-.18 8.15 8.15 0 0 1 0-.9 7.92 7.92 0 0 1 .38.82.19.19 0 0 1-.13.26zM10.89 7.74a.19.19 0 0 1-.28-.12 7.9 7.9 0 0 1-.14-.89 7.77 7.77 0 0 1 .53.73.19.19 0 0 1-.11.28zM10.38 8a.2.2 0 0 1-.3-.07 7.88 7.88 0 0 1-.31-.85 7.56 7.56 0 0 1 .66.61.19.19 0 0 1-.05.31zM9.93 8.38a.2.2 0 0 1-.31 0 8 8 0 0 1-.47-.77 8.21 8.21 0 0 1 .77.47.19.19 0 0 1 .01.3zM9.56 8.82a.19.19 0 0 1-.3.05 8.31 8.31 0 0 1-.62-.66 7.6 7.6 0 0 1 .85.31.19.19 0 0 1 .07.3zM9.29 9.33a.2.2 0 0 1-.29.11 8 8 0 0 1-.73-.53 7.91 7.91 0 0 1 .9.14.19.19 0 0 1 .12.28zM9.12 9.88a.2.2 0 0 1-.26.16A7.75 7.75 0 0 1 8 9.67a8.13 8.13 0 0 1 .9 0 .19.19 0 0 1 .22.21zM9.06 10.45c0 .14-.08.21-.23.21a8 8 0 0 1-.83-.21 8.09 8.09 0 0 1 .88-.21c.12 0 .18.07.18.21zM9.12 11c0 .14 0 .22-.18.25a8 8 0 0 1-.9 0 8.39 8.39 0 0 1 .82-.38.2.2 0 0 1 .26.13zM9.28 11.58a.19.19 0 0 1-.12.28 8.23 8.23 0 0 1-.9.14 8.31 8.31 0 0 1 .74-.53.19.19 0 0 1 .28.11zM9.55 12.09a.19.19 0 0 1-.07.3 7.55 7.55 0 0 1-.85.31 8 8 0 0 1 .62-.7.19.19 0 0 1 .3.09zM9.92 12.53a.19.19 0 0 1 0 .31 7.83 7.83 0 0 1-.77.47 8.26 8.26 0 0 1 .47-.77.2.2 0 0 1 .3-.01zM10.37 12.9a.19.19 0 0 1 0 .3 7.73 7.73 0 0 1-.67.61 8 8 0 0 1 .31-.85.2.2 0 0 1 .36-.06zM10.88 13.17a.19.19 0 0 1 .11.29 7.89 7.89 0 0 1-.53.73 8.17 8.17 0 0 1 .14-.89.19.19 0 0 1 .28-.13zM11.43 13.34a.19.19 0 0 1 .16.26 8.19 8.19 0 0 1-.38.82 8 8 0 0 1 0-.9.19.19 0 0 1 .22-.18zM12 13.4c.14 0 .21.08.21.22a8 8 0 0 1-.21.88 7.92 7.92 0 0 1-.21-.88c.01-.14.08-.22.21-.22zM12.58 13.34a.19.19 0 0 1 .25.18 8 8 0 0 1 0 .9 8 8 0 0 1-.38-.82.19.19 0 0 1 .13-.26z"/><path class="cls-3" d="M13.14 13.18a.19.19 0 0 1 .28.13 8.17 8.17 0 0 1 .14.89 8.27 8.27 0 0 1-.53-.73.19.19 0 0 1 .11-.29zM13.65 12.9a.19.19 0 0 1 .3.07 8 8 0 0 1 .31.85 8.12 8.12 0 0 1-.67-.61.19.19 0 0 1 .06-.31zM14.1 12.54a.19.19 0 0 1 .31 0 8.25 8.25 0 0 1 .47.77 7.94 7.94 0 0 1-.77-.47.19.19 0 0 1-.01-.3zM14.47 12.09a.19.19 0 0 1 .3 0 7.55 7.55 0 0 1 .62.66 8.4 8.4 0 0 1-.85-.31.19.19 0 0 1-.07-.35zM14.74 11.59a.2.2 0 0 1 .29-.11 8.19 8.19 0 0 1 .73.53 8.32 8.32 0 0 1-.9-.14.19.19 0 0 1-.12-.28zM14.91 11a.19.19 0 0 1 .26-.16 7.68 7.68 0 0 1 .82.38 8.2 8.2 0 0 1-.91 0 .19.19 0 0 1-.17-.22zM15 10.46c0-.14.08-.21.23-.21a8 8 0 0 1 .88.21 8 8 0 0 1-.88.21c-.23 0-.23-.07-.23-.21zM14.91 9.89a.19.19 0 0 1 .18-.25 8.09 8.09 0 0 1 .91 0 7.66 7.66 0 0 1-.82.38.19.19 0 0 1-.27-.13zM14.74 9.34a.19.19 0 0 1 .12-.28 7.73 7.73 0 0 1 .89-.14 7.72 7.72 0 0 1-.73.53.19.19 0 0 1-.28-.11zM14.47 8.83a.19.19 0 0 1 .07-.3 8.12 8.12 0 0 1 .85-.31 8 8 0 0 1-.62.66.19.19 0 0 1-.3-.05zM14.1 8.38a.19.19 0 0 1 0-.31 8.14 8.14 0 0 1 .77-.47 8 8 0 0 1-.47.77.2.2 0 0 1-.3.01zM13.66 8a.19.19 0 0 1-.05-.3 8 8 0 0 1 .67-.61 8.56 8.56 0 0 1-.31.85.19.19 0 0 1-.31.06zM13.15 7.74a.19.19 0 0 1-.15-.28 8.14 8.14 0 0 1 .53-.73 7.65 7.65 0 0 1-.14.89.19.19 0 0 1-.24.12zM12.59 7.57a.19.19 0 0 1-.16-.26 7.61 7.61 0 0 1 .38-.82 8 8 0 0 1 0 .9.19.19 0 0 1-.22.18z"/><ellipse class="cls-3" cx="12.01" cy="10.46" rx="2.6" ry="2.59"/></g></g></svg>