<svg xmlns="http://www.w3.org/2000/svg" viewBox="0 0 24 24"><defs><style>.cls-2{fill:#ce1126}.cls-4{fill:#fcd856}.cls-5{fill:#fff}.cls-6{fill:#0072c6}</style></defs><g id="Layer_2" data-name="Layer 2"><g id="Layer_1-2" data-name="Layer 1"><path d="M23.5 12A11.5 11.5 0 1 1 12 .5 11.5 11.5 0 0 1 23.5 12z" stroke="#b2b2b2" stroke-miterlimit="10"/><path class="cls-2" d="M12 .65a11 11 0 0 0-2.08.2v22.31a11.83 11.83 0 0 0 2.08.19 11.35 11.35 0 0 0 0-22.7z"/><path d="M.65 12a11.36 11.36 0 0 0 9.27 11.16V.85A11.34 11.34 0 0 0 .65 12z" fill="#3d8e33"/><path class="cls-4" d="M9.7 5.92A4.28 4.28 0 1 0 14 10.2a4.28 4.28 0 0 0-4.3-4.28zm0 8.15a3.87 3.87 0 1 1 3.87-3.87 3.87 3.87 0 0 1-3.87 3.87z"/><path class="cls-4" d="M14 10.2a4.32 4.32 0 1 1-4.3-4.32A4.32 4.32 0 0 1 14 10.2zM9.7 6a4.24 4.24 0 1 0 4.24 4.23A4.23 4.23 0 0 0 9.7 6z"/><path d="M5.37 10.2A4.33 4.33 0 0 1 9.7 5.87 4.33 4.33 0 0 1 14 10.2a4.33 4.33 0 0 1-4.3 4.33 4.33 4.33 0 0 1-4.33-4.33zm0 0a4.33 4.33 0 0 0 4.33 4.32A4.33 4.33 0 0 0 14 10.2a4.34 4.34 0 0 0-4.3-4.32 4.34 4.34 0 0 0-4.32 4.32zm.07 0A4.25 4.25 0 0 1 9.7 6a4.24 4.24 0 0 0-4.23 4.2 4.23 4.23 0 0 0 4.23 4.23 4.23 4.23 0 0 0 4.23-4.23A4.24 4.24 0 0 0 9.7 6a4.24 4.24 0 0 1 4.24 4.24 4.24 4.24 0 0 1-4.24 4.21 4.25 4.25 0 0 1-4.25-4.25z"/><path class="cls-4" d="M13.61 10.2A3.91 3.91 0 1 1 9.7 6.29a3.91 3.91 0 0 1 3.91 3.91zM9.7 6.37a3.83 3.83 0 1 0 3.83 3.83A3.84 3.84 0 0 0 9.7 6.37z"/><path d="M5.78 10.2A3.92 3.92 0 0 1 9.7 6.28a3.93 3.93 0 0 1 3.92 3.92 3.92 3.92 0 0 1-3.92 3.92 3.91 3.91 0 0 1-3.92-3.92zm0 0a3.92 3.92 0 0 0 3.92 3.91 3.92 3.92 0 0 0 3.91-3.91A3.91 3.91 0 0 0 9.7 6.3a3.91 3.91 0 0 0-3.91 3.9zm.08 0A3.83 3.83 0 0 1 9.7 6.37a3.83 3.83 0 0 0-3.82 3.83A3.82 3.82 0 0 0 9.7 14a3.83 3.83 0 0 0 3.82-3.82 3.83 3.83 0 0 0-3.82-3.8 3.83 3.83 0 0 1 3.83 3.83A3.82 3.82 0 0 1 9.7 14a3.82 3.82 0 0 1-3.83-3.8z"/><path id="_Path_" data-name="&lt;Path&gt;" class="cls-5" d="M7.19 11a2.57 2.57 0 0 0 4.38 1.81 2.52 2.52 0 0 0 .76-1.81V7.55H7.19V11z"/><path d="M7.94 12.79A2.59 2.59 0 0 1 7.19 11V7.54h5.14V11a2.6 2.6 0 0 1-.75 1.82 2.6 2.6 0 0 1-1.82.75 2.56 2.56 0 0 1-1.82-.76zm0 0a2.58 2.58 0 0 0 1.81.76 2.59 2.59 0 0 0 1.81-.75 2.59 2.59 0 0 0 .76-1.8V7.56H7.2V11a2.57 2.57 0 0 0 .8 1.78z"/><g id="_Path_2" data-name="&lt;Path&gt;"><path class="cls-2" d="M7.3 11a2.46 2.46 0 0 0 4.2 1.73 2.4 2.4 0 0 0 .72-1.73V7.66H7.3z"/><path d="M8 12.72A2.45 2.45 0 0 1 7.29 11V7.65h4.93V11a2.45 2.45 0 0 1-.73 1.74 2.46 2.46 0 0 1-1.74.72A2.48 2.48 0 0 1 8 12.72zM7.3 11a2.44 2.44 0 0 0 .7 1.71 2.46 2.46 0 0 0 1.73.72 2.48 2.48 0 0 0 1.74-.72 2.44 2.44 0 0 0 .75-1.71V7.67H7.31V11z"/></g><g id="_Path_3" data-name="&lt;Path&gt;"><path class="cls-5" d="M8.3 10.83A1.67 1.67 0 0 0 8.73 12a1.4 1.4 0 0 0 1 .47 1.38 1.38 0 0 0 1-.46 1.7 1.7 0 0 0 .43-1.13V8.67H8.31z"/><path d="M8.73 12a1.65 1.65 0 0 1-.43-1.13V8.66h2.91v2.16a1.65 1.65 0 0 1-.42 1.18 1.39 1.39 0 0 1-1 .47 1.39 1.39 0 0 1-1-.47zm-.42-1.13A1.64 1.64 0 0 0 8.74 12a1.37 1.37 0 0 0 1 .47 1.4 1.4 0 0 0 1-.47 1.66 1.66 0 0 0 .42-1.12v-2.2H8.31v2.16z"/></g><path class="cls-6" d="M9.44 10.61a.42.42 0 0 0 .09.25.31.31 0 0 0 .46 0 .37.37 0 0 0 .09-.25v-.48h-.64z" id="_Path_4" data-name="&lt;Path&gt;"/><path class="cls-5" d="M9.94 10.24a.07.07 0 0 0-.07.06.07.07 0 0 0 .07.07.07.07 0 0 0 .06-.07.06.06 0 0 0-.06-.06z" id="_Path_5" data-name="&lt;Path&gt;"/><path class="cls-5" d="M9.76 10.41a.07.07 0 0 0-.07.06.07.07 0 0 0 .07.07.07.07 0 0 0 .06-.07.06.06 0 0 0-.06-.06z" id="_Path_6" data-name="&lt;Path&gt;"/><path class="cls-5" d="M9.94 10.59a.07.07 0 0 0-.07.07.07.07 0 0 0 .07.06.06.06 0 0 0 .06-.06.07.07 0 0 0-.06-.07z" id="_Path_7" data-name="&lt;Path&gt;"/><path class="cls-5" d="M9.59 10.59a.07.07 0 0 0-.07.07.07.07 0 0 0 .07.06.06.06 0 0 0 .06-.06.07.07 0 0 0-.06-.07z" id="_Path_8" data-name="&lt;Path&gt;"/><path class="cls-5" d="M9.58 10.24a.06.06 0 0 0-.06.06.07.07 0 0 0 .06.07.07.07 0 0 0 .07-.07.07.07 0 0 0-.07-.06z" id="_Path_9" data-name="&lt;Path&gt;"/><path class="cls-6" d="M8.54 10.61a.37.37 0 0 0 .09.25.31.31 0 0 0 .46 0 .42.42 0 0 0 .09-.25v-.48h-.64z" id="_Path_10" data-name="&lt;Path&gt;"/><path class="cls-5" d="M9 10.24a.07.07 0 0 0 0 .06.07.07 0 0 0 .07.07.07.07 0 0 0 .06-.07.06.06 0 0 0-.13-.06z" id="_Path_11" data-name="&lt;Path&gt;"/><path class="cls-5" d="M8.86 10.41a.07.07 0 0 0-.07.06.07.07 0 0 0 .07.07.07.07 0 0 0 .06-.07.06.06 0 0 0-.06-.06z" id="_Path_12" data-name="&lt;Path&gt;"/><path class="cls-5" d="M9 10.59a.07.07 0 0 0-.07.07.07.07 0 0 0 .07.06.06.06 0 0 0 .06-.06.07.07 0 0 0-.06-.07z" id="_Path_13" data-name="&lt;Path&gt;"/><path class="cls-5" d="M8.68 10.59a.07.07 0 0 0-.06.07.06.06 0 0 0 .06.06.07.07 0 0 0 .07-.06.07.07 0 0 0-.07-.07z" id="_Path_14" data-name="&lt;Path&gt;"/><path class="cls-5" d="M8.68 10.24a.06.06 0 0 0-.06.06.07.07 0 0 0 .06.07.07.07 0 0 0 .07-.07.07.07 0 0 0-.07-.06z" id="_Path_15" data-name="&lt;Path&gt;"/><path class="cls-6" d="M10.34 10.61a.37.37 0 0 0 .1.25.29.29 0 0 0 .22.1.33.33 0 0 0 .23-.1.37.37 0 0 0 .09-.25v-.48h-.64z" id="_Path_16" data-name="&lt;Path&gt;"/><path class="cls-5" d="M10.84 10.24a.07.07 0 0 0-.07.06.07.07 0 0 0 .07.07.07.07 0 0 0 .06-.07.06.06 0 0 0-.06-.06z" id="_Path_17" data-name="&lt;Path&gt;"/><path class="cls-5" d="M10.66 10.41a.07.07 0 0 0-.07.06.07.07 0 0 0 .07.07.07.07 0 0 0 .06-.07.06.06 0 0 0-.06-.06z" id="_Path_18" data-name="&lt;Path&gt;"/><path class="cls-5" d="M10.84 10.59a.07.07 0 0 0-.07.07.07.07 0 0 0 .07.06.06.06 0 0 0 .06-.06.07.07 0 0 0-.06-.07z" id="_Path_19" data-name="&lt;Path&gt;"/><path class="cls-5" d="M10.49 10.59a.07.07 0 0 0-.07.07.07.07 0 0 0 .07.06.06.06 0 0 0 .06-.06.07.07 0 0 0-.06-.07z" id="_Path_20" data-name="&lt;Path&gt;"/><path class="cls-5" d="M10.49 10.24a.07.07 0 0 0-.07.06.07.07 0 0 0 .07.07.07.07 0 0 0 .06-.07.06.06 0 0 0-.06-.06z" id="_Path_21" data-name="&lt;Path&gt;"/><path class="cls-6" d="M9.44 11.69a.39.39 0 0 0 .09.24.3.3 0 0 0 .46 0 .34.34 0 0 0 .09-.24v-.48h-.64z" id="_Path_22" data-name="&lt;Path&gt;"/><path class="cls-5" d="M9.94 11.32a.07.07 0 0 0-.07.07.07.07 0 0 0 .07.06.06.06 0 0 0 .06-.06.07.07 0 0 0-.06-.07z" id="_Path_23" data-name="&lt;Path&gt;"/><path class="cls-5" d="M9.76 11.5a.07.07 0 0 0-.07.06s0 .06.07.06a.06.06 0 0 0 .06-.06.06.06 0 0 0-.06-.06z" id="_Path_24" data-name="&lt;Path&gt;"/><path class="cls-5" d="M9.94 11.68a.07.07 0 0 0-.07.06s0 .06.07.06a.06.06 0 0 0 .06-.06.06.06 0 0 0-.06-.06z" id="_Path_25" data-name="&lt;Path&gt;"/><path class="cls-5" d="M9.59 11.68a.07.07 0 0 0-.07.06.07.07 0 0 0 .07.07.07.07 0 0 0 .06-.07.06.06 0 0 0-.06-.06z" id="_Path_26" data-name="&lt;Path&gt;"/><path class="cls-5" d="M9.58 11.32a.07.07 0 0 0-.06.07.06.06 0 0 0 .06.06.07.07 0 0 0 .07-.06.07.07 0 0 0-.07-.07z" id="_Path_27" data-name="&lt;Path&gt;"/><path class="cls-6" d="M9.44 9.52a.4.4 0 0 0 .09.25.31.31 0 0 0 .46 0 .35.35 0 0 0 .09-.25v-.47h-.64z" id="_Path_28" data-name="&lt;Path&gt;"/><path class="cls-5" d="M9.94 9.15a.07.07 0 0 0-.07.07.07.07 0 0 0 .07.06.06.06 0 0 0 .06-.06.07.07 0 0 0-.06-.07z" id="_Path_29" data-name="&lt;Path&gt;"/><path class="cls-5" d="M9.76 9.33s-.07 0-.07.06 0 .06.07.06a.06.06 0 0 0 0-.12z" id="_Path_30" data-name="&lt;Path&gt;"/><path class="cls-5" d="M9.94 9.51s-.07 0-.07.06 0 .06.07.06a.06.06 0 0 0 0-.12z" id="_Path_31" data-name="&lt;Path&gt;"/><path class="cls-5" d="M9.59 9.51a.07.07 0 0 0-.07.06s0 .06.07.06a.06.06 0 0 0 .06-.06.06.06 0 0 0-.06-.06z" id="_Path_32" data-name="&lt;Path&gt;"/><path class="cls-5" d="M9.58 9.15a.07.07 0 0 0-.06.07.06.06 0 0 0 .06.06.07.07 0 0 0 .07-.06.07.07 0 0 0-.07-.07z" id="_Path_33" data-name="&lt;Path&gt;"/></g></g></svg>