<svg xmlns="http://www.w3.org/2000/svg" viewBox="0 0 24 24"><g data-name="Слой 2"><g data-name="Режим изоляции"><circle cx="12" cy="12" r="11.5" fill="#b2b2b2" stroke="#b2b2b2" stroke-miterlimit="10"/><path d="M12 23.35a11.35 11.35 0 0 0 10.32-6.62H1.68A11.35 11.35 0 0 0 12 23.35z" fill="red"/><path d="M12 .65A11.35 11.35 0 0 0 1.68 7.27h20.64A11.35 11.35 0 0 0 12 .65z" fill="#fff"/><path d="M.65 12a11.3 11.3 0 0 0 1 4.73h20.67a11.34 11.34 0 0 0 0-9.46H1.68A11.3 11.3 0 0 0 .65 12z" fill="#00f"/></g></g></svg>