<svg xmlns="http://www.w3.org/2000/svg" viewBox="0 0 24 24"><defs><style>.cls-2{fill:#fff}.cls-3{fill:#de1018}</style></defs><g id="Layer_2" data-name="Layer 2"><g id="Layer_1-2" data-name="Layer 1"><path d="M23.5 12A11.5 11.5 0 1 1 12 .5 11.5 11.5 0 0 1 23.5 12z" stroke="#b2b2b2" stroke-miterlimit="10"/><path class="cls-2" d="M22.73 15.74H1.27a11.49 11.49 0 0 0 2.2 3.79h17.05a11.35 11.35 0 0 0 2.21-3.79z"/><path class="cls-3" d="M20.52 19.53h-17a11.36 11.36 0 0 0 7.23 3.78h2.6a11.31 11.31 0 0 0 7.17-3.78zM12 .69A11.33 11.33 0 0 0 3.61 4.4h16.78A11.33 11.33 0 0 0 12 .69z"/><path class="cls-2" d="M20.39 4.4H3.61a11.38 11.38 0 0 0-2.28 3.78h21.34a11.38 11.38 0 0 0-2.28-3.78z"/><path d="M23.35 12a11.19 11.19 0 0 0-.68-3.86H1.33A11.19 11.19 0 0 0 .65 12a11.31 11.31 0 0 0 .62 3.7h21.46a11.31 11.31 0 0 0 .62-3.7z" fill="#00247d"/></g></g></svg>