<svg id="Режим_изоляции" xmlns="http://www.w3.org/2000/svg" viewBox="0 0 24 24"><style>.st2{fill:#fff}</style><ellipse transform="rotate(-89.214 12 12)" cx="12" cy="12" rx="11.5" ry="11.5" fill="#b2b2b2" stroke="#b2b2b2" stroke-miterlimit="10"/><path d="M23.3 12c0 6.3-5.1 11.3-11.3 11.3C5.7 23.3.7 18.3.7 12S5.7.7 12 .7c6.3 0 11.3 5 11.3 11.3z" fill="#c1121d"/><path class="st2" d="M10.3 16.1c-2.3 0-4.1-1.8-4.1-4.1S8 7.9 10.3 7.9c1.1 0 2.2.5 2.9 1.2-.9-1.3-2.4-2.2-4.2-2.2-2.8 0-5.1 2.3-5.1 5.1s2.3 5.1 5.1 5.1c1.7 0 3.3-.9 4.2-2.2-.7.8-1.8 1.2-2.9 1.2zM15.3 9.8l.9 1.4 1.6-.5-1 1.3.9 1.4-1.5-.5-1 1.3v-1.7l-1.6-.5 1.6-.5z"/></svg>