<svg xmlns="http://www.w3.org/2000/svg" viewBox="0 0 24 24"><defs><style>.cls-1{fill:#b2b2b2;stroke:#b2b2b2;stroke-miterlimit:10;}.cls-2{fill:#fff;}.cls-3{fill:#bf0a30;}.cls-4{fill:#002868;}</style></defs><title>Ресурс 1</title><g id="Слой_2" data-name="Слой 2"><g id="Layer_1" data-name="Layer 1"><circle class="cls-1" cx="12" cy="12" r="11.5"/><path class="cls-2" d="M1,14.62H23a11.31,11.31,0,0,0,.27-1.75H.69A11.43,11.43,0,0,0,1,14.62Z"/><path class="cls-2" d="M2.44,18.11H21.56a11.4,11.4,0,0,0,.92-1.75h-21A11.4,11.4,0,0,0,2.44,18.11Z"/><path class="cls-2" d="M6,21.6H18a11.35,11.35,0,0,0,2.14-1.75H3.82A11.36,11.36,0,0,0,6,21.6Z"/><path class="cls-2" d="M18,2.4H6A11.31,11.31,0,0,0,3.82,4.14H20.18A11.3,11.3,0,0,0,18,2.4Z"/><path class="cls-3" d="M1.52,16.36h21A11.26,11.26,0,0,0,23,14.62H1A11.37,11.37,0,0,0,1.52,16.36Z"/><path class="cls-3" d="M3.82,19.86H20.18a11.37,11.37,0,0,0,1.38-1.75H2.44A11.45,11.45,0,0,0,3.82,19.86Z"/><path class="cls-3" d="M12,23.35a11.29,11.29,0,0,0,6-1.75H6A11.29,11.29,0,0,0,12,23.35Z"/><path class="cls-3" d="M1,9.38H23a11.31,11.31,0,0,0-.56-1.75h-21A11.31,11.31,0,0,0,1,9.38Z"/><path class="cls-3" d="M.65,12c0,.29,0,.58,0,.87H23.31c0-.29,0-.58,0-.87s0-.59,0-.87H.69C.67,11.41.65,11.71.65,12Z"/><path class="cls-3" d="M3.82,4.14A11.34,11.34,0,0,0,2.44,5.89H21.56a11.3,11.3,0,0,0-1.38-1.75Z"/><path class="cls-3" d="M12,.65A11.29,11.29,0,0,0,6,2.4H18A11.29,11.29,0,0,0,12,.65Z"/><path class="cls-2" d="M.69,11.13H23.31A11.34,11.34,0,0,0,23,9.38H1A11.38,11.38,0,0,0,.69,11.13Z"/><path class="cls-2" d="M1.52,7.64h21a11.35,11.35,0,0,0-.92-1.75H2.44A11.33,11.33,0,0,0,1.52,7.64Z"/><path class="cls-4" d="M12,.65A11.35,11.35,0,0,0,.65,12c0,.3,0,.59,0,.89H12Z"/><path class="cls-2" d="M1.34,8.09l0,.13h0Z"/><path class="cls-2" d="M1.22,8.45l-.11.37.12-.36Z"/><polygon class="cls-2" points="1.77 12.23 1.43 11.99 1.09 12.23 1.22 11.84 0.89 11.59 1.3 11.59 1.43 11.2 1.56 11.59 1.97 11.59 1.64 11.84 1.77 12.23"/><polygon class="cls-2" points="3.29 10.53 2.95 10.28 2.62 10.53 2.74 10.13 2.41 9.89 2.82 9.89 2.95 9.5 3.08 9.89 3.49 9.89 3.16 10.13 3.29 10.53"/><polygon class="cls-2" points="3.19 6.67 3.32 7.07 2.98 6.82 2.65 7.07 2.77 6.67 2.44 6.43 2.85 6.43 2.98 6.04 3.11 6.43 3.52 6.43 3.19 6.67"/><polygon class="cls-2" points="4.87 12.23 4.53 11.99 4.2 12.23 4.33 11.84 3.99 11.59 4.41 11.59 4.53 11.2 4.66 11.59 5.08 11.59 4.74 11.84 4.87 12.23"/><polygon class="cls-2" points="4.89 8.35 4.74 8.46 4.87 8.85 4.53 8.61 4.2 8.85 4.33 8.46 4.18 8.35 3.99 8.21 4.41 8.21 4.53 7.82 4.66 8.21 5.08 8.21 4.89 8.35"/><polygon class="cls-2" points="4.74 4.92 4.87 5.31 4.53 5.07 4.2 5.31 4.33 4.92 3.99 4.67 4.41 4.67 4.53 4.28 4.66 4.67 5.08 4.67 4.74 4.92"/><polygon class="cls-2" points="6.39 10.65 6.05 10.41 5.72 10.65 5.85 10.26 5.51 10.01 5.92 10.01 6.05 9.62 6.18 10.01 6.6 10.01 6.26 10.26 6.39 10.65"/><polygon class="cls-2" points="6.29 6.8 6.42 7.19 6.08 6.95 5.75 7.19 5.88 6.8 5.54 6.55 5.96 6.55 6.08 6.16 6.21 6.55 6.63 6.55 6.29 6.8"/><polygon class="cls-2" points="6.32 3.29 6.45 3.69 6.12 3.45 5.78 3.69 5.91 3.29 5.57 3.05 5.99 3.05 6.12 2.66 6.24 3.05 6.66 3.05 6.32 3.29"/><polygon class="cls-2" points="7.97 12.23 7.64 11.99 7.3 12.23 7.43 11.84 7.09 11.59 7.51 11.59 7.64 11.2 7.76 11.59 8.18 11.59 7.84 11.84 7.97 12.23"/><polygon class="cls-2" points="7.99 8.35 7.84 8.46 7.97 8.85 7.64 8.61 7.3 8.85 7.43 8.46 7.28 8.35 7.09 8.21 7.51 8.21 7.64 7.82 7.76 8.21 8.18 8.21 7.99 8.35"/><polygon class="cls-2" points="7.84 4.92 7.97 5.31 7.64 5.07 7.3 5.31 7.43 4.92 7.09 4.67 7.51 4.67 7.64 4.28 7.76 4.67 8.18 4.67 7.84 4.92"/><polygon class="cls-2" points="9.49 10.65 9.16 10.41 8.82 10.65 8.95 10.26 8.61 10.01 9.03 10.01 9.16 9.62 9.29 10.01 9.7 10.01 9.36 10.26 9.49 10.65"/><polygon class="cls-2" points="9.4 6.8 9.52 7.19 9.19 6.95 8.85 7.19 8.98 6.8 8.64 6.55 9.06 6.55 9.19 6.16 9.32 6.55 9.73 6.55 9.4 6.8"/><polygon class="cls-2" points="9.43 3.29 9.55 3.69 9.22 3.45 8.88 3.69 9.01 3.29 8.68 3.05 9.09 3.05 9.22 2.66 9.35 3.05 9.76 3.05 9.43 3.29"/><polygon class="cls-2" points="11.08 12.23 10.74 11.99 10.4 12.23 10.53 11.84 10.2 11.59 10.61 11.59 10.74 11.2 10.87 11.59 11.28 11.59 10.95 11.84 11.08 12.23"/><polygon class="cls-2" points="11.1 8.35 10.95 8.46 11.08 8.85 10.74 8.61 10.4 8.85 10.53 8.46 10.38 8.35 10.2 8.21 10.61 8.21 10.74 7.82 10.87 8.21 11.28 8.21 11.1 8.35"/><polygon class="cls-2" points="10.95 4.92 11.08 5.31 10.74 5.07 10.4 5.31 10.53 4.92 10.2 4.67 10.61 4.67 10.74 4.28 10.87 4.67 11.28 4.67 10.95 4.92"/><polygon class="cls-2" points="10.95 1.45 11.08 1.85 10.74 1.6 10.4 1.85 10.53 1.45 10.2 1.21 10.61 1.21 10.74 0.82 10.87 1.21 11.28 1.21 10.95 1.45"/><path class="cls-2" d="M7.64,1.6,8,1.85l-.13-.39,0,0-.52.22-.07.21Z"/><polygon class="cls-2" points="7.64 4.28 7.51 4.67 7.09 4.67 7.43 4.92 7.3 5.31 7.64 5.07 7.97 5.31 7.84 4.92 8.18 4.67 7.76 4.67 7.64 4.28"/><polygon class="cls-2" points="7.64 7.82 7.51 8.21 7.09 8.21 7.28 8.35 7.43 8.46 7.3 8.85 7.64 8.61 7.97 8.85 7.84 8.46 7.99 8.35 8.18 8.21 7.76 8.21 7.64 7.82"/><polygon class="cls-2" points="7.76 11.59 7.64 11.2 7.51 11.59 7.09 11.59 7.43 11.84 7.3 12.23 7.64 11.99 7.97 12.23 7.84 11.84 8.18 11.59 7.76 11.59"/><polygon class="cls-2" points="4.53 4.28 4.41 4.67 3.99 4.67 4.33 4.92 4.2 5.31 4.53 5.07 4.87 5.31 4.74 4.92 5.08 4.67 4.66 4.67 4.53 4.28"/><polygon class="cls-2" points="4.53 7.82 4.41 8.21 3.99 8.21 4.18 8.35 4.33 8.46 4.2 8.85 4.53 8.61 4.87 8.85 4.74 8.46 4.89 8.35 5.08 8.21 4.66 8.21 4.53 7.82"/><polygon class="cls-2" points="4.66 11.59 4.53 11.2 4.41 11.59 3.99 11.59 4.33 11.84 4.2 12.23 4.53 11.99 4.87 12.23 4.74 11.84 5.08 11.59 4.66 11.59"/><path class="cls-2" d="M1.1,8.85h0v0Z"/><path class="cls-2" d="M1.43,7.82l-.09.27.1-.24Z"/><path class="cls-2" d="M1.77,8.85l-.13-.4.15-.11L2,8.21H1.56l-.12-.37-.1.24,0,.13h0l-.08.24h0l-.12.36v0l.33-.24Z"/><polygon class="cls-2" points="1.56 11.59 1.43 11.2 1.3 11.59 0.89 11.59 1.22 11.84 1.09 12.23 1.43 11.99 1.77 12.23 1.64 11.84 1.97 11.59 1.56 11.59"/><polygon class="cls-2" points="9.19 6.16 9.06 6.55 8.64 6.55 8.98 6.8 8.85 7.19 9.19 6.95 9.52 7.19 9.4 6.8 9.73 6.55 9.32 6.55 9.19 6.16"/><polygon class="cls-2" points="9.29 10.01 9.16 9.62 9.03 10.01 8.61 10.01 8.95 10.26 8.82 10.65 9.16 10.41 9.49 10.65 9.36 10.26 9.7 10.01 9.29 10.01"/><polygon class="cls-2" points="6.08 6.16 5.96 6.55 5.54 6.55 5.88 6.8 5.75 7.19 6.08 6.95 6.42 7.19 6.29 6.8 6.63 6.55 6.21 6.55 6.08 6.16"/><polygon class="cls-2" points="6.18 10.01 6.05 9.62 5.92 10.01 5.51 10.01 5.85 10.26 5.72 10.65 6.05 10.41 6.39 10.65 6.26 10.26 6.6 10.01 6.18 10.01"/><polygon class="cls-2" points="2.98 6.04 2.85 6.43 2.44 6.43 2.77 6.67 2.65 7.07 2.98 6.82 3.32 7.07 3.19 6.67 3.52 6.43 3.11 6.43 2.98 6.04"/><polygon class="cls-2" points="3.08 9.89 2.95 9.5 2.82 9.89 2.41 9.89 2.74 10.13 2.62 10.53 2.95 10.28 3.29 10.53 3.16 10.13 3.49 9.89 3.08 9.89"/><polygon class="cls-2" points="10.74 4.28 10.61 4.67 10.2 4.67 10.53 4.92 10.4 5.31 10.74 5.07 11.08 5.31 10.95 4.92 11.28 4.67 10.87 4.67 10.74 4.28"/><polygon class="cls-2" points="6.12 2.66 5.99 3.05 5.57 3.05 5.91 3.29 5.78 3.69 6.12 3.45 6.45 3.69 6.32 3.29 6.66 3.05 6.24 3.05 6.12 2.66"/><polygon class="cls-2" points="9.22 2.66 9.09 3.05 8.68 3.05 9.01 3.29 8.88 3.69 9.22 3.45 9.55 3.69 9.43 3.29 9.76 3.05 9.35 3.05 9.22 2.66"/><polygon class="cls-2" points="10.74 0.82 10.61 1.21 10.2 1.21 10.53 1.45 10.4 1.85 10.74 1.6 11.08 1.85 10.95 1.45 11.28 1.21 10.87 1.21 10.74 0.82"/><polygon class="cls-2" points="10.74 7.82 10.61 8.21 10.2 8.21 10.38 8.35 10.53 8.46 10.4 8.85 10.74 8.61 11.08 8.85 10.95 8.46 11.1 8.35 11.28 8.21 10.87 8.21 10.74 7.82"/><polygon class="cls-2" points="10.87 11.59 10.74 11.2 10.61 11.59 10.2 11.59 10.53 11.84 10.4 12.23 10.74 11.99 11.08 12.23 10.95 11.84 11.28 11.59 10.87 11.59"/></g></g></svg>