<?xml version="1.0" encoding="utf-8"?>
<!-- Generator: Adobe Illustrator 22.0.1, SVG Export Plug-In . SVG Version: 6.00 Build 0)  -->
<svg version="1.1" id="Режим_изоляции"
	 xmlns="http://www.w3.org/2000/svg" xmlns:xlink="http://www.w3.org/1999/xlink" x="0px" y="0px" viewBox="0 0 24 24"
	 style="enable-background:new 0 0 24 24;" xml:space="preserve">
<style type="text/css">
	.st0{fill:#B2B2B2;stroke:#B2B2B2;stroke-miterlimit:10;}
	.st1{fill:#BB1D21;}
	.st2{fill:#71ABCC;}
	.st3{fill:#F5E83A;}
</style>
<g>
	<path class="st0" d="M23.5,12c0,6.4-5.1,11.5-11.5,11.5C5.6,23.5,0.5,18.4,0.5,12C0.5,5.6,5.6,0.5,12,0.5
		C18.4,0.5,23.5,5.6,23.5,12z"/>
	<g>
		<g>
			<path class="st1" d="M0.7,12c0,4.6,2.7,8.5,6.6,10.3V1.7C3.4,3.5,0.7,7.4,0.7,12z"/>
			<path class="st1" d="M23.3,12c0-4.6-2.7-8.5-6.6-10.3v20.6C20.6,20.5,23.3,16.6,23.3,12z"/>
			<path class="st2" d="M12,0.7c-1.7,0-3.3,0.4-4.7,1v20.6c1.4,0.7,3,1,4.7,1c1.7,0,3.3-0.4,4.7-1V1.7C15.3,1,13.7,0.7,12,0.7z"/>
		</g>
		<g>
			<path class="st3" d="M4.1,9.8c-0.5,0-1-0.3-1.2-0.8c0,0,0,0,0,0c0,0.7,0.5,1.2,1.2,1.2c0.7,0,1.2-0.5,1.2-1.2c0,0,0,0,0,0
				C5.1,9.5,4.7,9.8,4.1,9.8z"/>
			<path id="_x3C_Path_x3E__74_" class="st3" d="M3.6,7.2c0,0.3,0.2,0.5,0.5,0.5c0.3,0,0.5-0.2,0.5-0.5C4.7,7,4.5,7,4.5,6.9
				c0-0.1,0.1-0.2-0.1-0.3c0.1,0.1-0.1,0.2-0.1,0.3C4.4,7,4.5,7,4.5,7.1c0,0.1,0,0.1-0.1,0.1c-0.1,0-0.1,0-0.1-0.1
				c0-0.1,0.1-0.2,0.1-0.4c0-0.2,0-0.2-0.1-0.3c-0.1-0.1-0.1-0.2,0-0.4C4,6.1,4.1,6.4,4.1,6.5C4.1,6.6,4,6.7,4,6.8C4,7,4,7,4,7.1
				c0,0.1,0,0.1-0.1,0.1c-0.1,0-0.1,0-0.1-0.1C3.8,7,3.9,7,3.9,6.9c0-0.1-0.1-0.2-0.1-0.3C3.7,6.7,3.7,6.8,3.7,6.9
				C3.7,7,3.6,7,3.6,7.2z"/>
			<path id="_x3C_Path_x3E__73_" class="st3" d="M4.1,7.9C4.6,7.9,5,8.3,5,8.8c0,0.5-0.4,0.8-0.8,0.8S3.3,9.3,3.3,8.8
				C3.3,8.3,3.7,7.9,4.1,7.9z"/>
			<rect x="2" y="10.5" class="st3" width="0.9" height="5"/>
			<rect x="5.4" y="10.5" class="st3" width="0.9" height="5"/>
			<polygon class="st3" points="3.1,10.5 4.1,11.1 5.1,10.5 			"/>
			<rect x="3.1" y="11.3" class="st3" width="2" height="0.4"/>
			<rect x="3.1" y="14.2" class="st3" width="2" height="0.4"/>
			<polygon class="st3" points="3.1,14.9 4.1,15.5 5.1,14.9 			"/>
			<path id="_x3C_Path_x3E__72_" class="st3" d="M4.5,12c0.1,0.1,0.2,0.3,0.2,0.4c0,0.3-0.2,0.5-0.5,0.5c-0.3,0-0.5,0.2-0.5,0.5
				c0,0.2,0.1,0.3,0.2,0.4c0.1,0,0.2,0,0.3,0c0.6,0,1-0.5,1-1C5.2,12.5,4.9,12.1,4.5,12z M4.1,13.7c-0.1,0-0.2-0.1-0.2-0.2
				c0-0.1,0.1-0.2,0.2-0.2c0.1,0,0.2,0.1,0.2,0.2C4.3,13.6,4.3,13.7,4.1,13.7z"/>
			<path id="_x3C_Path_x3E__71_" class="st3" d="M4.4,12c-0.1,0-0.2,0-0.3,0c-0.6,0-1,0.5-1,1c0,0.5,0.3,0.8,0.7,1
				c-0.1-0.1-0.2-0.3-0.2-0.4c0-0.3,0.2-0.5,0.5-0.5c0.3,0,0.5-0.2,0.5-0.5C4.6,12.2,4.5,12.1,4.4,12z M4.1,12.6
				c-0.1,0-0.2-0.1-0.2-0.2c0-0.1,0.1-0.2,0.2-0.2c0.1,0,0.2,0.1,0.2,0.2C4.3,12.6,4.3,12.6,4.1,12.6z"/>
		</g>
	</g>
</g>
</svg>
