<svg xmlns="http://www.w3.org/2000/svg" viewBox="0 0 24 24"><defs><style>.cls-1{stroke:#b2b2b2;stroke-miterlimit:10;}.cls-2{fill:#ce1126;}.cls-3{fill:#3d8e33;}.cls-4{fill:#fcd856;}.cls-5{fill:#fff;}.cls-6{fill:#0072c6;}</style></defs><title>ic_Asset 2</title><g id="Layer_2" data-name="Layer 2"><g id="Layer_1-2" data-name="Layer 1"><path class="cls-1" d="M23.5,12A11.5,11.5,0,1,1,12,.5,11.5,11.5,0,0,1,23.5,12Z"/><path class="cls-2" d="M12,.65a11,11,0,0,0-2.08.2V23.16a11.83,11.83,0,0,0,2.08.19A11.35,11.35,0,0,0,12,.65Z"/><path class="cls-3" d="M.65,12A11.36,11.36,0,0,0,9.92,23.16V.85A11.34,11.34,0,0,0,.65,12Z"/><path class="cls-4" d="M9.7,5.92A4.28,4.28,0,1,0,14,10.2,4.28,4.28,0,0,0,9.7,5.92Zm0,8.15a3.87,3.87,0,1,1,3.87-3.87A3.87,3.87,0,0,1,9.7,14.07Z"/><path class="cls-4" d="M14,10.2A4.32,4.32,0,1,1,9.7,5.88,4.32,4.32,0,0,1,14,10.2ZM9.7,6a4.24,4.24,0,1,0,4.24,4.23A4.23,4.23,0,0,0,9.7,6Z"/><path d="M5.37,10.2A4.33,4.33,0,0,1,9.7,5.87h0A4.33,4.33,0,0,1,14,10.2h0A4.33,4.33,0,0,1,9.7,14.53h0A4.33,4.33,0,0,1,5.37,10.2Zm0,0A4.33,4.33,0,0,0,9.7,14.52h0A4.33,4.33,0,0,0,14,10.2h0A4.34,4.34,0,0,0,9.7,5.88h0A4.34,4.34,0,0,0,5.38,10.2Zm.07,0A4.25,4.25,0,0,1,9.7,6h0A4.24,4.24,0,0,0,5.47,10.2h0A4.23,4.23,0,0,0,9.7,14.43h0a4.23,4.23,0,0,0,4.23-4.23h0A4.24,4.24,0,0,0,9.7,6h0a4.24,4.24,0,0,1,4.24,4.24h0A4.24,4.24,0,0,1,9.7,14.45h0A4.25,4.25,0,0,1,5.45,10.2Z"/><path class="cls-4" d="M13.61,10.2A3.91,3.91,0,1,1,9.7,6.29,3.91,3.91,0,0,1,13.61,10.2ZM9.7,6.37a3.83,3.83,0,1,0,3.83,3.83A3.84,3.84,0,0,0,9.7,6.37Z"/><path d="M5.78,10.2A3.92,3.92,0,0,1,9.7,6.28h0a3.93,3.93,0,0,1,3.92,3.92h0A3.92,3.92,0,0,1,9.7,14.12h0A3.91,3.91,0,0,1,5.78,10.2Zm0,0A3.92,3.92,0,0,0,9.7,14.11h0a3.92,3.92,0,0,0,3.91-3.91h0A3.91,3.91,0,0,0,9.7,6.3h0a3.91,3.91,0,0,0-3.91,3.9Zm.08,0A3.83,3.83,0,0,1,9.7,6.37h0A3.83,3.83,0,0,0,5.88,10.2h0A3.82,3.82,0,0,0,9.7,14h0a3.83,3.83,0,0,0,3.82-3.82h0A3.83,3.83,0,0,0,9.7,6.38h0a3.83,3.83,0,0,1,3.83,3.83h0A3.82,3.82,0,0,1,9.7,14h0A3.82,3.82,0,0,1,5.87,10.2Z"/><path id="_Path_" data-name="&lt;Path&gt;" class="cls-5" d="M7.19,11a2.57,2.57,0,0,0,4.38,1.81A2.52,2.52,0,0,0,12.33,11h0V7.55H7.19V11Z"/><path d="M7.94,12.79A2.59,2.59,0,0,1,7.19,11h0V7.54h5.14V11a2.6,2.6,0,0,1-.75,1.82h0a2.6,2.6,0,0,1-1.82.75h0a2.56,2.56,0,0,1-1.82-.76Zm0,0a2.58,2.58,0,0,0,1.81.76h0a2.59,2.59,0,0,0,1.81-.75h0A2.59,2.59,0,0,0,12.32,11h0V7.56H7.2V11A2.57,2.57,0,0,0,8,12.78Z"/><g id="_Path_2" data-name="&lt;Path&gt;"><path class="cls-2" d="M7.3,11h0a2.46,2.46,0,0,0,4.2,1.73A2.4,2.4,0,0,0,12.22,11h0V7.66H7.3Z"/><path d="M8,12.72A2.45,2.45,0,0,1,7.29,11h0V7.65h4.93V11a2.45,2.45,0,0,1-.73,1.74h0a2.46,2.46,0,0,1-1.74.72h0A2.48,2.48,0,0,1,8,12.72ZM7.3,11A2.44,2.44,0,0,0,8,12.71H8a2.46,2.46,0,0,0,1.73.72h0a2.48,2.48,0,0,0,1.74-.72h0A2.44,2.44,0,0,0,12.22,11h0V7.67H7.31V11Z"/></g><g id="_Path_3" data-name="&lt;Path&gt;"><path class="cls-5" d="M8.3,10.83h0A1.67,1.67,0,0,0,8.73,12a1.4,1.4,0,0,0,1,.47,1.38,1.38,0,0,0,1-.46,1.7,1.7,0,0,0,.43-1.13h0V8.67H8.31Z"/><path d="M8.73,12a1.65,1.65,0,0,1-.43-1.13h0V8.66h2.91v2.16A1.65,1.65,0,0,1,10.79,12h0a1.39,1.39,0,0,1-1,.47h0a1.39,1.39,0,0,1-1-.47Zm-.42-1.13A1.64,1.64,0,0,0,8.74,12h0a1.37,1.37,0,0,0,1,.47h0a1.4,1.4,0,0,0,1-.47h0a1.66,1.66,0,0,0,.42-1.12h0V8.68H8.31v2.16Z"/></g><g id="_Path_4" data-name="&lt;Path&gt;"><path class="cls-6" d="M9.44,10.61h0a.42.42,0,0,0,.09.25.31.31,0,0,0,.46,0,.37.37,0,0,0,.09-.25h0v-.48H9.44Z"/></g><g id="_Path_5" data-name="&lt;Path&gt;"><path class="cls-5" d="M9.94,10.24a.07.07,0,0,0-.07.06.07.07,0,0,0,.07.07A.07.07,0,0,0,10,10.3.06.06,0,0,0,9.94,10.24Z"/></g><g id="_Path_6" data-name="&lt;Path&gt;"><path class="cls-5" d="M9.76,10.41a.07.07,0,0,0-.07.06.07.07,0,0,0,.07.07.07.07,0,0,0,.06-.07A.06.06,0,0,0,9.76,10.41Z"/></g><g id="_Path_7" data-name="&lt;Path&gt;"><path class="cls-5" d="M9.94,10.59a.07.07,0,0,0-.07.07.07.07,0,0,0,.07.06.06.06,0,0,0,.06-.06A.07.07,0,0,0,9.94,10.59Z"/></g><g id="_Path_8" data-name="&lt;Path&gt;"><path class="cls-5" d="M9.59,10.59a.07.07,0,0,0-.07.07.07.07,0,0,0,.07.06.06.06,0,0,0,.06-.06A.07.07,0,0,0,9.59,10.59Z"/></g><g id="_Path_9" data-name="&lt;Path&gt;"><path class="cls-5" d="M9.58,10.24a.06.06,0,0,0-.06.06.07.07,0,0,0,.06.07.07.07,0,0,0,.07-.07A.07.07,0,0,0,9.58,10.24Z"/></g><g id="_Path_10" data-name="&lt;Path&gt;"><path class="cls-6" d="M8.54,10.61h0a.37.37,0,0,0,.09.25.31.31,0,0,0,.46,0,.42.42,0,0,0,.09-.25h0v-.48H8.54Z"/></g><g id="_Path_11" data-name="&lt;Path&gt;"><path class="cls-5" d="M9,10.24A.07.07,0,0,0,9,10.3a.07.07,0,0,0,.07.07.07.07,0,0,0,.06-.07A.06.06,0,0,0,9,10.24Z"/></g><g id="_Path_12" data-name="&lt;Path&gt;"><path class="cls-5" d="M8.86,10.41a.07.07,0,0,0-.07.06.07.07,0,0,0,.07.07.07.07,0,0,0,.06-.07A.06.06,0,0,0,8.86,10.41Z"/></g><g id="_Path_13" data-name="&lt;Path&gt;"><path class="cls-5" d="M9,10.59a.07.07,0,0,0-.07.07.07.07,0,0,0,.07.06.06.06,0,0,0,.06-.06A.07.07,0,0,0,9,10.59Z"/></g><g id="_Path_14" data-name="&lt;Path&gt;"><path class="cls-5" d="M8.68,10.59a.07.07,0,0,0-.06.07.06.06,0,0,0,.06.06.07.07,0,0,0,.07-.06A.07.07,0,0,0,8.68,10.59Z"/></g><g id="_Path_15" data-name="&lt;Path&gt;"><path class="cls-5" d="M8.68,10.24a.06.06,0,0,0-.06.06.07.07,0,0,0,.06.07.07.07,0,0,0,.07-.07A.07.07,0,0,0,8.68,10.24Z"/></g><g id="_Path_16" data-name="&lt;Path&gt;"><path class="cls-6" d="M10.34,10.61h0a.37.37,0,0,0,.1.25.29.29,0,0,0,.22.1.33.33,0,0,0,.23-.1.37.37,0,0,0,.09-.25h0v-.48h-.64Z"/></g><g id="_Path_17" data-name="&lt;Path&gt;"><path class="cls-5" d="M10.84,10.24a.07.07,0,0,0-.07.06.07.07,0,0,0,.07.07.07.07,0,0,0,.06-.07A.06.06,0,0,0,10.84,10.24Z"/></g><g id="_Path_18" data-name="&lt;Path&gt;"><path class="cls-5" d="M10.66,10.41a.07.07,0,0,0-.07.06.07.07,0,0,0,.07.07.07.07,0,0,0,.06-.07A.06.06,0,0,0,10.66,10.41Z"/></g><g id="_Path_19" data-name="&lt;Path&gt;"><path class="cls-5" d="M10.84,10.59a.07.07,0,0,0-.07.07.07.07,0,0,0,.07.06.06.06,0,0,0,.06-.06A.07.07,0,0,0,10.84,10.59Z"/></g><g id="_Path_20" data-name="&lt;Path&gt;"><path class="cls-5" d="M10.49,10.59a.07.07,0,0,0-.07.07.07.07,0,0,0,.07.06.06.06,0,0,0,.06-.06A.07.07,0,0,0,10.49,10.59Z"/></g><g id="_Path_21" data-name="&lt;Path&gt;"><path class="cls-5" d="M10.49,10.24a.07.07,0,0,0-.07.06.07.07,0,0,0,.07.07.07.07,0,0,0,.06-.07A.06.06,0,0,0,10.49,10.24Z"/></g><g id="_Path_22" data-name="&lt;Path&gt;"><path class="cls-6" d="M9.44,11.69h0a.39.39,0,0,0,.09.24.3.3,0,0,0,.46,0,.34.34,0,0,0,.09-.24h0v-.48H9.44Z"/></g><g id="_Path_23" data-name="&lt;Path&gt;"><path class="cls-5" d="M9.94,11.32a.07.07,0,0,0-.07.07.07.07,0,0,0,.07.06.06.06,0,0,0,.06-.06A.07.07,0,0,0,9.94,11.32Z"/></g><g id="_Path_24" data-name="&lt;Path&gt;"><path class="cls-5" d="M9.76,11.5a.07.07,0,0,0-.07.06s0,.06.07.06a.06.06,0,0,0,.06-.06A.06.06,0,0,0,9.76,11.5Z"/></g><g id="_Path_25" data-name="&lt;Path&gt;"><path class="cls-5" d="M9.94,11.68a.07.07,0,0,0-.07.06s0,.06.07.06a.06.06,0,0,0,.06-.06A.06.06,0,0,0,9.94,11.68Z"/></g><g id="_Path_26" data-name="&lt;Path&gt;"><path class="cls-5" d="M9.59,11.68a.07.07,0,0,0-.07.06.07.07,0,0,0,.07.07.07.07,0,0,0,.06-.07A.06.06,0,0,0,9.59,11.68Z"/></g><g id="_Path_27" data-name="&lt;Path&gt;"><path class="cls-5" d="M9.58,11.32a.07.07,0,0,0-.06.07.06.06,0,0,0,.06.06.07.07,0,0,0,.07-.06A.07.07,0,0,0,9.58,11.32Z"/></g><g id="_Path_28" data-name="&lt;Path&gt;"><path class="cls-6" d="M9.44,9.52h0a.4.4,0,0,0,.09.25.31.31,0,0,0,.46,0,.35.35,0,0,0,.09-.25h0V9.05H9.44Z"/></g><g id="_Path_29" data-name="&lt;Path&gt;"><path class="cls-5" d="M9.94,9.15a.07.07,0,0,0-.07.07.07.07,0,0,0,.07.06A.06.06,0,0,0,10,9.22.07.07,0,0,0,9.94,9.15Z"/></g><g id="_Path_30" data-name="&lt;Path&gt;"><path class="cls-5" d="M9.76,9.33s-.07,0-.07.06,0,.06.07.06a.06.06,0,0,0,0-.12Z"/></g><g id="_Path_31" data-name="&lt;Path&gt;"><path class="cls-5" d="M9.94,9.51s-.07,0-.07.06,0,.06.07.06a.06.06,0,0,0,0-.12Z"/></g><g id="_Path_32" data-name="&lt;Path&gt;"><path class="cls-5" d="M9.59,9.51a.07.07,0,0,0-.07.06s0,.06.07.06a.06.06,0,0,0,.06-.06A.06.06,0,0,0,9.59,9.51Z"/></g><g id="_Path_33" data-name="&lt;Path&gt;"><path class="cls-5" d="M9.58,9.15a.07.07,0,0,0-.06.07.06.06,0,0,0,.06.06.07.07,0,0,0,.07-.06A.07.07,0,0,0,9.58,9.15Z"/></g></g></g></svg>