<svg xmlns="http://www.w3.org/2000/svg" viewBox="0 0 24 24"><defs><style>.cls-1{stroke:#b2b2b2;stroke-miterlimit:10;}.cls-2{fill:#de2910;}.cls-3{fill:#ffde00;}</style></defs><title>ic_Asset 6</title><g id="Layer_2" data-name="Layer 2"><g id="Layer_1-2" data-name="Layer 1"><path class="cls-1" d="M23.5,12A11.5,11.5,0,1,1,12,.5,11.5,11.5,0,0,1,23.5,12Z"/><path class="cls-2" d="M23.35,12A11.35,11.35,0,1,1,12,.65,11.35,11.35,0,0,1,23.35,12Z"/><polygon class="cls-3" points="5.71 5.13 6.45 7.4 8.83 7.4 6.9 8.79 7.63 11.06 5.71 9.66 3.79 11.06 4.52 8.79 2.6 7.4 4.98 7.4 5.71 5.13"/><polygon class="cls-3" points="11.91 3.95 11.86 4.74 12.59 5.03 11.83 5.22 11.78 6 11.36 5.34 10.6 5.53 11.1 4.93 10.69 4.27 11.41 4.56 11.91 3.95"/><polygon class="cls-3" points="14.58 6.49 14.23 7.18 14.78 7.74 14.01 7.62 13.65 8.31 13.53 7.54 12.75 7.42 13.45 7.06 13.33 6.29 13.88 6.84 14.58 6.49"/><polygon class="cls-3" points="13.78 9.66 14.02 10.4 14.8 10.41 14.17 10.87 14.41 11.61 13.78 11.15 13.14 11.61 13.39 10.87 12.75 10.4 13.54 10.41 13.78 9.66"/><polygon class="cls-3" points="11.91 12.05 11.86 12.83 12.58 13.12 11.82 13.31 11.77 14.1 11.35 13.43 10.6 13.63 11.1 13.02 10.68 12.36 11.41 12.65 11.91 12.05"/></g></g></svg>