<svg xmlns="http://www.w3.org/2000/svg" viewBox="0 0 24 24"><defs><style>.cls-1{stroke:#b2b2b2;stroke-miterlimit:10;}.cls-2{fill:#002f66;}.cls-3{fill:#ef4135;}.cls-4{fill:#fff;}</style></defs><title>ic_Asset 2</title><g id="Layer_2" data-name="Layer 2"><g id="Layer_1-2" data-name="Layer 1"><circle class="cls-1" cx="12" cy="12" r="11.5" transform="translate(-0.35 0.36) rotate(-1.68)"/><path class="cls-2" d="M.65,12A11.37,11.37,0,0,0,7.27,22.32V1.68A11.37,11.37,0,0,0,.65,12Z"/><path class="cls-3" d="M23.35,12A11.37,11.37,0,0,0,16.73,1.68V22.32A11.37,11.37,0,0,0,23.35,12Z"/><path class="cls-4" d="M12,.65a11.32,11.32,0,0,0-4.73,1V22.32a11.38,11.38,0,0,0,9.46,0V1.68A11.32,11.32,0,0,0,12,.65Z"/></g></g></svg>