<svg xmlns="http://www.w3.org/2000/svg" viewBox="0 0 24 24"><defs><style>.cls-1{stroke:#b2b2b2;stroke-miterlimit:10;}.cls-2{fill:#fff;}.cls-3{fill:#ce1126;}.cls-4{fill:#003f87;}</style></defs><title>ic_Asset 4</title><g id="Layer_2" data-name="Layer 2"><g id="Layer_1-2" data-name="Layer 1"><path class="cls-1" d="M23.5,12A11.5,11.5,0,1,1,12,.5,11.5,11.5,0,0,1,23.5,12Z"/><path class="cls-2" d="M23.35,12A11.35,11.35,0,1,1,12,.65,11.35,11.35,0,0,1,23.35,12Z"/><path class="cls-3" d="M16.49,11.71a4.51,4.51,0,1,1-4.9-4.08A4.51,4.51,0,0,1,16.49,11.71Z"/><path class="cls-4" d="M8.15,9.79A2.25,2.25,0,1,0,12,12.13a2.25,2.25,0,1,1,3.85,2.33A4.5,4.5,0,0,1,8.15,9.79Z"/><rect x="1.72" y="6.46" width="4.52" height="0.71" transform="translate(-3.9 6.3) rotate(-55.99)"/><rect x="2.62" y="7.07" width="4.52" height="0.71" transform="translate(-4 7.3) rotate(-55.89)"/><rect x="3.52" y="7.68" width="4.52" height="0.7" transform="translate(-4.11 8.34) rotate(-56.02)"/><rect x="17.85" y="14.85" width="2.09" height="0.71" transform="translate(-4.28 22.36) rotate(-55.97)"/><rect x="16.49" y="16.87" width="2.09" height="0.7" transform="translate(-6.53 22.19) rotate(-56.14)"/><rect x="18.75" y="15.46" width="2.09" height="0.71" transform="translate(-4.4 23.33) rotate(-55.86)"/><rect x="17.39" y="17.47" width="2.09" height="0.71" transform="translate(-6.66 23.11) rotate(-55.91)"/><rect x="19.65" y="16.07" width="2.09" height="0.7" transform="translate(-4.49 24.4) rotate(-56)"/><rect x="18.29" y="18.08" width="2.09" height="0.71" transform="translate(-6.75 24.17) rotate(-56.02)"/><rect x="18.77" y="5.16" width="0.71" height="4.52" transform="translate(-0.89 11.92) rotate(-33.89)"/><rect x="18.99" y="4.76" width="0.71" height="2.09" transform="translate(0.07 11.84) rotate(-34.08)"/><polygon points="20.99 8.89 21.57 8.49 20.41 6.75 19.82 7.15 20.99 8.89"/><rect x="17.19" y="5.98" width="0.7" height="2.1" transform="translate(-0.93 11.01) rotate(-34.01)"/><polygon points="19.19 10.1 19.77 9.71 18.6 7.97 18.02 8.37 19.19 10.1"/><rect x="5.43" y="13.95" width="0.7" height="4.52" transform="translate(-8.06 5.98) rotate(-33.88)"/><rect x="3.63" y="15.17" width="0.7" height="4.52" transform="translate(-9.07 5.21) rotate(-34.02)"/><rect x="3.85" y="14.77" width="0.71" height="2.09" transform="translate(-8.14 5.08) rotate(-34.1)"/><polygon points="5.85 18.89 6.44 18.5 5.27 16.76 4.68 17.15 5.85 18.89"/></g></g></svg>