<svg xmlns="http://www.w3.org/2000/svg" viewBox="0 0 24 24"><defs><style>.cls-1{fill:#b2b2b2;stroke:#b2b2b2;stroke-miterlimit:10;}.cls-2{fill:red;}.cls-3{fill:#fff;}.cls-4{fill:blue;}</style></defs><title>Ресурс 1</title><g id="Слой_2" data-name="Слой 2"><g id="Режим_изоляции" data-name="Режим изоляции"><circle class="cls-1" cx="12" cy="12" r="11.5"/><path class="cls-2" d="M12,23.35a11.35,11.35,0,0,0,10.32-6.62H1.68A11.35,11.35,0,0,0,12,23.35Z"/><path class="cls-3" d="M12,.65A11.35,11.35,0,0,0,1.68,7.27H22.32A11.35,11.35,0,0,0,12,.65Z"/><path class="cls-4" d="M.65,12a11.3,11.3,0,0,0,1,4.73H22.32a11.34,11.34,0,0,0,0-9.46H1.68A11.3,11.3,0,0,0,.65,12Z"/></g></g></svg>