<svg xmlns="http://www.w3.org/2000/svg" viewBox="0 0 40 31.29"><defs><style>.cls-1{fill:#fff;}</style></defs><title>ic_5 Great alternative to PC</title><g id="Layer_2" data-name="Layer 2"><g id="Режим_изоляции" data-name="Режим изоляции"><path class="cls-1" d="M37.27,26.88H2.73A2.73,2.73,0,0,1,0,24.15V2.73A2.73,2.73,0,0,1,2.73,0H37.27A2.73,2.73,0,0,1,40,2.73V24.15A2.73,2.73,0,0,1,37.27,26.88ZM2.73,1.67A1.05,1.05,0,0,0,1.67,2.73V24.15a1.06,1.06,0,0,0,1.06,1.06H37.27a1.06,1.06,0,0,0,1.06-1.06V2.73a1.05,1.05,0,0,0-1.06-1.06Z"/><rect class="cls-1" x="19.17" y="26.04" width="1.67" height="4.42"/><rect class="cls-1" x="9.21" y="29.63" width="21.57" height="1.67"/></g></g></svg>