<svg xmlns="http://www.w3.org/2000/svg" viewBox="0 0 40 31.29"><defs><style>.cls-1{fill:#fff}</style></defs><g id="Layer_2" data-name="Layer 2"><g id="Режим_изоляции" data-name="Режим изоляции"><path class="cls-1" d="M37.27 26.88H2.73A2.73 2.73 0 0 1 0 24.15V2.73A2.73 2.73 0 0 1 2.73 0h34.54A2.73 2.73 0 0 1 40 2.73v21.42a2.73 2.73 0 0 1-2.73 2.73zM2.73 1.67a1.05 1.05 0 0 0-1.06 1.06v21.42a1.06 1.06 0 0 0 1.06 1.06h34.54a1.06 1.06 0 0 0 1.06-1.06V2.73a1.05 1.05 0 0 0-1.06-1.06z"/><path class="cls-1" d="M19.17 26.04h1.67v4.42h-1.67z"/><path class="cls-1" d="M9.21 29.63h21.57v1.67H9.21z"/></g></g></svg>