<svg xmlns="http://www.w3.org/2000/svg" viewBox="0 0 22 26"><defs><style>.cls-1{fill:#fff;}</style></defs><title>ic_and</title><g id="Layer_2" data-name="Layer 2"><g id="Capa_1" data-name="Capa 1"><path class="cls-1" d="M1.61,8.42a1.55,1.55,0,0,0-1.14.47A1.55,1.55,0,0,0,0,10v6.71a1.59,1.59,0,0,0,.47,1.15,1.55,1.55,0,0,0,1.14.46,1.52,1.52,0,0,0,1.13-.46,1.58,1.58,0,0,0,.46-1.15V10a1.51,1.51,0,0,0-.47-1.13A1.53,1.53,0,0,0,1.61,8.42Z"/><path class="cls-1" d="M3.83,19.13a1.66,1.66,0,0,0,.5,1.21,1.63,1.63,0,0,0,1.22.5H6.7l0,3.55a1.6,1.6,0,0,0,2.73,1.14,1.52,1.52,0,0,0,.47-1.14V20.84h2.16v3.55a1.52,1.52,0,0,0,.47,1.14,1.61,1.61,0,0,0,2.75-1.14V20.84h1.17a1.6,1.6,0,0,0,1.2-.5,1.62,1.62,0,0,0,.5-1.21V8.72H3.83Z"/><path class="cls-1" d="M14.55,2.39,15.66.34A.21.21,0,0,0,15.58,0a.21.21,0,0,0-.31.1L14.14,2.19a7.8,7.8,0,0,0-6.28,0L6.73.13A.21.21,0,0,0,6.42,0a.21.21,0,0,0-.08.31L7.45,2.39a6.76,6.76,0,0,0-2.68,2.4,6,6,0,0,0-1,3.37H18.22a6,6,0,0,0-1-3.37A6.87,6.87,0,0,0,14.55,2.39Zm-6.42,3a.58.58,0,0,1-.43.18.58.58,0,0,1-.42-.18.63.63,0,0,1-.17-.43.61.61,0,0,1,.17-.43.58.58,0,0,1,.42-.18.61.61,0,0,1,.61.61A.6.6,0,0,1,8.13,5.37Zm6.59,0a.58.58,0,0,1-.42.18.58.58,0,0,1-.43-.18.6.6,0,0,1-.18-.43.61.61,0,0,1,.61-.61.58.58,0,0,1,.42.18.61.61,0,0,1,.17.43A.63.63,0,0,1,14.72,5.37Z"/><path class="cls-1" d="M21.53,8.88a1.59,1.59,0,0,0-1.14-.46,1.56,1.56,0,0,0-1.12.46A1.52,1.52,0,0,0,18.8,10v6.71a1.55,1.55,0,0,0,.47,1.15,1.52,1.52,0,0,0,1.12.46,1.55,1.55,0,0,0,1.14-.46A1.59,1.59,0,0,0,22,16.73V10A1.55,1.55,0,0,0,21.53,8.88Z"/></g></g></svg>