<svg xmlns="http://www.w3.org/2000/svg" viewBox="0 0 56 50.75"><defs><style>.cls-1{fill:#fff}</style></defs><g id="Layer_2" data-name="Layer 2"><g id="Isolation_Mode" data-name="Isolation Mode"><path class="cls-1" d="M5.25 35H2.63C1.2 35 0 33.4 0 31.5v-2.26l6.57-3.75.86 1.51-5.68 3.26v1.24c0 1.07.62 1.75.88 1.75h2.62zM18.35 30.74l-6.53-3.73.86-1.52 5.72 3.27 6.58-3.29.79 1.56-7.42 3.71zM37.65 30.74l-7.42-3.71.79-1.56 6.58 3.29 5.72-3.27.86 1.52-6.53 3.73zM53.38 35h-2.63v-1.75h2.63c.25 0 .87-.68.87-1.75v-1.24L48.57 27l.86-1.52L56 29.24v2.26c0 1.9-1.2 3.5-2.62 3.5z"/><path class="cls-1" d="M9.63 28c-3 0-5.25-2.82-5.25-6.56 0-2.65.59-5.69 5.25-5.69s5.25 3 5.25 5.69c0 3.74-2.26 6.56-5.25 6.56zm0-10.5c-2.65 0-3.5 1-3.5 3.94 0 2.33 1.22 4.81 3.5 4.81s3.5-2.48 3.5-4.81c0-2.98-.86-3.94-3.5-3.94zM28 28c-3 0-5.25-2.82-5.25-6.56 0-2.65.6-5.69 5.25-5.69s5.25 3 5.25 5.69C33.25 25.18 31 28 28 28zm0-10.5c-2.65 0-3.5 1-3.5 3.94 0 2.33 1.23 4.81 3.5 4.81s3.5-2.48 3.5-4.81c0-2.98-.85-3.94-3.5-3.94zM46.38 28c-3 0-5.25-2.82-5.25-6.56 0-2.65.59-5.69 5.25-5.69s5.25 3 5.25 5.69c0 3.74-2.26 6.56-5.25 6.56zm0-10.5c-2.65 0-3.5 1-3.5 3.94 0 2.33 1.22 4.81 3.5 4.81s3.5-2.48 3.5-4.81c0-2.98-.88-3.94-3.5-3.94zM17.5 29.75h1.75v2.63H17.5zM36.75 29.75h1.75v2.63h-1.75zM53.38 50.75H2.63c-1.43 0-2.63-1.6-2.63-3.5V45l6.57-3.75.86 1.52L1.75 46v1.24c0 1.07.62 1.75.88 1.75h50.75c.25 0 .87-.68.87-1.75V46l-5.68-3.25.86-1.52L56 45v2.26c0 1.89-1.2 3.49-2.62 3.49z"/><path class="cls-1" d="M37.65 46.49l-7.42-3.71.79-1.56 6.58 3.29 5.72-3.27.86 1.52-6.53 3.73zM18.35 46.49l-6.53-3.73.86-1.52 5.72 3.27 6.58-3.29.79 1.56-7.42 3.71z"/><path class="cls-1" d="M9.63 43.75c-3 0-5.25-2.82-5.25-6.56 0-2.65.59-5.69 5.25-5.69s5.25 3 5.25 5.69c0 3.74-2.26 6.56-5.25 6.56zm0-10.5c-2.65 0-3.5 1-3.5 3.94 0 2.33 1.22 4.81 3.5 4.81s3.5-2.48 3.5-4.81c0-2.98-.86-3.94-3.5-3.94zM28 43.75c-3 0-5.25-2.82-5.25-6.56 0-2.65.6-5.69 5.25-5.69s5.25 3 5.25 5.69c0 3.74-2.25 6.56-5.25 6.56zm0-10.5c-2.65 0-3.5 1-3.5 3.94 0 2.33 1.23 4.81 3.5 4.81s3.5-2.48 3.5-4.81c0-2.98-.85-3.94-3.5-3.94zM46.38 43.75c-3 0-5.25-2.82-5.25-6.56 0-2.65.59-5.69 5.25-5.69s5.25 3 5.25 5.69c0 3.74-2.26 6.56-5.25 6.56zm0-10.5c-2.65 0-3.5 1-3.5 3.94 0 2.33 1.22 4.81 3.5 4.81s3.5-2.48 3.5-4.81c0-2.98-.88-3.94-3.5-3.94zM17.5 45.5h1.75v2.63H17.5zM36.75 45.5h1.75v2.63h-1.75zM5.25 19.25H2.63c-1.43 0-2.63-1.6-2.63-3.5v-2.26l6.57-3.75.86 1.52-5.68 3.25v1.24c0 1.07.62 1.75.88 1.75h2.62zM18.35 14.99l-6.53-3.73.86-1.52 5.72 3.27 6.58-3.29.79 1.56-7.42 3.71zM37.65 14.99l-7.42-3.71.79-1.56 6.58 3.29 5.72-3.27.86 1.52-6.53 3.73zM53.38 19.25h-2.63V17.5h2.63c.25 0 .87-.68.87-1.75v-1.24l-5.68-3.25.86-1.52L56 13.49v2.26c0 1.9-1.2 3.5-2.62 3.5z"/><path class="cls-1" d="M9.63 12.25c-3 0-5.25-2.82-5.25-6.56C4.38 3 5 0 9.63 0s5.25 3 5.25 5.69c0 3.74-2.26 6.56-5.25 6.56zm0-10.5c-2.65 0-3.5 1-3.5 3.94 0 2.33 1.22 4.81 3.5 4.81s3.5-2.48 3.5-4.81c0-2.98-.86-3.94-3.5-3.94zM28 12.25c-3 0-5.25-2.82-5.25-6.56C22.75 3 23.35 0 28 0s5.25 3 5.25 5.69c0 3.74-2.25 6.56-5.25 6.56zm0-10.5c-2.65 0-3.5 1-3.5 3.94 0 2.31 1.23 4.81 3.5 4.81s3.5-2.5 3.5-4.81c0-2.98-.85-3.94-3.5-3.94zM46.38 12.25c-3 0-5.25-2.82-5.25-6.56C41.13 3 41.72 0 46.38 0s5.25 3 5.25 5.69c0 3.74-2.26 6.56-5.25 6.56zm0-10.5c-2.65 0-3.5 1-3.5 3.94 0 2.33 1.22 4.81 3.5 4.81s3.5-2.48 3.5-4.81c0-2.98-.88-3.94-3.5-3.94zM17.5 14h1.75v2.63H17.5zM36.75 14h1.75v2.63h-1.75z"/></g></g></svg>