<svg xmlns="http://www.w3.org/2000/svg" viewBox="0 0 24 24"><title>ic_Controller</title><g id="Layer_2" data-name="Layer 2"><g id="Layer_3" data-name="Layer 3"><path d="M23,24H1a1,1,0,0,1-1-1V1A1,1,0,0,1,1,0H23a1,1,0,0,1,1,1V23a1,1,0,0,1-1,1ZM2,22H22V2H2V22Z"/><path d="M22.63,7.4H1.37a.51.51,0,1,1,0-1H22.63a.51.51,0,1,1,0,1Z"/><path d="M4.59,3A1.28,1.28,0,1,0,5.86,4.24,1.27,1.27,0,0,0,4.59,3Z"/><path d="M8,3A1.28,1.28,0,1,0,9.31,4.24,1.27,1.27,0,0,0,8,3Z"/><path d="M11.48,3a1.28,1.28,0,1,0,1.27,1.28A1.27,1.27,0,0,0,11.48,3Z"/><path d="M22.63,11.19H1.37a.51.51,0,0,1-.51-.51.5.5,0,0,1,.51-.5H22.63a.5.5,0,0,1,.51.5.51.51,0,0,1-.51.51Z"/><path d="M7.71,23.52a.38.38,0,0,1-.38-.38V10.85a.38.38,0,1,1,.76,0V23.14a.38.38,0,0,1-.38.38Z"/></g></g></svg>