<svg xmlns="http://www.w3.org/2000/svg" viewBox="0 0 56.25 60"><defs><style>.cls-1{fill:#fff;}</style></defs><title>ic_2 countries</title><g id="Layer_2" data-name="Layer 2"><g id="icons"><rect class="cls-1" x="16.88" y="58.13" width="22.5" height="1.88"/><rect class="cls-1" x="25.31" y="47.81" width="1.87" height="5.63"/><rect class="cls-1" x="29.06" y="47.81" width="1.87" height="5.63"/><path class="cls-1" d="M56.25,60H42.19a.94.94,0,0,1-.94-.94V54.38H15v4.68a.94.94,0,0,1-.94.94H0V58.13H13.13V53.44a.93.93,0,0,1,.93-.94H42.19a.94.94,0,0,1,.94.94v4.69H56.25Z"/><rect class="cls-1" x="4.69" y="21.56" width="43.13" height="1.87" transform="translate(-8.22 25.15) rotate(-45)"/><rect class="cls-1" x="25.31" y="0.94" width="1.87" height="43.13" transform="translate(-8.22 25.15) rotate(-45)"/><path class="cls-1" d="M18,41.29a10.58,10.58,0,0,1-7.69-2.88c-5.48-5.48-2.81-17.08,6-25.85C21.84,7,28.63,3.71,34.46,3.71a10.59,10.59,0,0,1,7.7,2.88c2.72,2.72,3.55,7,2.34,11.91a30.51,30.51,0,0,1-8.31,13.94C30.66,38,23.87,41.29,18,41.29ZM34.46,5.59c-5.26,0-11.71,3.17-16.83,8.29-8,8-10.72,18.45-6,23.2A8.71,8.71,0,0,0,18,39.41c5.27,0,11.72-3.17,16.84-8.29a28.72,28.72,0,0,0,7.81-13.06c1-4.3.39-7.91-1.85-10.14A8.72,8.72,0,0,0,34.46,5.59Z"/><path class="cls-1" d="M47.18,26.06c-5-1.49-10.32-4.88-15-9.53s-8-10-9.54-15L24.48,1c1.41,4.71,4.63,9.74,9.06,14.18S43,22.86,47.72,24.27Z"/><path class="cls-1" d="M28,44C26.6,39.27,23.38,34.24,19,29.8S9.48,22.15,4.77,20.74L5.3,19c5,1.49,10.32,4.88,15,9.53s8,10,9.53,15Z"/><path class="cls-1" d="M26.25,48.75a26.07,26.07,0,0,1-17.8-7.13L7.23,42.85,5.9,41.52l1.87-1.87a.94.94,0,0,1,1.33,0A24.25,24.25,0,0,0,50.63,22.5,24,24,0,0,0,43.4,5.35a.94.94,0,0,1-.27-.66A.9.9,0,0,1,43.4,4l1.87-1.87L46.6,3.48,45.38,4.7A25.8,25.8,0,0,1,52.5,22.5,26.29,26.29,0,0,1,26.25,48.75Z"/><path class="cls-1" d="M26.25,45a22.5,22.5,0,1,1,22.5-22.5A22.52,22.52,0,0,1,26.25,45Zm0-43.12A20.63,20.63,0,1,0,46.88,22.5,20.64,20.64,0,0,0,26.25,1.88Z"/></g></g></svg>