<svg xmlns="http://www.w3.org/2000/svg" viewBox="0 0 56.25 60"><defs><style>.cls-1{fill:#fff}</style></defs><g id="Layer_2" data-name="Layer 2"><g id="icons"><path class="cls-1" d="M16.88 58.13h22.5v1.88h-22.5zM25.31 47.81h1.87v5.63h-1.87zM29.06 47.81h1.87v5.63h-1.87z"/><path class="cls-1" d="M56.25 60H42.19a.94.94 0 0 1-.94-.94v-4.68H15v4.68a.94.94 0 0 1-.94.94H0v-1.87h13.13v-4.69a.93.93 0 0 1 .93-.94h28.13a.94.94 0 0 1 .94.94v4.69h13.12z"/><path class="cls-1" transform="rotate(-45 26.249 22.497)" d="M4.69 21.56h43.13v1.87H4.69z"/><path class="cls-1" transform="rotate(-45 26.249 22.497)" d="M25.31.94h1.87v43.13h-1.87z"/><path class="cls-1" d="M18 41.29a10.58 10.58 0 0 1-7.69-2.88c-5.48-5.48-2.81-17.08 6-25.85C21.84 7 28.63 3.71 34.46 3.71a10.59 10.59 0 0 1 7.7 2.88c2.72 2.72 3.55 7 2.34 11.91a30.51 30.51 0 0 1-8.31 13.94C30.66 38 23.87 41.29 18 41.29zm16.46-35.7c-5.26 0-11.71 3.17-16.83 8.29-8 8-10.72 18.45-6 23.2A8.71 8.71 0 0 0 18 39.41c5.27 0 11.72-3.17 16.84-8.29a28.72 28.72 0 0 0 7.81-13.06c1-4.3.39-7.91-1.85-10.14a8.72 8.72 0 0 0-6.34-2.33z"/><path class="cls-1" d="M47.18 26.06c-5-1.49-10.32-4.88-15-9.53s-8-10-9.54-15L24.48 1c1.41 4.71 4.63 9.74 9.06 14.18s9.46 7.68 14.18 9.09zM28 44c-1.4-4.73-4.62-9.76-9-14.2s-9.52-7.65-14.23-9.06L5.3 19c5 1.49 10.32 4.88 15 9.53s8 10 9.53 15z"/><path class="cls-1" d="M26.25 48.75a26.07 26.07 0 0 1-17.8-7.13l-1.22 1.23-1.33-1.33 1.87-1.87a.94.94 0 0 1 1.33 0A24.25 24.25 0 0 0 50.63 22.5 24 24 0 0 0 43.4 5.35a.94.94 0 0 1-.27-.66.9.9 0 0 1 .27-.69l1.87-1.87 1.33 1.35-1.22 1.22a25.8 25.8 0 0 1 7.12 17.8 26.29 26.29 0 0 1-26.25 26.25z"/><path class="cls-1" d="M26.25 45a22.5 22.5 0 1 1 22.5-22.5A22.52 22.52 0 0 1 26.25 45zm0-43.12A20.63 20.63 0 1 0 46.88 22.5 20.64 20.64 0 0 0 26.25 1.88z"/></g></g></svg>