<svg xmlns="http://www.w3.org/2000/svg" viewBox="0 0 24 22"><defs><style>.cls-1{fill:#ccc;}</style></defs><title>ic_download</title><g id="Layer_2" data-name="Layer 2"><g id="Layer_1-2" data-name="Layer 1"><path class="cls-1" d="M23.1,14.7H21.3a.84.84,0,0,0-.9.9v2.3a.47.47,0,0,1-.5.5H4.2a.47.47,0,0,1-.5-.5V15.6a.84.84,0,0,0-.9-.9H.9a.84.84,0,0,0-.9.9v5.5a.84.84,0,0,0,.9.9H23.1a.84.84,0,0,0,.9-.9V15.6A.84.84,0,0,0,23.1,14.7Z"/><path class="cls-1" d="M11.4,14.4a1.1,1.1,0,0,0,.6.3c.1,0,.5-.1.6-.3l5.6-5.5a.86.86,0,0,0,.3-.6.71.71,0,0,0-.3-.6L16.9,6.4a.86.86,0,0,0-.6-.3.6.6,0,0,0-.6.3l-.9.9a.47.47,0,0,1-.8-.4V.9a.84.84,0,0,0-.9-.9H11.3a.84.84,0,0,0-.9.9v6a.52.52,0,0,1-.8.4L8.4,6.4a.86.86,0,0,0-.6-.3.6.6,0,0,0-.6.3L5.8,7.7a.6.6,0,0,0-.3.6.6.6,0,0,0,.3.6Z"/></g></g></svg>