<svg xmlns="http://www.w3.org/2000/svg" viewBox="0 0 24 22"><defs><style>.cls-1{fill:#ccc}</style></defs><g id="Layer_2" data-name="Layer 2"><g id="Layer_1-2" data-name="Layer 1"><path class="cls-1" d="M23.1 14.7h-1.8a.84.84 0 0 0-.9.9v2.3a.47.47 0 0 1-.5.5H4.2a.47.47 0 0 1-.5-.5v-2.3a.84.84 0 0 0-.9-.9H.9a.84.84 0 0 0-.9.9v5.5a.84.84 0 0 0 .9.9h22.2a.84.84 0 0 0 .9-.9v-5.5a.84.84 0 0 0-.9-.9z"/><path class="cls-1" d="M11.4 14.4a1.1 1.1 0 0 0 .6.3c.1 0 .5-.1.6-.3l5.6-5.5a.86.86 0 0 0 .3-.6.71.71 0 0 0-.3-.6l-1.3-1.3a.86.86 0 0 0-.6-.3.6.6 0 0 0-.6.3l-.9.9a.47.47 0 0 1-.8-.4v-6a.84.84 0 0 0-.9-.9h-1.8a.84.84 0 0 0-.9.9v6a.52.52 0 0 1-.8.4l-1.2-.9a.86.86 0 0 0-.6-.3.6.6 0 0 0-.6.3L5.8 7.7a.6.6 0 0 0-.3.6.6.6 0 0 0 .3.6z"/></g></g></svg>