<svg xmlns="http://www.w3.org/2000/svg" viewBox="0 0 56 56"><defs><style>.cls-1{fill:#fff}</style></defs><g id="Layer_2" data-name="Layer 2"><g id="icons"><path class="cls-1" d="M14 29.75h-1.75v-9.62a7.88 7.88 0 0 1 7.88-7.88V14A6.14 6.14 0 0 0 14 20.13zM43.75 29.75H42v-9.62A6.13 6.13 0 0 0 35.88 14v-1.75a7.88 7.88 0 0 1 7.87 7.88zM56 56h-9.62v-1.75h7.87v-14H42.88V38.5H56V56zM9.63 56H0V38.5h13.13v1.75H1.75v14h7.88V56z"/><path class="cls-1" d="M42.88 56H13.13a.87.87 0 0 1-.88-.87V36.75a3.5 3.5 0 0 1 3.5-3.5h24.5a3.5 3.5 0 0 1 3.5 3.5v18.38a.87.87 0 0 1-.87.87zM14 54.25h28v-17.5A1.75 1.75 0 0 0 40.25 35h-24.5A1.75 1.75 0 0 0 14 36.75z"/><path class="cls-1" d="M43.66 55.52l-1.57-.79 2.54-5.06V45.5h-1.75v-1.75h2.62a.88.88 0 0 1 .88.88v5.25a.9.9 0 0 1-.1.39zM12.34 55.52l-2.62-5.25a.89.89 0 0 1-.09-.39v-5.25a.87.87 0 0 1 .87-.88h2.63v1.75h-1.75v4.17l2.53 5.06zM28 48.13a3.5 3.5 0 1 1 3.5-3.5 3.51 3.51 0 0 1-3.5 3.5zm0-5.25a1.75 1.75 0 1 0 1.75 1.75A1.75 1.75 0 0 0 28 42.88zM9.63 39.38H7.88v-1.75c0-7 3.88-8.49 8-10.06a32.74 32.74 0 0 0 4.69-2.08l.86 1.51a34.75 34.75 0 0 1-4.92 2.2c-4.15 1.57-6.88 2.61-6.88 8.42zM48.13 39.38h-1.75v-2.63c0-5.51-2.39-6.27-6.35-7.53A27.07 27.07 0 0 1 34.57 27l.86-1.52a25.53 25.53 0 0 0 5.13 2.07c3.89 1.23 7.57 2.4 7.57 9.19z"/><path class="cls-1" d="M31.67 30.81L28 29l-3.67 1.83-4.46-4.45 2.47-3.69 5.66.94 5.66-.94 2.47 3.69zM28 27l3.33 1.67 2.54-2.55-1-1.56-4.87.83-4.84-.81-1 1.56 2.54 2.55z"/><path class="cls-1" d="M31.5 20.13h1.75v3.5H31.5zM22.75 20.13h1.75v3.5h-1.75z"/><path class="cls-1" d="M28 21.88a12.68 12.68 0 0 1-4.77-1l-.09-.06c-.12-.08-3-2-3.88-8.48V8.75H21v3.44c.75 5.17 2.8 7 3.08 7.18a10.49 10.49 0 0 0 7.84 0c.27-.21 2.33-2 3.08-7.18V8.75h1.75v3.62c-.92 6.44-3.76 8.4-3.88 8.48l-.09.06a12.68 12.68 0 0 1-4.78.97zM36.75 8.75H35c0-4.84-2.16-7-7-7s-7 2.16-7 7h-1.75C19.25 2.94 22.19 0 28 0s8.75 2.94 8.75 8.75z"/><path class="cls-1" d="M32.41 11.46l-8.75-3.5-3.14 1.57-.79-1.56 3.86-1.93 8.75 3.5 3.14-1.57.79 1.56-3.86 1.93z"/></g></g></svg>