<svg xmlns="http://www.w3.org/2000/svg" viewBox="0 0 56 56"><defs><style>.cls-1{fill:#fff;}</style></defs><title>ic_4 Employee</title><g id="Layer_2" data-name="Layer 2"><g id="icons"><path class="cls-1" d="M14,29.75H12.25V20.13a7.88,7.88,0,0,1,7.88-7.88V14A6.14,6.14,0,0,0,14,20.13Z"/><path class="cls-1" d="M43.75,29.75H42V20.13A6.13,6.13,0,0,0,35.88,14V12.25a7.88,7.88,0,0,1,7.87,7.88Z"/><polygon class="cls-1" points="56 56 46.38 56 46.38 54.25 54.25 54.25 54.25 40.25 42.88 40.25 42.88 38.5 56 38.5 56 56"/><polygon class="cls-1" points="9.63 56 0 56 0 38.5 13.13 38.5 13.13 40.25 1.75 40.25 1.75 54.25 9.63 54.25 9.63 56"/><path class="cls-1" d="M42.88,56H13.13a.87.87,0,0,1-.88-.87V36.75a3.5,3.5,0,0,1,3.5-3.5h24.5a3.5,3.5,0,0,1,3.5,3.5V55.13A.87.87,0,0,1,42.88,56ZM14,54.25H42V36.75A1.75,1.75,0,0,0,40.25,35H15.75A1.75,1.75,0,0,0,14,36.75Z"/><path class="cls-1" d="M43.66,55.52l-1.57-.79,2.54-5.06V45.5H42.88V43.75H45.5a.88.88,0,0,1,.88.88v5.25a.9.9,0,0,1-.1.39Z"/><path class="cls-1" d="M12.34,55.52,9.72,50.27a.89.89,0,0,1-.09-.39V44.63a.87.87,0,0,1,.87-.88h2.63V45.5H11.38v4.17l2.53,5.06Z"/><path class="cls-1" d="M28,48.13a3.5,3.5,0,1,1,3.5-3.5A3.51,3.51,0,0,1,28,48.13Zm0-5.25a1.75,1.75,0,1,0,1.75,1.75A1.75,1.75,0,0,0,28,42.88Z"/><path class="cls-1" d="M9.63,39.38H7.88V37.63c0-7,3.88-8.49,8-10.06a32.74,32.74,0,0,0,4.69-2.08L21.43,27a34.75,34.75,0,0,1-4.92,2.2c-4.15,1.57-6.88,2.61-6.88,8.42Z"/><path class="cls-1" d="M48.13,39.38H46.38V36.75c0-5.51-2.39-6.27-6.35-7.53A27.07,27.07,0,0,1,34.57,27l.86-1.52a25.53,25.53,0,0,0,5.13,2.07c3.89,1.23,7.57,2.4,7.57,9.19Z"/><path class="cls-1" d="M31.67,30.81,28,29l-3.67,1.83-4.46-4.45,2.47-3.69,5.66.94,5.66-.94,2.47,3.69ZM28,27l3.33,1.67,2.54-2.55-1-1.56L28,25.39l-4.84-.81-1,1.56,2.54,2.55Z"/><rect class="cls-1" x="31.5" y="20.13" width="1.75" height="3.5"/><rect class="cls-1" x="22.75" y="20.13" width="1.75" height="3.5"/><path class="cls-1" d="M28,21.88a12.68,12.68,0,0,1-4.77-1l-.09-.06c-.12-.08-3-2-3.88-8.48V8.75H21v3.44c.75,5.17,2.8,7,3.08,7.18a10.49,10.49,0,0,0,7.84,0c.27-.21,2.33-2,3.08-7.18V8.75h1.75v3.62c-.92,6.44-3.76,8.4-3.88,8.48l-.09.06A12.68,12.68,0,0,1,28,21.88Z"/><path class="cls-1" d="M36.75,8.75H35c0-4.84-2.16-7-7-7s-7,2.16-7,7H19.25C19.25,2.94,22.19,0,28,0S36.75,2.94,36.75,8.75Z"/><polygon class="cls-1" points="32.41 11.46 23.66 7.96 20.52 9.53 19.73 7.97 23.59 6.04 32.34 9.54 35.48 7.97 36.27 9.53 32.41 11.46"/></g></g></svg>