<svg xmlns="http://www.w3.org/2000/svg" viewBox="0 0 47.25 56"><defs><style>.cls-1{fill:#fff}</style></defs><g id="Layer_2" data-name="Layer 2"><g id="icons"><path class="cls-1" d="M47.25 15.75H0V0h47.25zM1.75 14H45.5V1.75H1.75z"/><path class="cls-1" d="M3.5 14.88h1.75v3.5H3.5zM42 14.88h1.75v3.5H42zM5.25 5.25H7v5.25H5.25zM8.75 5.25h1.75v5.25H8.75zM12.25 5.25H14v5.25h-1.75zM15.75 5.25h1.75v5.25h-1.75zM19.25 5.25H21v5.25h-1.75z"/><path class="cls-1" d="M47.25 33.25H0V17.5h47.25zM1.75 31.5H45.5V19.25H1.75z"/><path class="cls-1" d="M3.5 32.38h1.75v3.5H3.5zM42 32.38h1.75v3.5H42zM5.25 22.75H7V28H5.25zM8.75 22.75h1.75V28H8.75zM12.25 22.75H14V28h-1.75zM15.75 22.75h1.75V28h-1.75zM19.25 22.75H21V28h-1.75zM30.63 24.5h1.75v1.75h-1.75zM27.13 24.5h1.75v1.75h-1.75zM23.63 24.5h1.75v1.75h-1.75z"/><path class="cls-1" d="M47.25 50.75H0V35h47.25zM1.75 49H45.5V36.75H1.75z"/><path class="cls-1" d="M3.5 49.88h1.75v6.13H3.5zM42 49.88h1.75v6.13H42zM5.25 40.25H7v5.25H5.25zM8.75 40.25h1.75v5.25H8.75zM12.25 40.25H14v5.25h-1.75zM15.75 40.25h1.75v5.25h-1.75zM19.25 40.25H21v5.25h-1.75zM38.5 28.88a3.5 3.5 0 1 1 3.5-3.5 3.51 3.51 0 0 1-3.5 3.5zm0-5.25a1.75 1.75 0 1 0 1.75 1.75 1.75 1.75 0 0 0-1.75-1.75zM30.63 42h1.75v1.75h-1.75zM27.13 42h1.75v1.75h-1.75zM23.63 42h1.75v1.75h-1.75zM38.5 46.38a3.5 3.5 0 1 1 3.5-3.5 3.51 3.51 0 0 1-3.5 3.5zm0-5.25a1.75 1.75 0 1 0 1.75 1.75 1.75 1.75 0 0 0-1.75-1.75zM30.63 7h1.75v1.75h-1.75zM27.13 7h1.75v1.75h-1.75zM23.63 7h1.75v1.75h-1.75zM38.5 11.38a3.5 3.5 0 1 1 3.5-3.5 3.51 3.51 0 0 1-3.5 3.5zm0-5.25a1.75 1.75 0 1 0 1.75 1.75 1.75 1.75 0 0 0-1.75-1.75zM7 52.5h33.25v1.75H7z"/></g></g></svg>