<svg xmlns="http://www.w3.org/2000/svg" viewBox="0 0 200 23.94"><defs><style>.cls-1{fill:#fff;}</style></defs><title>ic_Logo_Platincoin</title><g id="Layer_2" data-name="Layer 2"><g id="Layer_1-2" data-name="Layer 1"><path id="_Compound_Path_" data-name="&lt;Compound Path&gt;" class="cls-1" d="M22.64,23.74V.13h6.49v18H39.84v5.65Z"/><path id="_Compound_Path_2" data-name="&lt;Compound Path&gt;" class="cls-1" d="M50.12.13H56l8.18,23.61H57.64l-1.43-4.62H49.92l-1.4,4.62H41.91ZM55.17,14.8,53.08,7.48l-2.2,7.32Z"/><path id="_Compound_Path_3" data-name="&lt;Compound Path&gt;" class="cls-1" d="M82.41,5.79H75.63v18H69.14V5.79H62.32V.13H82.41Z"/><path id="_Compound_Path_4" data-name="&lt;Compound Path&gt;" class="cls-1" d="M84.77,23.74V.13h6.49V23.74Z"/><path id="_Compound_Path_5" data-name="&lt;Compound Path&gt;" class="cls-1" d="M101.8,12.14v11.6H95.31V.13h5.06l9.48,12V.13h6.48V23.74h-5.15Z"/><path id="_Compound_Path_6" data-name="&lt;Compound Path&gt;" class="cls-1" d="M119.09,11.74a11.74,11.74,0,0,1,3.19-8A12.33,12.33,0,0,1,126.07,1a13.16,13.16,0,0,1,11,.38,9.28,9.28,0,0,1,3.74,3.74l-5,3.53A4.08,4.08,0,0,0,135,7.25a4.34,4.34,0,0,0-1.21-.9,5.21,5.21,0,0,0-1.38-.46A7.51,7.51,0,0,0,131,5.75a4.88,4.88,0,0,0-4.08,2,6.18,6.18,0,0,0-1,2,8.09,8.09,0,0,0-.32,2.21A7.72,7.72,0,0,0,126,14.3a6.28,6.28,0,0,0,1.06,2,5.41,5.41,0,0,0,1.72,1.38,5,5,0,0,0,2.28.51,6.51,6.51,0,0,0,1.36-.15,5,5,0,0,0,1.35-.5,4.37,4.37,0,0,0,1.16-.9,4,4,0,0,0,.81-1.34l5.29,3.16a6.61,6.61,0,0,1-1.61,2.32A10,10,0,0,1,137,22.51a13.2,13.2,0,0,1-3,1.07,13.89,13.89,0,0,1-3.08.36,10.89,10.89,0,0,1-4.8-1,12.15,12.15,0,0,1-3.76-2.78A12.76,12.76,0,0,1,120,16.2,12.23,12.23,0,0,1,119.09,11.74Z"/><path id="_Compound_Path_7" data-name="&lt;Compound Path&gt;" class="cls-1" d="M153.64,23.94a11.36,11.36,0,0,1-4.89-1,12.11,12.11,0,0,1-6.18-6.55,11.79,11.79,0,0,1-.87-4.45,11.54,11.54,0,0,1,.9-4.49,12.08,12.08,0,0,1,2.51-3.81A12.32,12.32,0,0,1,148.94,1a11.83,11.83,0,0,1,4.84-1,11.29,11.29,0,0,1,4.88,1,11.94,11.94,0,0,1,3.76,2.73,12.08,12.08,0,0,1,2.41,3.86,11.89,11.89,0,0,1,.85,4.42,11.44,11.44,0,0,1-.9,4.47,12.11,12.11,0,0,1-2.49,3.79A12.34,12.34,0,0,1,158.48,23,11.7,11.7,0,0,1,153.64,23.94Zm-5.35-12a8.06,8.06,0,0,0,.33,2.31,6,6,0,0,0,1,2,5,5,0,0,0,1.68,1.4,5.16,5.16,0,0,0,2.41.53,5.07,5.07,0,0,0,2.43-.55,5,5,0,0,0,1.68-1.43,6.13,6.13,0,0,0,1-2,8.5,8.5,0,0,0,.32-2.29,7.85,7.85,0,0,0-.34-2.32,5.79,5.79,0,0,0-1-2,5.07,5.07,0,0,0-1.7-1.36,5.21,5.21,0,0,0-2.37-.52,5.09,5.09,0,0,0-2.42.54,4.86,4.86,0,0,0-1.67,1.41,5.9,5.9,0,0,0-1,2A8.41,8.41,0,0,0,148.29,12Z"/><path id="_Compound_Path_8" data-name="&lt;Compound Path&gt;" class="cls-1" d="M168.44,23.74V.13h6.49V23.74Z"/><path id="_Compound_Path_9" data-name="&lt;Compound Path&gt;" class="cls-1" d="M185.47,12.14v11.6H179V.13H184l9.48,12V.13H200V23.74h-5.15Z"/><path class="cls-1" d="M6.73,12.65H19.28a8.91,8.91,0,0,0,.64-1.36,8.68,8.68,0,0,0,.56-3.06,8.12,8.12,0,0,0-.59-3A8.92,8.92,0,0,0,18.26,2.6,8.26,8.26,0,0,0,15.78.72,7.14,7.14,0,0,0,12.62,0H6.73Zm5.46-7a1.82,1.82,0,0,1,1.19.53,2.69,2.69,0,0,1,.59,2,3,3,0,0,1-.51,2,1.49,1.49,0,0,1-1.1.55H9V5.69Z"/><polygon class="cls-1" points="4.8 23.75 4.8 14.57 0 14.57 0 16.46 2.56 16.46 2.56 23.75 4.8 23.75"/><polygon class="cls-1" points="4.8 12.65 4.8 0.01 2.56 0.01 2.56 10.77 0 10.77 0 12.65 4.8 12.65"/><path class="cls-1" d="M6.73,14.57v9.17H9V16.46h3.82a7.15,7.15,0,0,0,3.14-.69,7.44,7.44,0,0,0,1.8-1.2Z"/></g></g></svg>