<svg xmlns="http://www.w3.org/2000/svg" viewBox="0 0 20.36 25"><g data-name="Layer 2"><path d="M17 13.28a5.67 5.67 0 0 1 2.7-4.76 5.82 5.82 0 0 0-4.57-2.47c-2-.2-3.8 1.14-4.79 1.14S7.83 6.08 6.22 6.1a6.14 6.14 0 0 0-5.17 3.14c-2.21 3.82-.57 9.49 1.58 12.59 1.05 1.52 2.3 3.23 4 3.17s2.18-1 4.09-1 2.45 1 4.13 1 2.78-1.55 3.83-3.07a14.09 14.09 0 0 0 1.73-3.56A5.51 5.51 0 0 1 17 13.28zM13.85 4a5.43 5.43 0 0 0 1.3-4 5.63 5.63 0 0 0-3.68 1.89 5.25 5.25 0 0 0-1.32 3.87A4.61 4.61 0 0 0 13.85 4z" fill="#fff" data-name="Capa 1"/></g></svg>