<svg xmlns="http://www.w3.org/2000/svg" viewBox="0 0 56 50.58"><defs><style>.cls-1{fill:#fff;}</style></defs><title>ic_3 Offices</title><g id="Layer_2" data-name="Layer 2"><g id="icons"><path class="cls-1" d="M45.16,47H0V41.55H45.16ZM1.81,45.16H43.35V43.35H1.81Z"/><polygon class="cls-1" points="1.81 39.74 0 39.74 0 10.84 17.16 10.84 17.16 12.64 1.81 12.64 1.81 39.74"/><polygon class="cls-1" points="45.16 39.74 43.35 39.74 43.35 1.81 18.07 1.81 18.07 39.74 16.26 39.74 16.26 0 45.16 0 45.16 39.74"/><rect class="cls-1" x="4.52" y="16.26" width="1.81" height="1.81"/><rect class="cls-1" x="8.13" y="16.26" width="1.81" height="1.81"/><rect class="cls-1" x="11.74" y="16.26" width="1.81" height="1.81"/><rect class="cls-1" x="4.52" y="19.87" width="1.81" height="1.81"/><rect class="cls-1" x="8.13" y="19.87" width="1.81" height="1.81"/><rect class="cls-1" x="11.74" y="19.87" width="1.81" height="1.81"/><rect class="cls-1" x="4.52" y="23.48" width="1.81" height="1.81"/><rect class="cls-1" x="8.13" y="23.48" width="1.81" height="1.81"/><rect class="cls-1" x="11.74" y="23.48" width="1.81" height="1.81"/><rect class="cls-1" x="4.52" y="27.1" width="1.81" height="1.81"/><rect class="cls-1" x="8.13" y="27.1" width="1.81" height="1.81"/><rect class="cls-1" x="11.74" y="27.1" width="1.81" height="1.81"/><rect class="cls-1" x="4.52" y="30.71" width="1.81" height="1.81"/><rect class="cls-1" x="8.13" y="30.71" width="1.81" height="1.81"/><rect class="cls-1" x="11.74" y="30.71" width="1.81" height="1.81"/><rect class="cls-1" x="4.52" y="34.32" width="1.81" height="1.81"/><rect class="cls-1" x="8.13" y="34.32" width="1.81" height="1.81"/><rect class="cls-1" x="11.74" y="34.32" width="1.81" height="1.81"/><path class="cls-1" d="M26.19,10.84H20.77V5.42h5.42ZM22.58,9h1.81V7.23H22.58Z"/><path class="cls-1" d="M33.42,10.84H28V5.42h5.42ZM29.81,9h1.8V7.23h-1.8Z"/><path class="cls-1" d="M40.65,10.84H35.23V5.42h5.42ZM37,9h1.81V7.23H37Z"/><path class="cls-1" d="M26.19,18.06H20.77V12.65h5.42Zm-3.61-1.8h1.81V14.45H22.58Z"/><path class="cls-1" d="M33.42,18.06H28V12.65h5.42Zm-3.61-1.8h1.8V14.45h-1.8Z"/><path class="cls-1" d="M40.65,18.06H35.23V12.65h5.42ZM37,16.26h1.81V14.45H37Z"/><path class="cls-1" d="M26.19,25.29H20.77V19.87h5.42Zm-3.61-1.81h1.81v-1.8H22.58Z"/><path class="cls-1" d="M33.42,25.29H28V19.87h5.42Zm-3.61-1.81h1.8v-1.8h-1.8Z"/><path class="cls-1" d="M40.65,25.29H35.23V19.87h5.42ZM37,23.48h1.81v-1.8H37Z"/><path class="cls-1" d="M26.19,32.52H20.77V27.1h5.42Zm-3.61-1.81h1.81V28.9H22.58Z"/><path class="cls-1" d="M33.42,32.52H28V27.1h5.42Zm-3.61-1.81h1.8V28.9h-1.8Z"/><path class="cls-1" d="M40.65,32.52H35.23V27.1h5.42ZM37,30.71h1.81V28.9H37Z"/><polygon class="cls-1" points="40.65 39.74 38.84 39.74 38.84 36.13 22.58 36.13 22.58 39.74 20.77 39.74 20.77 34.32 40.65 34.32 40.65 39.74"/><rect class="cls-1" x="31.61" y="35.23" width="1.81" height="4.52"/><path class="cls-1" d="M56,47H47V0h9Zm-7.23-1.81h5.42V1.81H48.77Z"/><rect class="cls-1" x="47.87" y="10.84" width="2.71" height="1.81"/><rect class="cls-1" x="47.87" y="14.45" width="2.71" height="1.81"/><rect class="cls-1" x="47.87" y="18.06" width="2.71" height="1.81"/><rect class="cls-1" x="47.87" y="21.68" width="2.71" height="1.81"/><rect class="cls-1" x="47.87" y="25.29" width="2.71" height="1.81"/><rect class="cls-1" x="47.87" y="28.9" width="2.71" height="1.81"/><rect class="cls-1" x="47.87" y="32.52" width="2.71" height="1.81"/><rect class="cls-1" x="47.87" y="36.13" width="2.71" height="1.81"/><rect class="cls-1" x="47.87" y="39.74" width="2.71" height="1.81"/><rect class="cls-1" x="50.58" y="3.61" width="1.81" height="1.81"/><rect class="cls-1" y="48.77" width="1.81" height="1.81"/><rect class="cls-1" x="3.61" y="48.77" width="1.81" height="1.81"/><rect class="cls-1" x="7.23" y="48.77" width="1.81" height="1.81"/><rect class="cls-1" x="10.84" y="48.77" width="1.81" height="1.81"/><rect class="cls-1" x="14.45" y="48.77" width="1.81" height="1.81"/><rect class="cls-1" x="18.06" y="48.77" width="1.81" height="1.81"/><rect class="cls-1" x="21.68" y="48.77" width="1.81" height="1.81"/><rect class="cls-1" x="25.29" y="48.77" width="1.81" height="1.81"/><rect class="cls-1" x="28.9" y="48.77" width="1.81" height="1.81"/><rect class="cls-1" x="32.52" y="48.77" width="1.81" height="1.81"/><rect class="cls-1" x="36.13" y="48.77" width="1.81" height="1.81"/><rect class="cls-1" x="39.74" y="48.77" width="1.81" height="1.81"/><rect class="cls-1" x="43.35" y="48.77" width="1.81" height="1.81"/></g></g></svg>