<svg xmlns="http://www.w3.org/2000/svg" viewBox="0 0 64 64"><defs><style>.cls-1{fill:#fff;}</style></defs><title>ic_2 Register</title><g id="Layer_2" data-name="Layer 2"><g id="icons"><path class="cls-1" d="M32,64A32,32,0,1,1,64,32,32,32,0,0,1,32,64ZM32,2A30,30,0,1,0,62,32,30,30,0,0,0,32,2Z"/><rect class="cls-1" x="25" y="38" width="2" height="6"/><rect class="cls-1" x="37" y="38" width="2" height="6"/><path class="cls-1" d="M43,25H42a3,3,0,0,1-3-3V20a1,1,0,0,0-1-1H37V17.62L34.24,19H26a1,1,0,0,0-1,1v2a3,3,0,0,1-3,3V23a1,1,0,0,0,1-1V20a3,3,0,0,1,3-3h7.76L39,14.38v2.79A3,3,0,0,1,41,20v2a1,1,0,0,0,1,1h1Z"/><rect class="cls-1" x="21" y="23" width="1" height="2"/><path class="cls-1" d="M32,41c-7.79,0-10.83-7.54-11-12.58l-1-1V16a4,4,0,0,1,4-4h.13A4,4,0,0,1,28,9H39a5,5,0,0,1,5,5V27.41l-1,1C42.83,33.46,39.79,41,32,41ZM22,26.59l1,1V28c0,4.25,2.44,11,9,11s9-6.75,9-11v-.41l1-1V14a3,3,0,0,0-3-3H28a2,2,0,0,0-2,2v1H24a2,2,0,0,0-2,2Z"/><path class="cls-1" d="M28.22,53.19,17.09,48.25l6.67-5.34L33,45.22v3.19Zm-7.31-5.44,6.87,3.06L31,47.59v-.81l-6.76-1.69Z"/><path class="cls-1" d="M35.78,53.19,31,48.41V45.22l9.24-2.31,6.67,5.34ZM33,47.59l3.22,3.22,6.87-3.06-3.33-2.66L33,46.78Z"/><rect class="cls-1" x="31" y="57" width="2" height="2"/><rect class="cls-1" x="31" y="53" width="2" height="2"/><path class="cls-1" d="M9.88,53.48l-1.77-.93c.19-.39,1.49-2.47,7.57-4.5l3-1,.64,1.9-3,1C11,51.73,9.89,53.46,9.88,53.48Z"/><path class="cls-1" d="M54.11,53.45S53,51.72,47.68,50l-3-1,.64-1.9,3,1c6.08,2,7.38,4.11,7.57,4.5l-1.78.9Z"/></g></g></svg>