<svg xmlns="http://www.w3.org/2000/svg" viewBox="0 0 56 49"><defs><style>.cls-1{fill:#fff;}</style></defs><title>ic_1 wallet</title><g id="Layer_2" data-name="Layer 2"><g id="icons"><path class="cls-1" d="M52.5,49H6.13A6.13,6.13,0,0,1,0,42.88V6.13H1.75V42.88a4.38,4.38,0,0,0,4.38,4.37H50.75V35.88H52.5Z"/><path class="cls-1" d="M52.5,23.63H50.75V12.25H6.13A6.13,6.13,0,1,1,6.13,0H52.5V8.75H50.75v-7H6.13a4.38,4.38,0,1,0,0,8.75H52.5Z"/><rect class="cls-1" x="7" y="5.25" width="40.25" height="1.75"/><path class="cls-1" d="M35.88,33.25a3.5,3.5,0,1,1,3.5-3.5A3.5,3.5,0,0,1,35.88,33.25Zm0-5.25a1.75,1.75,0,1,0,1.75,1.75A1.75,1.75,0,0,0,35.88,28Z"/><rect class="cls-1" x="45.5" y="14" width="1.75" height="1.75"/><rect class="cls-1" x="42" y="14" width="1.75" height="1.75"/><rect class="cls-1" x="38.5" y="14" width="1.75" height="1.75"/><rect class="cls-1" x="35" y="14" width="1.75" height="1.75"/><rect class="cls-1" x="31.5" y="14" width="1.75" height="1.75"/><rect class="cls-1" x="28" y="14" width="1.75" height="1.75"/><rect class="cls-1" x="24.5" y="14" width="1.75" height="1.75"/><rect class="cls-1" x="21" y="14" width="1.75" height="1.75"/><rect class="cls-1" x="17.5" y="14" width="1.75" height="1.75"/><rect class="cls-1" x="14" y="14" width="1.75" height="1.75"/><rect class="cls-1" x="10.5" y="14" width="1.75" height="1.75"/><rect class="cls-1" x="7" y="14" width="1.75" height="1.75"/><rect class="cls-1" x="45.5" y="14" width="1.75" height="1.75"/><rect class="cls-1" x="42" y="14" width="1.75" height="1.75"/><rect class="cls-1" x="38.5" y="14" width="1.75" height="1.75"/><rect class="cls-1" x="35" y="14" width="1.75" height="1.75"/><rect class="cls-1" x="31.5" y="14" width="1.75" height="1.75"/><rect class="cls-1" x="28" y="14" width="1.75" height="1.75"/><rect class="cls-1" x="24.5" y="14" width="1.75" height="1.75"/><rect class="cls-1" x="21" y="14" width="1.75" height="1.75"/><rect class="cls-1" x="17.5" y="14" width="1.75" height="1.75"/><rect class="cls-1" x="14" y="14" width="1.75" height="1.75"/><rect class="cls-1" x="10.5" y="14" width="1.75" height="1.75"/><rect class="cls-1" x="7" y="14" width="1.75" height="1.75"/><rect class="cls-1" x="45.5" y="43.75" width="1.75" height="1.75"/><rect class="cls-1" x="42" y="43.75" width="1.75" height="1.75"/><rect class="cls-1" x="38.5" y="43.75" width="1.75" height="1.75"/><rect class="cls-1" x="35" y="43.75" width="1.75" height="1.75"/><rect class="cls-1" x="31.5" y="43.75" width="1.75" height="1.75"/><rect class="cls-1" x="28" y="43.75" width="1.75" height="1.75"/><rect class="cls-1" x="24.5" y="43.75" width="1.75" height="1.75"/><rect class="cls-1" x="21" y="43.75" width="1.75" height="1.75"/><rect class="cls-1" x="17.5" y="43.75" width="1.75" height="1.75"/><rect class="cls-1" x="14" y="43.75" width="1.75" height="1.75"/><rect class="cls-1" x="10.5" y="43.75" width="1.75" height="1.75"/><rect class="cls-1" x="7" y="43.75" width="1.75" height="1.75"/><rect class="cls-1" x="45.5" y="43.75" width="1.75" height="1.75"/><rect class="cls-1" x="42" y="43.75" width="1.75" height="1.75"/><rect class="cls-1" x="38.5" y="43.75" width="1.75" height="1.75"/><rect class="cls-1" x="35" y="43.75" width="1.75" height="1.75"/><rect class="cls-1" x="31.5" y="43.75" width="1.75" height="1.75"/><rect class="cls-1" x="28" y="43.75" width="1.75" height="1.75"/><rect class="cls-1" x="24.5" y="43.75" width="1.75" height="1.75"/><rect class="cls-1" x="21" y="43.75" width="1.75" height="1.75"/><rect class="cls-1" x="17.5" y="43.75" width="1.75" height="1.75"/><rect class="cls-1" x="14" y="43.75" width="1.75" height="1.75"/><rect class="cls-1" x="10.5" y="43.75" width="1.75" height="1.75"/><rect class="cls-1" x="7" y="43.75" width="1.75" height="1.75"/><path class="cls-1" d="M52.5,36.75H35.88a7,7,0,0,1,0-14H52.5a1.75,1.75,0,0,0,0-3.5h-.87V17.5h.87A3.5,3.5,0,0,1,56,21V33.25A3.5,3.5,0,0,1,52.5,36.75ZM35.88,24.5a5.25,5.25,0,0,0,0,10.5H52.5a1.75,1.75,0,0,0,1.75-1.75V24a3.47,3.47,0,0,1-1.75.47Z"/></g></g></svg>