<svg xmlns="http://www.w3.org/2000/svg" viewBox="0 0 40 39.97"><defs><style>.cls-1{fill:#fff}</style></defs><g id="Layer_2" data-name="Layer 2"><g id="Режим_изоляции" data-name="Режим изоляции"><path class="cls-1" transform="rotate(-45 15.422 5.002)" d="M14.56-1.22h1.71v12.44h-1.71z"/><path class="cls-1" transform="rotate(-45 4.997 15.42)" d="M4.15 9.2h1.71v12.44H4.15z"/><path class="cls-1" d="M13.33 35.17L3.09 24.92 24.92 3.09l10.25 10.24zM5.51 24.92l7.82 7.83 19.42-19.42-7.83-7.82z"/><path class="cls-1" d="M26.64 40C23.28 40 20 38.44 17 35.41a21.66 21.66 0 0 1-2.43-2.91l-.41-.59 17.75-17.74.59.41A21.66 21.66 0 0 1 35.41 17c6 6 6.13 13 .37 18.77A13 13 0 0 1 26.64 40zM16.4 32.1a20.62 20.62 0 0 0 1.82 2.1c2.7 2.69 5.53 4.06 8.42 4.06a11.33 11.33 0 0 0 7.93-3.69c5.07-5.08 4.94-11-.37-16.35a20.62 20.62 0 0 0-2.1-1.82z"/><path class="cls-1" transform="rotate(-45 36.859 36.863)" d="M36 34.47h1.71v4.77H36z"/></g></g></svg>