<svg xmlns="http://www.w3.org/2000/svg" viewBox="0 0 40 39.97"><defs><style>.cls-1{fill:#fff;}</style></defs><title>ic_3 Sustainability</title><g id="Layer_2" data-name="Layer 2"><g id="Режим_изоляции" data-name="Режим изоляции"><rect class="cls-1" x="14.56" y="-1.22" width="1.71" height="12.44" transform="translate(0.98 12.37) rotate(-45)"/><rect class="cls-1" x="4.15" y="9.2" width="1.71" height="12.44" transform="translate(-9.44 8.05) rotate(-45)"/><path class="cls-1" d="M13.33,35.17,3.09,24.92,24.92,3.09,35.17,13.33ZM5.51,24.92l7.82,7.83L32.75,13.33,24.92,5.51Z"/><path class="cls-1" d="M26.64,40h0C23.28,40,20,38.44,17,35.41a21.66,21.66,0,0,1-2.43-2.91l-.41-.59L31.91,14.17l.59.41A21.66,21.66,0,0,1,35.41,17c6,6,6.13,13,.37,18.77A13,13,0,0,1,26.64,40ZM16.4,32.1a20.62,20.62,0,0,0,1.82,2.1c2.7,2.69,5.53,4.06,8.42,4.06h0a11.33,11.33,0,0,0,7.93-3.69c5.07-5.08,4.94-11-.37-16.35a20.62,20.62,0,0,0-2.1-1.82Z"/><rect class="cls-1" x="36" y="34.47" width="1.71" height="4.77" transform="translate(-15.27 36.86) rotate(-45)"/></g></g></svg>