<svg xmlns="http://www.w3.org/2000/svg" viewBox="0 0 24.84 14.17"><defs><style>.cls-1{fill:#828282;}</style></defs><title>ic_vk</title><g id="Layer_2" data-name="Layer 2"><g id="Layer_1-2" data-name="Layer 1"><path class="cls-1" d="M24.71,12.8a.76.76,0,0,0-.09-.16,12.66,12.66,0,0,0-2.47-2.86l0,0h0c-.55-.53-.9-.88-1.05-1.06a1,1,0,0,1-.18-1A9.73,9.73,0,0,1,22,5.92c.36-.45.64-.82.84-1.09C24.36,2.84,25,1.58,24.8,1L24.73.89a.94.94,0,0,0-.4-.21,2.21,2.21,0,0,0-.83,0l-3.73,0a.59.59,0,0,0-.26,0l-.16,0-.07,0-.05,0a.61.61,0,0,0-.14.14.8.8,0,0,0-.13.22,20.63,20.63,0,0,1-1.39,2.91c-.31.54-.61,1-.87,1.39a6.81,6.81,0,0,1-.68.87,4.7,4.7,0,0,1-.49.45c-.15.11-.26.16-.33.14l-.22,0a.92.92,0,0,1-.3-.32A1.35,1.35,0,0,1,14.54,6c0-.2,0-.37,0-.52s0-.35,0-.62,0-.45,0-.54c0-.33,0-.69,0-1.07s0-.69,0-.91,0-.46,0-.71a3.07,3.07,0,0,0,0-.59,2,2,0,0,0-.14-.41.67.67,0,0,0-.26-.31A1.3,1.3,0,0,0,13.7.17,9,9,0,0,0,12,0,8.54,8.54,0,0,0,8.86.31,1.83,1.83,0,0,0,8.37.7C8.21.89,8.19,1,8.3,1a1.56,1.56,0,0,1,1.1.56l.08.15a2.43,2.43,0,0,1,.18.6,6.33,6.33,0,0,1,.12.94,10.87,10.87,0,0,1,0,1.62c0,.45-.09.8-.13,1a1.71,1.71,0,0,1-.17.61,2.36,2.36,0,0,1-.16.29l-.06.06A.84.84,0,0,1,8.91,7a.82.82,0,0,1-.44-.18,4,4,0,0,1-.54-.5,6.9,6.9,0,0,1-.62-.89A14.49,14.49,0,0,1,6.58,4l-.2-.38c-.13-.24-.31-.59-.53-1.05s-.43-.91-.6-1.34A.82.82,0,0,0,4.94.86l-.06,0A1,1,0,0,0,4.67.71a1.49,1.49,0,0,0-.3-.09L.83.65A.92.92,0,0,0,.09.89L0,1a.37.37,0,0,0,0,.21,1.13,1.13,0,0,0,.08.35C.6,2.74,1.16,3.92,1.77,5.05s1.13,2,1.58,2.72.9,1.34,1.37,2,.77,1,.92,1.17.27.31.36.39l.32.31a7.19,7.19,0,0,0,.92.75c.4.28.84.57,1.33.85a6.78,6.78,0,0,0,1.7.68,5.92,5.92,0,0,0,1.89.22h1.48a1,1,0,0,0,.69-.29l.05-.06a.69.69,0,0,0,.1-.24,1.37,1.37,0,0,0,0-.36,3.92,3.92,0,0,1,.09-1,2.17,2.17,0,0,1,.22-.67,1.61,1.61,0,0,1,.27-.38,1.16,1.16,0,0,1,.22-.19l.11-.05a.83.83,0,0,1,.73.21,4.26,4.26,0,0,1,.79.75c.24.29.54.63.88,1a6.91,6.91,0,0,0,.91.83l.26.15a3.34,3.34,0,0,0,.67.29,1.55,1.55,0,0,0,.72.06l3.31-.05a1.61,1.61,0,0,0,.77-.16.63.63,0,0,0,.32-.36.92.92,0,0,0,0-.44,1.55,1.55,0,0,0-.09-.34Z"/></g></g></svg>