<?xml version="1.0" encoding="UTF-8"?>
<svg width="25px" height="15px" viewBox="0 0 25 15" version="1.1" xmlns="http://www.w3.org/2000/svg" xmlns:xlink="http://www.w3.org/1999/xlink">
    <!-- Generator: Sketch 49.3 (51167) - http://www.bohemiancoding.com/sketch -->
    <title>Untitled</title>
    <desc>Created with Sketch.</desc>
    <defs></defs>
    <g id="Page-1" stroke="none" stroke-width="1" fill="none" fill-rule="evenodd">
        <g id="vk" transform="translate(-1.000000, -1.000000)" fill="#4c75a3" fill-rule="nonzero">
            <path d="M25.71,13.8 C25.6865751,13.7432261 25.6563547,13.6895009 25.62,13.64 C24.9443876,12.5684628 24.1117808,11.6043918 23.15,10.78 C22.6,10.25 22.25,9.9 22.1,9.72 C21.862509,9.44425193 21.7935693,9.06125397 21.92,8.72 C22.2140355,8.08280892 22.5761422,7.47929771 23,6.92 C23.36,6.47 23.64,6.1 23.84,5.83 C25.36,3.84 26,2.58 25.8,2 L25.73,1.89 C25.6157207,1.78852369 25.4784223,1.71644201 25.33,1.68 C25.0558163,1.6275805 24.7741837,1.6275805 24.5,1.68 L20.77,1.68 C20.6844116,1.66066638 20.5955884,1.66066638 20.51,1.68 L20.23,1.68 C20.1760208,1.71873137 20.1287314,1.7660208 20.09,1.82 C20.0351587,1.88589408 19.9912656,1.96017483 19.96,2.04 C19.5733091,3.04478418 19.1085561,4.01775622 18.57,4.95 C18.26,5.49 17.96,5.95 17.7,6.34 C17.4972571,6.64792882 17.269843,6.93888503 17.02,7.21 C16.8675012,7.37138606 16.7037578,7.52176269 16.53,7.66 C16.38,7.77 16.27,7.82 16.2,7.8 L15.98,7.8 C15.8556626,7.71908091 15.7527374,7.60929406 15.68,7.48 C15.6038523,7.33011314 15.5563715,7.16732159 15.54,7 L15.54,6.48 L15.54,5.86 L15.54,5.32 L15.54,4.25 L15.54,3.34 L15.54,2.63 C15.5589418,2.43378942 15.5589418,2.23621058 15.54,2.04 C15.5083172,1.8986671 15.4613752,1.76119406 15.4,1.63 C15.34735,1.50234239 15.2565417,1.39407096 15.14,1.32 C15.0035369,1.24396993 14.8544877,1.19315771 14.7,1.17 C14.1400061,1.05955441 13.5707753,1.00263133 13,1 C11.943164,0.90740248 10.8783262,1.01252978 9.86,1.31 C9.67547062,1.41087886 9.50971057,1.54281032 9.37,1.7 C9.21,1.89 9.19,2 9.3,2 C9.72806318,2.0274973 10.1259172,2.23004117 10.4,2.56 L10.48,2.71 C10.5656352,2.90139641 10.6261378,3.10307169 10.66,3.31 C10.7234304,3.61989492 10.7635428,3.9341085 10.78,4.25 C10.8202952,4.78924829 10.8202952,5.33075171 10.78,5.87 C10.78,6.32 10.69,6.67 10.65,6.87 C10.631805,7.08214391 10.5741499,7.28902385 10.48,7.48 C10.4335241,7.58029448 10.3800591,7.67719973 10.32,7.77 L10.26,7.83 C10.1582467,7.91327901 10.038364,7.97150772 9.91,8 C9.74877695,7.984764 9.59567494,7.92213136 9.47,7.82 C9.27501788,7.67028115 9.09425302,7.50290628 8.93,7.32 C8.70029969,7.04006189 8.49299267,6.74247601 8.31,6.43 C8.04042505,5.9671912 7.79671769,5.48979187 7.58,5 L7.38,4.62 C7.25,4.38 7.07,4.03 6.85,3.57 C6.63,3.11 6.42,2.66 6.25,2.23 C6.18613,2.07835719 6.07811573,1.94943693 5.94,1.86 L5.88,1.86 C5.81677265,1.80113952 5.746185,1.75071977 5.67,1.71 C5.57343958,1.66954375 5.47288416,1.63937712 5.37,1.62 L1.83,1.65 C1.55998026,1.61664412 1.28904439,1.70451521 1.09,1.89 L1,2 C0.979718226,2.06853089 0.979718226,2.14146911 1,2.21 C1.00784402,2.33018452 1.03485149,2.44834222 1.08,2.56 C1.6,3.74 2.16,4.92 2.77,6.05 C3.38,7.18 3.9,8.05 4.35,8.77 C4.8,9.49 5.25,10.11 5.72,10.77 C6.19,11.43 6.49,11.77 6.64,11.94 C6.79,12.11 6.91,12.25 7,12.33 L7.32,12.64 C7.60547146,12.9149292 7.91318641,13.1657838 8.24,13.39 C8.64,13.67 9.08,13.96 9.57,14.24 C10.1033132,14.5424908 10.6751933,14.7712429 11.27,14.92 C11.8840167,15.0947608 12.5222588,15.1690535 13.16,15.14 L14.64,15.14 C14.8988682,15.1362966 15.1462113,15.0323408 15.33,14.85 L15.38,14.79 C15.4282408,14.7170598 15.4621765,14.6356141 15.48,14.55 C15.4958351,14.4305224 15.4958351,14.3094776 15.48,14.19 C15.4670106,13.8541869 15.4972587,13.5180974 15.57,13.19 C15.6063112,12.9561651 15.6806256,12.729844 15.79,12.52 C15.861089,12.3809059 15.9520421,12.2528978 16.06,12.14 C16.1250764,12.0676924 16.1989899,12.003858 16.28,11.95 L16.39,11.9 C16.6529676,11.8480125 16.9248541,11.9262264 17.12,12.11 C17.4143434,12.3251631 17.6798468,12.5772233 17.91,12.86 C18.15,13.15 18.45,13.49 18.79,13.86 C19.0680224,14.1632027 19.3725652,14.4409725 19.7,14.69 L19.96,14.84 C20.1720658,14.9608581 20.396741,15.0581055 20.63,15.13 C20.8619229,15.2064369 21.1086244,15.2269953 21.35,15.19 L24.66,15.14 C24.9259467,15.1511384 25.190506,15.096165 25.43,14.98 C25.5801396,14.9071223 25.6952275,14.7776484 25.75,14.62 C25.7855887,14.4754922 25.7855887,14.3245078 25.75,14.18 C25.732997,14.0636191 25.7028027,13.9495516 25.66,13.84 L25.71,13.8 Z" id="Shape"></path>
        </g>
    </g>
</svg>
