<svg xmlns="http://www.w3.org/2000/svg" viewBox="0 0 24 24"><defs><style>.cls-1{stroke:#b2b2b2;stroke-miterlimit:10;}.cls-2{fill:#009a00;}.cls-3{fill:#fff;}.cls-4{fill:#ce1126;}</style></defs><title>ic_Asset 7</title><g id="Layer_2" data-name="Layer 2"><g id="Layer_1-2" data-name="Layer 1"><path class="cls-1" d="M23.5,12A11.5,11.5,0,1,1,12,.5,11.5,11.5,0,0,1,23.5,12Z"/><path d="M12,23.35a11.35,11.35,0,0,0,10.32-6.62H1.68A11.35,11.35,0,0,0,12,23.35Z"/><path class="cls-2" d="M12,.65A11.37,11.37,0,0,0,1.68,7.27H22.32A11.37,11.37,0,0,0,12,.65Z"/><path class="cls-3" d="M.65,12a11.32,11.32,0,0,0,1,4.73H22.32a11.38,11.38,0,0,0,0-9.46H1.68A11.32,11.32,0,0,0,.65,12Z"/><path class="cls-4" d="M.65,12A11.37,11.37,0,0,0,7.27,22.32V1.68A11.37,11.37,0,0,0,.65,12Z"/></g></g></svg>