<svg xmlns="http://www.w3.org/2000/svg" viewBox="0 0 24 24"><g data-name="Layer 2"><g data-name="Layer 1"><path d="M23.5 12A11.5 11.5 0 1 1 12 .5 11.5 11.5 0 0 1 23.5 12z" stroke="#b2b2b2" stroke-miterlimit="10"/><path d="M12 23.35a11.35 11.35 0 0 0 10.32-6.62H1.68A11.35 11.35 0 0 0 12 23.35z"/><path d="M12 .65A11.37 11.37 0 0 0 1.68 7.27h20.64A11.37 11.37 0 0 0 12 .65z" fill="#009a00"/><path d="M.65 12a11.32 11.32 0 0 0 1 4.73h20.67a11.38 11.38 0 0 0 0-9.46H1.68A11.32 11.32 0 0 0 .65 12z" fill="#fff"/><path d="M.65 12a11.37 11.37 0 0 0 6.62 10.32V1.68A11.37 11.37 0 0 0 .65 12z" fill="#ce1126"/></g></g></svg>