<svg xmlns="http://www.w3.org/2000/svg" viewBox="0 0 24 24"><defs><style>.cls-3{fill:#ffde00}</style></defs><g id="Layer_2" data-name="Layer 2"><g id="Layer_1-2" data-name="Layer 1"><path d="M23.5 12A11.5 11.5 0 1 1 12 .5 11.5 11.5 0 0 1 23.5 12z" stroke="#b2b2b2" stroke-miterlimit="10"/><path d="M23.35 12A11.35 11.35 0 1 1 12 .65 11.35 11.35 0 0 1 23.35 12z" fill="#de2910"/><path class="cls-3" d="M5.71 5.13l.74 2.27h2.38L6.9 8.79l.73 2.27-1.92-1.4-1.92 1.4.73-2.27L2.6 7.4h2.38l.73-2.27zM11.91 3.95l-.05.79.73.29-.76.19-.05.78-.42-.66-.76.19.5-.6-.41-.66.72.29.5-.61zM14.58 6.49l-.35.69.55.56-.77-.12-.36.69-.12-.77-.78-.12.7-.36-.12-.77.55.55.7-.35zM13.78 9.66l.24.74.78.01-.63.46.24.74-.63-.46-.64.46.25-.74-.64-.47.79.01.24-.75zM11.91 12.05l-.05.78.72.29-.76.19-.05.79-.42-.67-.75.2.5-.61-.42-.66.73.29.5-.6z"/></g></g></svg>