<svg xmlns="http://www.w3.org/2000/svg" viewBox="0 0 24 24"><defs><style>.cls-2{fill:#fff}.cls-3{fill:#bf0a30}</style></defs><g id="Слой_2" data-name="Слой 2"><g id="Layer_1" data-name="Layer 1"><circle cx="12" cy="12" r="11.5" fill="#b2b2b2" stroke="#b2b2b2" stroke-miterlimit="10"/><path class="cls-2" d="M1 14.62h22a11.31 11.31 0 0 0 .27-1.75H.69A11.43 11.43 0 0 0 1 14.62zM2.44 18.11h19.12a11.4 11.4 0 0 0 .92-1.75h-21a11.4 11.4 0 0 0 .96 1.75zM6 21.6h12a11.35 11.35 0 0 0 2.14-1.75H3.82A11.36 11.36 0 0 0 6 21.6zM18 2.4H6a11.31 11.31 0 0 0-2.18 1.74h16.36A11.3 11.3 0 0 0 18 2.4z"/><path class="cls-3" d="M1.52 16.36h21a11.26 11.26 0 0 0 .48-1.74H1a11.37 11.37 0 0 0 .52 1.74zM3.82 19.86h16.36a11.37 11.37 0 0 0 1.38-1.75H2.44a11.45 11.45 0 0 0 1.38 1.75zM12 23.35a11.29 11.29 0 0 0 6-1.75H6a11.29 11.29 0 0 0 6 1.75zM1 9.38h22a11.31 11.31 0 0 0-.56-1.75h-21A11.31 11.31 0 0 0 1 9.38zM.65 12v.87h22.66V12v-.87H.69c-.02.28-.04.58-.04.87zM3.82 4.14a11.34 11.34 0 0 0-1.38 1.75h19.12a11.3 11.3 0 0 0-1.38-1.75zM12 .65A11.29 11.29 0 0 0 6 2.4h12a11.29 11.29 0 0 0-6-1.75z"/><path class="cls-2" d="M.69 11.13h22.62A11.34 11.34 0 0 0 23 9.38H1a11.38 11.38 0 0 0-.31 1.75zM1.52 7.64h21a11.35 11.35 0 0 0-.92-1.75H2.44a11.33 11.33 0 0 0-.92 1.75z"/><path d="M12 .65A11.35 11.35 0 0 0 .65 12v.89H12z" fill="#002868"/><path class="cls-2" d="M1.34 8.09v.13zM1.22 8.45l-.11.37.12-.36zM1.77 12.23l-.34-.24-.34.24.13-.39-.33-.25h.41l.13-.39.13.39h.41l-.33.25.13.39zM3.29 10.53l-.34-.25-.33.25.12-.4-.33-.24h.41l.13-.39.13.39h.41l-.33.24.13.4zM3.19 6.67l.13.4-.34-.25-.33.25.12-.4-.33-.24h.41l.13-.39.13.39h.41l-.33.24zM4.87 12.23l-.34-.24-.33.24.13-.39-.34-.25h.42l.12-.39.13.39h.42l-.34.25.13.39zM4.89 8.35l-.15.11.13.39-.34-.24-.33.24.13-.39-.15-.11-.19-.14h.42l.12-.39.13.39h.42l-.19.14zM4.74 4.92l.13.39-.34-.24-.33.24.13-.39-.34-.25h.42l.12-.39.13.39h.42l-.34.25zM6.39 10.65l-.34-.24-.33.24.13-.39-.34-.25h.41l.13-.39.13.39h.42l-.34.25.13.39zM6.29 6.8l.13.39-.34-.24-.33.24.13-.39-.34-.25h.42l.12-.39.13.39h.42l-.34.25zM6.32 3.29l.13.4-.33-.24-.34.24.13-.4-.34-.24h.42l.13-.39.12.39h.42l-.34.24zM7.97 12.23l-.33-.24-.34.24.13-.39-.34-.25h.42l.13-.39.12.39h.42l-.34.25.13.39zM7.99 8.35l-.15.11.13.39-.33-.24-.34.24.13-.39-.15-.11-.19-.14h.42l.13-.39.12.39h.42l-.19.14zM7.84 4.92l.13.39-.33-.24-.34.24.13-.39-.34-.25h.42l.13-.39.12.39h.42l-.34.25zM9.49 10.65l-.33-.24-.34.24.13-.39-.34-.25h.42l.13-.39.13.39h.41l-.34.25.13.39zM9.4 6.8l.12.39-.33-.24-.34.24.13-.39-.34-.25h.42l.13-.39.13.39h.41l-.33.25zM9.43 3.29l.12.4-.33-.24-.34.24.13-.4-.33-.24h.41l.13-.39.13.39h.41l-.33.24zM11.08 12.23l-.34-.24-.34.24.13-.39-.33-.25h.41l.13-.39.13.39h.41l-.33.25.13.39zM11.1 8.35l-.15.11.13.39-.34-.24-.34.24.13-.39-.15-.11-.18-.14h.41l.13-.39.13.39h.41l-.18.14zM10.95 4.92l.13.39-.34-.24-.34.24.13-.39-.33-.25h.41l.13-.39.13.39h.41l-.33.25zM10.95 1.45l.13.4-.34-.25-.34.25.13-.4-.33-.24h.41l.13-.39.13.39h.41l-.33.24zM7.64 1.6l.36.25-.13-.39-.52.22-.07.21z"/><path class="cls-2" d="M7.64 4.28l-.13.39h-.42l.34.25-.13.39.34-.24.33.24-.13-.39.34-.25h-.42l-.12-.39zM7.64 7.82l-.13.39h-.42l.19.14.15.11-.13.39.34-.24.33.24-.13-.39.15-.11.19-.14h-.42l-.12-.39zM7.76 11.59l-.12-.39-.13.39h-.42l.34.25-.13.39.34-.24.33.24-.13-.39.34-.25h-.42zM4.53 4.28l-.12.39h-.42l.34.25-.13.39.33-.24.34.24-.13-.39.34-.25h-.42l-.13-.39zM4.53 7.82l-.12.39h-.42l.19.14.15.11-.13.39.33-.24.34.24-.13-.39.15-.11.19-.14h-.42l-.13-.39zM4.66 11.59l-.13-.39-.12.39h-.42l.34.25-.13.39.33-.24.34.24-.13-.39.34-.25h-.42zM1.1 8.85zM1.43 7.82l-.09.27.1-.24z"/><path class="cls-2" d="M1.77 8.85l-.13-.4.15-.11.21-.13h-.44l-.12-.37-.1.24v.13l-.08.24-.12.36.33-.24zM1.56 11.59l-.13-.39-.13.39H.89l.33.25-.13.39.34-.24.34.24-.13-.39.33-.25h-.41zM9.19 6.16l-.13.39h-.42l.34.25-.13.39.34-.24.33.24-.12-.39.33-.25h-.41l-.13-.39zM9.29 10.01l-.13-.39-.13.39h-.42l.34.25-.13.39.34-.24.33.24-.13-.39.34-.25h-.41zM6.08 6.16l-.12.39h-.42l.34.25-.13.39.33-.24.34.24-.13-.39.34-.25h-.42l-.13-.39zM6.18 10.01l-.13-.39-.13.39h-.41l.34.25-.13.39.33-.24.34.24-.13-.39.34-.25h-.42zM2.98 6.04l-.13.39h-.41l.33.24-.12.4.33-.25.34.25-.13-.4.33-.24h-.41l-.13-.39zM3.08 9.89l-.13-.39-.13.39h-.41l.33.24-.12.4.33-.25.34.25-.13-.4.33-.24h-.41zM10.74 4.28l-.13.39h-.41l.33.25-.13.39.34-.24.34.24-.13-.39.33-.25h-.41l-.13-.39zM6.12 2.66l-.13.39h-.42l.34.24-.13.4.34-.24.33.24-.13-.4.34-.24h-.42l-.12-.39zM9.22 2.66l-.13.39h-.41l.33.24-.13.4.34-.24.33.24-.12-.4.33-.24h-.41l-.13-.39zM10.74.82l-.13.39h-.41l.33.24-.13.4.34-.25.34.25-.13-.4.33-.24h-.41l-.13-.39zM10.74 7.82l-.13.39h-.41l.18.14.15.11-.13.39.34-.24.34.24-.13-.39.15-.11.18-.14h-.41l-.13-.39zM10.87 11.59l-.13-.39-.13.39h-.41l.33.25-.13.39.34-.24.34.24-.13-.39.33-.25h-.41z"/></g></g></svg>