<svg id="Режим_изоляции" xmlns="http://www.w3.org/2000/svg" viewBox="0 0 24 24"><style>.st4{fill:#000064}</style><path d="M23.5 12c0 6.4-5.1 11.5-11.5 11.5S.5 18.4.5 12 5.6.5 12 .5 23.5 5.6 23.5 12z" fill="#b2b2b2" stroke="#b2b2b2" stroke-miterlimit="10"/><path d="M12 23.3c4.6 0 8.5-2.7 10.3-6.6H1.7c1.8 3.9 5.7 6.6 10.3 6.6z" fill="#4e8623"/><path d="M12 .7C7.4.7 3.5 3.4 1.7 7.3h20.6C20.5 3.4 16.6.7 12 .7z" fill="#e6973e"/><path d="M.7 12c0 1.7.4 3.3 1 4.7h20.6c.7-1.4 1-3 1-4.7 0-1.7-.4-3.3-1-4.7H1.7c-.7 1.4-1 3-1 4.7z" fill="#fff"/><path class="st4" d="M15.3 10.8c-.1 0-.2 0-.2-.1s0-.2.1-.2.2 0 .2.1 0 .2-.1.2zM15.5 11.7c-.1 0-.2-.1-.2-.2s.1-.2.2-.2.2.1.2.2-.1.2-.2.2zM15.5 12.6c-.1 0-.1-.1-.1-.2s.1-.1.2-.1.1.1.1.2c-.1.1-.2.1-.2.1zM15.2 13.5c-.1 0-.1-.1-.1-.2s.1-.1.2-.1.1.1.1.2-.1.1-.2.1z"/><path class="st4" d="M15.3 10.8c-.1 0-.2 0-.2-.1s0-.2.1-.2.2 0 .2.1 0 .2-.1.2zM15.5 11.7c-.1 0-.2-.1-.2-.2s.1-.2.2-.2.2.1.2.2-.1.2-.2.2zM15.5 12.6c-.1 0-.1-.1-.1-.2s.1-.1.2-.1.1.1.1.2c-.1.1-.2.1-.2.1zM15.2 13.5c-.1 0-.1-.1-.1-.2s.1-.1.2-.1.1.1.1.2-.1.1-.2.1zM11.7 8.5c0 .1-.1.2-.2.2s-.2-.1-.2-.2.1-.2.2-.2.2.1.2.2zM12.6 8.5c0 .1-.1.1-.2.1s-.1-.1-.1-.2.1-.1.2-.1c.1.1.1.2.1.2zM13.5 8.8c0 .1-.1.1-.2.1s-.1-.1-.1-.2.1-.1.2-.1.1.1.1.2zM14.2 9.3c-.1.1-.2.1-.2 0-.1-.1-.1-.2 0-.2.1-.1.2-.1.2 0 .1 0 .1.1 0 .2zM14.9 10c-.1 0-.2 0-.2-.1s0-.2.1-.2.2 0 .2.1c0 0-.1.1-.1.2zM14.7 14.2c-.1-.1-.1-.2 0-.2.1-.1.2-.1.2 0 .1.1.1.2 0 .2 0 .1-.1.1-.2 0zM14 14.9c0-.1 0-.2.1-.2s.2 0 .2.1 0 .2-.1.2c0 0-.1-.1-.2-.1zM13.2 15.3c0-.1 0-.2.1-.2s.2 0 .2.1 0 .2-.1.2-.2 0-.2-.1zM12.3 15.5c0-.1.1-.2.2-.2s.2.1.2.2-.1.2-.2.2-.2-.1-.2-.2zM11.4 15.5c0-.1.1-.1.2-.1s.1.1.1.2-.1.1-.2.1c-.1-.1-.1-.2-.1-.2zM10.5 15.2c0-.1.1-.1.2-.1s.1.1.1.2-.1.1-.2.1-.1-.1-.1-.2zM9.8 14.7c.1-.1.2-.1.2 0 .1.1.1.2 0 .2-.1.1-.2.1-.2 0-.1 0-.1-.1 0-.2zM9.1 14c.1 0 .2 0 .2.1s0 .2-.1.2-.2 0-.2-.1c0 0 .1-.1.1-.2zM8.7 13.2c.1 0 .2 0 .2.1s0 .2-.1.2-.2 0-.2-.1 0-.2.1-.2zM8.5 12.3c.1 0 .2.1.2.2s-.1.2-.2.2-.2-.1-.2-.2.1-.2.2-.2zM8.5 11.4c.1 0 .1.1.1.2s-.1.1-.2.1-.1-.1-.1-.2c.1-.1.2-.1.2-.1zM8.8 10.5c.1 0 .1.1.1.2s-.1.1-.2.1-.1-.1-.1-.2.1-.1.2-.1zM9.3 9.8c.1.1.1.2 0 .2-.1.1-.2.1-.2 0-.1-.1-.1-.2 0-.2 0-.1.1-.1.2 0zM10 9.1c0 .1 0 .2-.1.2s-.2 0-.2-.1 0-.2.1-.2c0 0 .1.1.2.1zM10.8 8.7c0 .1 0 .2-.1.2s-.2 0-.2-.1 0-.2.1-.2.2 0 .2.1zM11.9 12l.1-1.4-.1-2.1-.1 2.1zM11.9 12l.5-1.3.4-2.1-.6 2zM11.9 12l.8-1.2 1-1.8-1.2 1.7zM11.9 12l1.1-.9 1.4-1.6-1.6 1.4zM11.9 12l1.3-.6 1.7-1.2-1.8 1zM11.9 12l1.4-.3 2-.6-2.1.4zM11.9 12l1.4.1 2.1-.1-2.1-.1zM11.9 12l1.3.4 2.1.5-2-.7zM11.9 12l1.2.8 1.9.9-1.8-1.1zM11.9 12l.9 1 1.6 1.5-1.4-1.6zM11.9 12l.6 1.2 1.2 1.8-1-1.9zM11.9 12l.3 1.4.6 2-.4-2.1zM11.9 12l-.1 1.4.1 2.1.1-2.1zM11.9 12l-.4 1.3-.5 2.1.7-2zM11.9 12l-.8 1.1-.9 1.9 1.1-1.8zM11.9 12l-1 .9-1.4 1.6 1.5-1.4zM11.9 12l-1.2.6-1.8 1.1 1.9-.9zM11.9 12l-1.3.3-2 .6 2-.4zM11.9 12l-1.4-.1-2.1.1 2.1.1zM11.9 12l-1.3-.5-2.1-.4 2.1.6zM11.9 12l-1.1-.8-1.9-1 1.8 1.2zM11.9 12l-.9-1.1-1.6-1.4 1.5 1.6zM11.9 12l-.6-1.3L10.2 9l.9 1.8zM11.9 12l-.2-1.4-.7-2 .5 2.1z"/><g><path class="st4" d="M13 8.2c-2.1-.6-4.3.7-4.8 2.8-.6 2.1.7 4.3 2.8 4.9 2.1.6 4.3-.7 4.9-2.8.5-2.2-.8-4.4-2.9-4.9zm-1.9 7.2c-1.9-.5-3-2.4-2.5-4.3s2.4-3 4.3-2.5 3 2.4 2.5 4.3-2.4 3-4.3 2.5z"/><path class="st4" d="M12.7 12.2c-.1.4-.5.6-.9.5-.4-.1-.6-.5-.5-.9.1-.4.5-.6.9-.5.4.1.6.5.5.9z"/></g><path class="st4" d="M13.5 8.8c0 .1-.1.1-.2.1s-.1-.1-.1-.2.1-.1.2-.1.1.1.1.2zM14.2 9.3c-.1.1-.2.1-.2 0-.1-.1-.1-.2 0-.2.1-.1.2-.1.2 0 .1 0 .1.1 0 .2zM14.9 10c-.1 0-.2 0-.2-.1s0-.2.1-.2.2 0 .2.1c0 0-.1.1-.1.2zM14.7 14.2c-.1-.1-.1-.2 0-.2.1-.1.2-.1.2 0 .1.1.1.2 0 .2 0 .1-.1.1-.2 0zM14 14.9c0-.1 0-.2.1-.2s.2 0 .2.1 0 .2-.1.2c0 0-.1-.1-.2-.1zM13.2 15.3c0-.1 0-.2.1-.2s.2 0 .2.1 0 .2-.1.2-.2 0-.2-.1zM12.3 15.5c0-.1.1-.2.2-.2s.2.1.2.2-.1.2-.2.2-.2-.1-.2-.2zM11.4 15.5c0-.1.1-.1.2-.1s.1.1.1.2-.1.1-.2.1c-.1-.1-.1-.2-.1-.2zM10.5 15.2c0-.1.1-.1.2-.1s.1.1.1.2-.1.1-.2.1-.1-.1-.1-.2zM9.8 14.7c.1-.1.2-.1.2 0 .1.1.1.2 0 .2-.1.1-.2.1-.2 0-.1 0-.1-.1 0-.2zM9.1 14c.1 0 .2 0 .2.1s0 .2-.1.2-.2 0-.2-.1c0 0 .1-.1.1-.2zM8.7 13.2c.1 0 .2 0 .2.1s0 .2-.1.2-.2 0-.2-.1 0-.2.1-.2zM8.5 12.3c.1 0 .2.1.2.2s-.1.2-.2.2-.2-.1-.2-.2.1-.2.2-.2zM8.5 11.4c.1 0 .1.1.1.2s-.1.1-.2.1-.1-.1-.1-.2c.1-.1.2-.1.2-.1zM8.8 10.5c.1 0 .1.1.1.2s-.1.1-.2.1-.1-.1-.1-.2.1-.1.2-.1zM9.3 9.8c.1.1.1.2 0 .2-.1.1-.2.1-.2 0-.1-.1-.1-.2 0-.2 0-.1.1-.1.2 0zM10 9.1c0 .1 0 .2-.1.2s-.2 0-.2-.1 0-.2.1-.2c0 0 .1.1.2.1zM10.8 8.7c0 .1 0 .2-.1.2s-.2 0-.2-.1 0-.2.1-.2.2 0 .2.1zM11.7 8.5c0 .1-.1.2-.2.2s-.2-.1-.2-.2.1-.2.2-.2.2.1.2.2z"/></svg>