<svg xmlns="http://www.w3.org/2000/svg" viewBox="0 0 24 24"><g data-name="Layer 2"><g data-name="Layer 1"><path d="M23.5 12A11.5 11.5 0 1 1 12 .5 11.5 11.5 0 0 1 23.5 12z" stroke="#b2b2b2" stroke-miterlimit="10"/><path d="M23.35 12A11.35 11.35 0 1 1 12 .65 11.35 11.35 0 0 1 23.35 12z" fill="#fff"/><path d="M16.49 11.71a4.51 4.51 0 1 1-4.9-4.08 4.51 4.51 0 0 1 4.9 4.08z" fill="#ce1126"/><path d="M8.15 9.79A2.25 2.25 0 1 0 12 12.13a2.25 2.25 0 1 1 3.85 2.33 4.5 4.5 0 0 1-7.7-4.67z" fill="#003f87"/><path d="M2.417 8.488L4.945 4.74l.589.397-2.528 3.747zM3.323 9.095l2.535-3.742.588.398L3.91 9.494zM4.226 9.713l2.526-3.748.58.392-2.526 3.748zM18.016 15.877l1.17-1.732.588.398-1.17 1.732zM16.667 17.896l1.164-1.735.581.39-1.164 1.735zM18.919 16.488l1.173-1.73.587.398-1.173 1.73zM17.555 18.5l1.171-1.73.588.397-1.171 1.731zM19.82 17.096l1.17-1.733.58.391-1.169 1.733zM18.465 19.108l1.168-1.733.589.397-1.168 1.733zM17.568 5.737l.59-.396 2.52 3.752-.59.396zM18.466 5.141l.588-.397 1.171 1.73-.588.399zM20.99 8.89l.58-.4-1.16-1.74-.59.4 1.17 1.74zM16.664 6.352l.58-.391L18.42 7.7l-.58.392zM19.19 10.1l.58-.39-1.17-1.74-.58.4 1.17 1.73zM4.225 14.534l.58-.39 2.52 3.753-.58.39zM2.426 15.753l.58-.392 2.53 3.746-.581.392zM3.329 15.152l.588-.398 1.171 1.73-.588.399zM5.85 18.89l.59-.39-1.17-1.74-.59.39 1.17 1.74z"/></g></g></svg>