<svg xmlns="http://www.w3.org/2000/svg" viewBox="0 0 24 24"><defs><style>.cls-1{fill:#b2b2b2;stroke:#b2b2b2;stroke-miterlimit:10;}.cls-2{fill:#00a1cc;}.cls-3{fill:#fec91b;}</style></defs><title>Ресурс 1</title><g id="Слой_2" data-name="Слой 2"><g id="Режим_изоляции" data-name="Режим изоляции"><circle class="cls-1" cx="12" cy="12" r="11.5"/><ellipse class="cls-2" cx="12" cy="12.01" rx="11.35" ry="11.3"/><path class="cls-3" d="M6.45,11a0,0,0,0,1,.07,0,.66.66,0,0,1,.12.17c.18.34.31.69.46,1,0-.14,0-.29,0-.43a2,2,0,0,1,0-.39.1.1,0,0,1,.15-.05.84.84,0,0,1,0,.13,4.54,4.54,0,0,0,.43,1.46A4.88,4.88,0,0,0,9.34,14.8a4.69,4.69,0,0,0,2.6.78c.07,0,.1.09,0,.12a.32.32,0,0,0-.15.09,1,1,0,0,1-.27.21.49.49,0,0,0-.12-.14A.94.94,0,0,0,11,15.7a4.27,4.27,0,0,0-.51-.07h-.34a.13.13,0,0,1-.1,0,5.11,5.11,0,0,0-.92-.71A.44.44,0,0,0,9,14.82a.35.35,0,0,1-.14,0,.52.52,0,0,1-.14-.11A3.77,3.77,0,0,1,8.2,14a2.8,2.8,0,0,0-.4-.49,2.54,2.54,0,0,0-.41-.34l0,.06a.29.29,0,0,0-.2,0,.59.59,0,0,0,.08.25s.08.07.12.11,0,.1,0,.11a1.68,1.68,0,0,0-.2,0A.6.6,0,0,0,7.4,14a.92.92,0,0,1,.19.14s0,.07,0,.07H7.4a.24.24,0,0,0,.08.09,3.28,3.28,0,0,0,.43.19l.06,0a0,0,0,0,1,0,0l-.13,0c.05.07.15.08.21.14a0,0,0,0,1,0,.07l-.15.06c.1.1.26.12.38.19a0,0,0,0,1,0,.06l-.12.07a.21.21,0,0,0,.16.07.58.58,0,0,1,.23,0,.07.07,0,0,1,0,.11s-.11.07-.16.11a3.59,3.59,0,0,0,.38.19,4.09,4.09,0,0,0,.76.27,2.52,2.52,0,0,0,.67.05.37.37,0,0,1,.13,0s0,.06-.06.07a1,1,0,0,1-.34.07A2.87,2.87,0,0,1,9,16.07a5.79,5.79,0,0,1-1.11-.46.35.35,0,0,1-.11-.08s0-.05,0-.06a.6.6,0,0,1,.14,0c-.15-.05-.31,0-.47-.09a.14.14,0,0,1-.08-.05.08.08,0,0,1,0-.1,1.59,1.59,0,0,1,.2,0,.78.78,0,0,0-.2-.06A.79.79,0,0,1,7.24,15a.11.11,0,0,1-.05-.1.11.11,0,0,1,.09,0,1.61,1.61,0,0,0,.26,0l-.07,0a3.72,3.72,0,0,1-.43-.1.21.21,0,0,1-.13-.12.06.06,0,0,1,0-.06s.05,0,.08,0,.23,0,.35,0a.19.19,0,0,0-.11-.09,1.31,1.31,0,0,1-.31-.14,2.38,2.38,0,0,1-.43-.34.57.57,0,0,1-.14-.2s0-.08,0-.1a.16.16,0,0,1,.13,0,4.1,4.1,0,0,1,.48.22,9.24,9.24,0,0,1-.8-.75.88.88,0,0,1-.21-.35v0a.19.19,0,0,1,0-.06.1.1,0,0,1,.09,0,1.1,1.1,0,0,1,.16.12c.17.15.34.31.52.46a.6.6,0,0,0,.2.12,1.27,1.27,0,0,0-.12-.2c-.2-.28-.39-.57-.56-.87A2.38,2.38,0,0,1,6,11.63a.39.39,0,0,1,0-.29c.05,0,.08.05.11.09.24.35.42.74.67,1.09a.59.59,0,0,0,.17.18.6.6,0,0,0,0-.13c-.14-.39-.3-.76-.42-1.16a1.86,1.86,0,0,1-.08-.35.19.19,0,0,1,0-.11Z"/><path class="cls-3" d="M13.69,16.41a.09.09,0,0,1,.1,0l.26,0c.35,0,.71,0,1.06.06.12,0,.24,0,.35,0s0,0,0,0a.32.32,0,0,1-.17.33.93.93,0,0,1-.52.07.38.38,0,0,1,0,.2.23.23,0,0,1-.16.08.79.79,0,0,1-.35,0,.35.35,0,0,1-.18.16.28.28,0,0,1-.21,0,.53.53,0,0,1-.31.16.94.94,0,0,1-.18,0,.64.64,0,0,1-.24.13.27.27,0,0,1-.2-.07.82.82,0,0,1-.24.13h-.08a.21.21,0,0,1-.13-.12.52.52,0,0,1-.18.07.46.46,0,0,1-.23,0s-.06,0-.08,0a.71.71,0,0,1-.28,0,.19.19,0,0,1-.11-.07.47.47,0,0,1-.23.08.24.24,0,0,1-.17-.05.12.12,0,0,1,0-.15.89.89,0,0,1,.16-.14l.27-.22a.08.08,0,0,1,.06,0,3.37,3.37,0,0,0,.94,0,2.12,2.12,0,0,0,.51-.17.24.24,0,0,1,.12,0h.21a.29.29,0,0,1,0-.08l.08,0a.2.2,0,0,0,.08-.09,1,1,0,0,0,0-.14Z"/><path class="cls-3" d="M17.67,12.46a2.84,2.84,0,0,0,.36-.7.76.76,0,0,0,0-.23.19.19,0,0,0,0-.1.05.05,0,0,0-.05,0,.57.57,0,0,0-.09.11c-.29.42-.53.87-.83,1.28a.58.58,0,0,1-.18.18,2.13,2.13,0,0,1,.1-.28c.18-.42.36-.84.51-1.27a1.6,1.6,0,0,0,.09-.36s0-.11-.05-.12-.08,0-.11.08a3.52,3.52,0,0,0-.21.42c-.11.25-.22.5-.34.74,0-.27,0-.54,0-.81a.18.18,0,0,0,0-.11.11.11,0,0,0-.13,0,.28.28,0,0,0,0,.1,4.15,4.15,0,0,1-.8,2.08,5.39,5.39,0,0,1-1.39,1.32,4.86,4.86,0,0,1-2,.79,1.21,1.21,0,0,0-.38.12,5.29,5.29,0,0,0-.46.29,2.09,2.09,0,0,1-.42.23,2.53,2.53,0,0,0-.57.24,1.41,1.41,0,0,0-.38.38.23.23,0,0,0,0,.21s0,.09.09.08,0-.1.07-.14a0,0,0,0,1,0,0l.05,0c.06,0,.12,0,.17-.06h.15l1.62-.07a.62.62,0,0,0,.35-.09s0,0,0,0a.09.09,0,0,0-.07,0c-.08,0-.17,0-.25,0-.4,0-.79,0-1.19,0,0,0-.07,0-.05,0s.17-.19.24-.28h-.22c-.06,0-.12.07-.19.06a.67.67,0,0,1,.14-.1c.23-.14.47-.25.72-.37a2.34,2.34,0,0,1,.31-.13,6.56,6.56,0,0,1,.88-.19l.49,0c.05,0,.12,0,.16,0a2.37,2.37,0,0,1,.88-.63l.47-.17a1.1,1.1,0,0,0,.22-.23c.11-.15.2-.31.3-.47a2.5,2.5,0,0,1,.54-.63.71.71,0,0,1,.24-.14l0,.09a.36.36,0,0,1,.16-.08,1.58,1.58,0,0,1-.15.43s0,.09,0,.11a.58.58,0,0,0,.2,0c0,.15-.18.24-.29.35s-.05.07,0,.09a1,1,0,0,0,.16,0,.23.23,0,0,1-.08.1c-.12.09-.27.15-.4.22s-.05,0,0,.07l.09.07c-.09.07-.2.11-.3.17s0,0,0,.06,0,.06.06.08a.88.88,0,0,1-.28.09.09.09,0,0,0-.08,0s0,.08,0,.13a.14.14,0,0,1-.07.07s-.09,0-.13,0a.07.07,0,0,0,0,.09,1.22,1.22,0,0,0,.08.12l-.14,0a1.34,1.34,0,0,0-.3.15.7.7,0,0,1-.22.07l-.36.08A3.87,3.87,0,0,0,14,16s-.06,0-.06,0,.05,0,.08,0a4.06,4.06,0,0,0,.76-.07,6.12,6.12,0,0,0,.82-.18l.37-.12s.1,0,.12-.09a.07.07,0,0,0,0-.06l-.18-.06a.47.47,0,0,1,.2,0,1.17,1.17,0,0,0,.34-.06.07.07,0,0,0,0-.12c-.06,0-.14,0-.21-.07a2,2,0,0,1,.31-.06.53.53,0,0,0,.24-.09s0-.09,0-.1-.14,0-.21,0a.17.17,0,0,1,.07-.05,2.85,2.85,0,0,0,.38-.14.17.17,0,0,0,.09-.14s0-.05-.06-.05-.16,0-.24,0a.82.82,0,0,1,.16-.09,1.91,1.91,0,0,0,.28-.18,2.67,2.67,0,0,0,.28-.24.54.54,0,0,0,.14-.19.09.09,0,0,0,0-.11.16.16,0,0,0-.12,0,2.38,2.38,0,0,0-.3.17A.76.76,0,0,1,17,14s0-.08.07-.11l.44-.41a3.88,3.88,0,0,0,.39-.43.51.51,0,0,0,.1-.22.09.09,0,0,0-.07-.11.39.39,0,0,0-.19.09c-.2.15-.37.32-.56.48a.48.48,0,0,1-.17.1,1.84,1.84,0,0,1,.17-.24C17.34,12.95,17.51,12.71,17.67,12.46ZM11,16.73a.21.21,0,0,1-.14.08s-.07,0-.1,0a.08.08,0,0,1,0-.1.2.2,0,0,1,.14-.08s.07,0,.1,0S11,16.7,11,16.73Z"/><path class="cls-3" d="M12,7.52c-.14,0-.21-.08-.21-.22A7.87,7.87,0,0,1,12,6.42a7.92,7.92,0,0,1,.21.88C12.23,7.44,12.16,7.52,12,7.52Z"/><path class="cls-3" d="M11.44,7.57a.19.19,0,0,1-.25-.18,8.15,8.15,0,0,1,0-.9,7.92,7.92,0,0,1,.38.82A.19.19,0,0,1,11.44,7.57Z"/><path class="cls-3" d="M10.89,7.74a.19.19,0,0,1-.28-.12,7.9,7.9,0,0,1-.14-.89,7.77,7.77,0,0,1,.53.73A.19.19,0,0,1,10.89,7.74Z"/><path class="cls-3" d="M10.38,8a.2.2,0,0,1-.3-.07,7.88,7.88,0,0,1-.31-.85,7.56,7.56,0,0,1,.66.61A.19.19,0,0,1,10.38,8Z"/><path class="cls-3" d="M9.93,8.38a.2.2,0,0,1-.31,0,8,8,0,0,1-.47-.77,8.21,8.21,0,0,1,.77.47A.19.19,0,0,1,9.93,8.38Z"/><path class="cls-3" d="M9.56,8.82a.19.19,0,0,1-.3.05,8.31,8.31,0,0,1-.62-.66,7.6,7.6,0,0,1,.85.31A.19.19,0,0,1,9.56,8.82Z"/><path class="cls-3" d="M9.29,9.33A.2.2,0,0,1,9,9.44a8,8,0,0,1-.73-.53,7.91,7.91,0,0,1,.9.14A.19.19,0,0,1,9.29,9.33Z"/><path class="cls-3" d="M9.12,9.88a.2.2,0,0,1-.26.16A7.75,7.75,0,0,1,8,9.67a8.13,8.13,0,0,1,.9,0A.19.19,0,0,1,9.12,9.88Z"/><path class="cls-3" d="M9.06,10.45c0,.14-.08.21-.23.21A8,8,0,0,1,8,10.45a8.09,8.09,0,0,1,.88-.21C9,10.24,9.06,10.31,9.06,10.45Z"/><path class="cls-3" d="M9.12,11c0,.14,0,.22-.18.25a8,8,0,0,1-.9,0,8.39,8.39,0,0,1,.82-.38A.2.2,0,0,1,9.12,11Z"/><path class="cls-3" d="M9.28,11.58a.19.19,0,0,1-.12.28,8.23,8.23,0,0,1-.9.14A8.31,8.31,0,0,1,9,11.47.19.19,0,0,1,9.28,11.58Z"/><path class="cls-3" d="M9.55,12.09a.19.19,0,0,1-.07.3,7.55,7.55,0,0,1-.85.31A8,8,0,0,1,9.25,12,.19.19,0,0,1,9.55,12.09Z"/><path class="cls-3" d="M9.92,12.53a.19.19,0,0,1,0,.31,7.83,7.83,0,0,1-.77.47,8.26,8.26,0,0,1,.47-.77A.2.2,0,0,1,9.92,12.53Z"/><path class="cls-3" d="M10.37,12.9a.19.19,0,0,1,0,.3,7.73,7.73,0,0,1-.67.61,8,8,0,0,1,.31-.85A.2.2,0,0,1,10.37,12.9Z"/><path class="cls-3" d="M10.88,13.17a.19.19,0,0,1,.11.29,7.89,7.89,0,0,1-.53.73,8.17,8.17,0,0,1,.14-.89A.19.19,0,0,1,10.88,13.17Z"/><path class="cls-3" d="M11.43,13.34a.19.19,0,0,1,.16.26,8.19,8.19,0,0,1-.38.82,8,8,0,0,1,0-.9A.19.19,0,0,1,11.43,13.34Z"/><path class="cls-3" d="M12,13.4c.14,0,.21.08.21.22a8,8,0,0,1-.21.88,7.92,7.92,0,0,1-.21-.88C11.8,13.48,11.87,13.4,12,13.4Z"/><path class="cls-3" d="M12.58,13.34a.19.19,0,0,1,.25.18,8,8,0,0,1,0,.9,8,8,0,0,1-.38-.82A.19.19,0,0,1,12.58,13.34Z"/><path class="cls-3" d="M13.14,13.18a.19.19,0,0,1,.28.13,8.17,8.17,0,0,1,.14.89,8.27,8.27,0,0,1-.53-.73A.19.19,0,0,1,13.14,13.18Z"/><path class="cls-3" d="M13.65,12.9a.19.19,0,0,1,.3.07,8,8,0,0,1,.31.85,8.12,8.12,0,0,1-.67-.61A.19.19,0,0,1,13.65,12.9Z"/><path class="cls-3" d="M14.1,12.54a.19.19,0,0,1,.31,0,8.25,8.25,0,0,1,.47.77,7.94,7.94,0,0,1-.77-.47A.19.19,0,0,1,14.1,12.54Z"/><path class="cls-3" d="M14.47,12.09a.19.19,0,0,1,.3,0,7.55,7.55,0,0,1,.62.66,8.4,8.4,0,0,1-.85-.31A.19.19,0,0,1,14.47,12.09Z"/><path class="cls-3" d="M14.74,11.59a.2.2,0,0,1,.29-.11,8.19,8.19,0,0,1,.73.53,8.32,8.32,0,0,1-.9-.14A.19.19,0,0,1,14.74,11.59Z"/><path class="cls-3" d="M14.91,11a.19.19,0,0,1,.26-.16,7.68,7.68,0,0,1,.82.38,8.2,8.2,0,0,1-.91,0A.19.19,0,0,1,14.91,11Z"/><path class="cls-3" d="M15,10.46c0-.14.08-.21.23-.21a8,8,0,0,1,.88.21,8,8,0,0,1-.88.21C15,10.67,15,10.6,15,10.46Z"/><path class="cls-3" d="M14.91,9.89a.19.19,0,0,1,.18-.25,8.09,8.09,0,0,1,.91,0,7.66,7.66,0,0,1-.82.38A.19.19,0,0,1,14.91,9.89Z"/><path class="cls-3" d="M14.74,9.34a.19.19,0,0,1,.12-.28,7.73,7.73,0,0,1,.89-.14,7.72,7.72,0,0,1-.73.53A.19.19,0,0,1,14.74,9.34Z"/><path class="cls-3" d="M14.47,8.83a.19.19,0,0,1,.07-.3,8.12,8.12,0,0,1,.85-.31,8,8,0,0,1-.62.66A.19.19,0,0,1,14.47,8.83Z"/><path class="cls-3" d="M14.1,8.38a.19.19,0,0,1,0-.31,8.14,8.14,0,0,1,.77-.47,8,8,0,0,1-.47.77A.2.2,0,0,1,14.1,8.38Z"/><path class="cls-3" d="M13.66,8a.19.19,0,0,1-.05-.3,8,8,0,0,1,.67-.61,8.56,8.56,0,0,1-.31.85A.19.19,0,0,1,13.66,8Z"/><path class="cls-3" d="M13.15,7.74A.19.19,0,0,1,13,7.46a8.14,8.14,0,0,1,.53-.73,7.65,7.65,0,0,1-.14.89A.19.19,0,0,1,13.15,7.74Z"/><path class="cls-3" d="M12.59,7.57a.19.19,0,0,1-.16-.26,7.61,7.61,0,0,1,.38-.82,8,8,0,0,1,0,.9A.19.19,0,0,1,12.59,7.57Z"/><ellipse class="cls-3" cx="12.01" cy="10.46" rx="2.6" ry="2.59"/></g></g></svg>