<svg xmlns="http://www.w3.org/2000/svg" viewBox="0 0 24 24"><defs><style>.cls-1{stroke:#b2b2b2;stroke-miterlimit:10;}.cls-2{fill:#fff;}.cls-3{fill:#dc241f;}.cls-4{fill:#0035ad;}.cls-5{fill:#ffd100;}</style></defs><title>ic_Asset 1</title><g id="Layer_2" data-name="Layer 2"><g id="Layer_1-2" data-name="Layer 1"><path class="cls-1" d="M23.5,12A11.5,11.5,0,1,1,12,.5,11.5,11.5,0,0,1,23.5,12Z"/><path class="cls-2" d="M6,21.6H18.05a11.17,11.17,0,0,0,2.13-1.74H3.82A10.93,10.93,0,0,0,6,21.6Z"/><path class="cls-2" d="M1,14.62H23a10.13,10.13,0,0,0,.27-1.75H.69A10.13,10.13,0,0,0,1,14.62Z"/><path class="cls-2" d="M2.44,18.11H21.56a11.63,11.63,0,0,0,.92-1.75h-21A11.63,11.63,0,0,0,2.44,18.11Z"/><path class="cls-2" d="M18.05,2.4H6A11.17,11.17,0,0,0,3.82,4.14H20.18A11.17,11.17,0,0,0,18.05,2.4Z"/><path class="cls-3" d="M1.52,16.36h21A11.39,11.39,0,0,0,23,14.62H1A11.39,11.39,0,0,0,1.52,16.36Z"/><path class="cls-3" d="M3.82,19.86H20.18a11.07,11.07,0,0,0,1.38-1.75H2.44A11.07,11.07,0,0,0,3.82,19.86Z"/><path class="cls-3" d="M12,23.35a11.29,11.29,0,0,0,6.05-1.75H6A11.23,11.23,0,0,0,12,23.35Z"/><path class="cls-3" d="M1,9.38H23a11.39,11.39,0,0,0-.56-1.74h-21A11.39,11.39,0,0,0,1,9.38Z"/><path class="cls-3" d="M.65,12c0,.29,0,.58,0,.87H23.31c0-.29,0-.58,0-.87s0-.59,0-.87H.69C.67,11.41.65,11.71.65,12Z"/><path class="cls-3" d="M3.82,4.14A11.07,11.07,0,0,0,2.44,5.89H21.56a11.07,11.07,0,0,0-1.38-1.75Z"/><path class="cls-3" d="M12,.65A11.27,11.27,0,0,0,6,2.4h12.1A11.27,11.27,0,0,0,12,.65Z"/><path class="cls-2" d="M.69,11.13H23.31A10.13,10.13,0,0,0,23,9.38H1A10.13,10.13,0,0,0,.69,11.13Z"/><path class="cls-2" d="M1.52,7.64h21a11.63,11.63,0,0,0-.92-1.75H2.44A11.63,11.63,0,0,0,1.52,7.64Z"/><path class="cls-4" d="M12,.65A11.35,11.35,0,0,0,.65,12c0,.3,0,.59,0,.89H12Z"/><path class="cls-5" d="M6.54,10.31a2.56,2.56,0,1,1,0-5.11,2.47,2.47,0,0,1,1.15.28,2.85,2.85,0,0,0-1.78-.62A2.9,2.9,0,1,0,7.69,10,2.63,2.63,0,0,1,6.54,10.31Z"/><polygon class="cls-5" points="8.82 5.33 9.03 6.85 9.88 5.57 9.4 7.03 10.72 6.25 9.66 7.36 11.19 7.22 9.75 7.76 11.19 8.3 9.66 8.16 10.72 9.27 9.4 8.48 9.88 9.95 9.03 8.66 8.82 10.19 8.62 8.66 7.77 9.95 8.24 8.48 6.93 9.27 7.99 8.16 6.46 8.3 7.9 7.76 6.46 7.22 7.99 7.36 6.93 6.25 8.24 7.03 7.77 5.57 8.62 6.85 8.82 5.33"/></g></g></svg>