<svg id="Режим_изоляции" xmlns="http://www.w3.org/2000/svg" viewBox="0 0 24 24"><style>.st1{fill:#bb1d21}.st3{fill:#f5e83a}</style><path d="M23.5 12c0 6.4-5.1 11.5-11.5 11.5S.5 18.4.5 12 5.6.5 12 .5 23.5 5.6 23.5 12z" fill="#b2b2b2" stroke="#b2b2b2" stroke-miterlimit="10"/><path class="st1" d="M.7 12c0 4.6 2.7 8.5 6.6 10.3V1.7C3.4 3.5.7 7.4.7 12zM23.3 12c0-4.6-2.7-8.5-6.6-10.3v20.6c3.9-1.8 6.6-5.7 6.6-10.3z"/><path d="M12 .7c-1.7 0-3.3.4-4.7 1v20.6c1.4.7 3 1 4.7 1 1.7 0 3.3-.4 4.7-1V1.7c-1.4-.7-3-1-4.7-1z" fill="#71abcc"/><g><path class="st3" d="M4.1 9.8c-.5 0-1-.3-1.2-.8 0 .7.5 1.2 1.2 1.2S5.3 9.7 5.3 9c-.2.5-.6.8-1.2.8z"/><path id="_x3C_Path_x3E__74_" class="st3" d="M3.6 7.2c0 .3.2.5.5.5s.5-.2.5-.5c.1-.2-.1-.2-.1-.3 0-.1.1-.2-.1-.3.1.1-.1.2-.1.3.1.1.2.1.2.2s0 .1-.1.1-.1 0-.1-.1.1-.2.1-.4 0-.2-.1-.3c-.1-.1-.1-.2 0-.4-.3.1-.2.4-.2.5 0 .1-.1.2-.1.3v.3c0 .1 0 .1-.1.1s-.1 0-.1-.1.1-.1.1-.2-.1-.2-.1-.3c-.1.1-.1.2-.1.3 0 .1-.1.1-.1.3z"/><path id="_x3C_Path_x3E__73_" class="st3" d="M4.1 7.9c.5 0 .9.4.9.9s-.4.8-.8.8-.9-.3-.9-.8.4-.9.8-.9z"/><path class="st3" d="M2 10.5h.9v5H2zM5.4 10.5h.9v5h-.9zM3.1 10.5l1 .6 1-.6zM3.1 11.3h2v.4h-2zM3.1 14.2h2v.4h-2zM3.1 14.9l1 .6 1-.6z"/><path id="_x3C_Path_x3E__72_" class="st3" d="M4.5 12c.1.1.2.3.2.4 0 .3-.2.5-.5.5s-.5.2-.5.5c0 .2.1.3.2.4h.3c.6 0 1-.5 1-1 0-.3-.3-.7-.7-.8zm-.4 1.7c-.1 0-.2-.1-.2-.2s.1-.2.2-.2.2.1.2.2 0 .2-.2.2z"/><path id="_x3C_Path_x3E__71_" class="st3" d="M4.4 12h-.3c-.6 0-1 .5-1 1s.3.8.7 1c-.1-.1-.2-.3-.2-.4 0-.3.2-.5.5-.5s.5-.2.5-.5c0-.4-.1-.5-.2-.6zm-.3.6c-.1 0-.2-.1-.2-.2s.1-.2.2-.2.2.1.2.2c0 .2 0 .2-.2.2z"/></g></svg>