<svg xmlns="http://www.w3.org/2000/svg" viewBox="0 0 24 24"><defs><style>.cls-2{fill:#fff}.cls-3{fill:#dc241f}.cls-5{fill:#ffd100}</style></defs><g id="Layer_2" data-name="Layer 2"><g id="Layer_1-2" data-name="Layer 1"><path d="M23.5 12A11.5 11.5 0 1 1 12 .5 11.5 11.5 0 0 1 23.5 12z" stroke="#b2b2b2" stroke-miterlimit="10"/><path class="cls-2" d="M6 21.6h12.05a11.17 11.17 0 0 0 2.13-1.74H3.82A10.93 10.93 0 0 0 6 21.6zM1 14.62h22a10.13 10.13 0 0 0 .27-1.75H.69A10.13 10.13 0 0 0 1 14.62zM2.44 18.11h19.12a11.63 11.63 0 0 0 .92-1.75h-21a11.63 11.63 0 0 0 .96 1.75zM18.05 2.4H6a11.17 11.17 0 0 0-2.18 1.74h16.36a11.17 11.17 0 0 0-2.13-1.74z"/><path class="cls-3" d="M1.52 16.36h21a11.39 11.39 0 0 0 .48-1.74H1a11.39 11.39 0 0 0 .52 1.74zM3.82 19.86h16.36a11.07 11.07 0 0 0 1.38-1.75H2.44a11.07 11.07 0 0 0 1.38 1.75zM12 23.35a11.29 11.29 0 0 0 6.05-1.75H6a11.23 11.23 0 0 0 6 1.75zM1 9.38h22a11.39 11.39 0 0 0-.56-1.74h-21A11.39 11.39 0 0 0 1 9.38zM.65 12v.87h22.66V12v-.87H.69c-.02.28-.04.58-.04.87zM3.82 4.14a11.07 11.07 0 0 0-1.38 1.75h19.12a11.07 11.07 0 0 0-1.38-1.75zM12 .65A11.27 11.27 0 0 0 6 2.4h12.1A11.27 11.27 0 0 0 12 .65z"/><path class="cls-2" d="M.69 11.13h22.62A10.13 10.13 0 0 0 23 9.38H1a10.13 10.13 0 0 0-.31 1.75zM1.52 7.64h21a11.63 11.63 0 0 0-.92-1.75H2.44a11.63 11.63 0 0 0-.92 1.75z"/><path d="M12 .65A11.35 11.35 0 0 0 .65 12v.89H12z" fill="#0035ad"/><path class="cls-5" d="M6.54 10.31a2.56 2.56 0 1 1 0-5.11 2.47 2.47 0 0 1 1.15.28 2.85 2.85 0 0 0-1.78-.62A2.9 2.9 0 1 0 7.69 10a2.63 2.63 0 0 1-1.15.31z"/><path class="cls-5" d="M8.82 5.33l.21 1.52.85-1.28-.48 1.46 1.32-.78-1.06 1.11 1.53-.14-1.44.54 1.44.54-1.53-.14 1.06 1.11-1.32-.79.48 1.47-.85-1.29-.21 1.53-.2-1.53-.85 1.29.47-1.47-1.31.79 1.06-1.11-1.53.14 1.44-.54-1.44-.54 1.53.14-1.06-1.11 1.31.78-.47-1.46.85 1.28.2-1.52z"/></g></g></svg>