<svg xmlns="http://www.w3.org/2000/svg" viewBox="0 0 24 24"><defs><style>.cls-1{stroke:#b2b2b2;stroke-miterlimit:10;}.cls-2{fill:#fff;}.cls-3{fill:#de1018;}.cls-4{fill:#00247d;}</style></defs><title>ic_Asset 5</title><g id="Layer_2" data-name="Layer 2"><g id="Layer_1-2" data-name="Layer 1"><path class="cls-1" d="M23.5,12A11.5,11.5,0,1,1,12,.5,11.5,11.5,0,0,1,23.5,12Z"/><path class="cls-2" d="M22.73,15.74H1.27a11.49,11.49,0,0,0,2.2,3.79H20.52A11.35,11.35,0,0,0,22.73,15.74Z"/><path class="cls-3" d="M20.52,19.53h-17a11.36,11.36,0,0,0,7.23,3.78h2.6A11.31,11.31,0,0,0,20.52,19.53Z"/><path class="cls-3" d="M12,.69A11.33,11.33,0,0,0,3.61,4.4H20.39A11.33,11.33,0,0,0,12,.69Z"/><path class="cls-2" d="M20.39,4.4H3.61A11.38,11.38,0,0,0,1.33,8.18H22.67A11.38,11.38,0,0,0,20.39,4.4Z"/><path class="cls-4" d="M23.35,12a11.19,11.19,0,0,0-.68-3.86H1.33A11.19,11.19,0,0,0,.65,12a11.31,11.31,0,0,0,.62,3.7H22.73A11.31,11.31,0,0,0,23.35,12Z"/></g></g></svg>