<?xml version="1.0" encoding="utf-8"?>
<!-- Generator: Adobe Illustrator 22.0.1, SVG Export Plug-In . SVG Version: 6.00 Build 0)  -->
<svg version="1.1" id="Режим_изоляции"
	 xmlns="http://www.w3.org/2000/svg" xmlns:xlink="http://www.w3.org/1999/xlink" x="0px" y="0px" viewBox="0 0 24 24"
	 style="enable-background:new 0 0 24 24;" xml:space="preserve">
<style type="text/css">
	.st0{fill:#B2B2B2;stroke:#B2B2B2;stroke-miterlimit:10;}
	.st1{fill:#C1121D;}
	.st2{fill:#FFFFFF;}
</style>
<g>
	
		<ellipse transform="matrix(1.372558e-02 -0.9999 0.9999 1.372558e-02 -0.1641 23.8346)" class="st0" cx="12" cy="12" rx="11.5" ry="11.5"/>
	<g>
		<path class="st1" d="M23.3,12c0,6.3-5.1,11.3-11.3,11.3C5.7,23.3,0.7,18.3,0.7,12S5.7,0.7,12,0.7C18.3,0.7,23.3,5.7,23.3,12z"/>
		<g>
			<path class="st2" d="M10.3,16.1c-2.3,0-4.1-1.8-4.1-4.1c0-2.3,1.8-4.1,4.1-4.1c1.1,0,2.2,0.5,2.9,1.2C12.3,7.8,10.8,6.9,9,6.9
				c-2.8,0-5.1,2.3-5.1,5.1c0,2.8,2.3,5.1,5.1,5.1c1.7,0,3.3-0.9,4.2-2.2C12.5,15.7,11.4,16.1,10.3,16.1z"/>
			<polygon class="st2" points="15.3,9.8 16.2,11.2 17.8,10.7 16.8,12 17.7,13.4 16.2,12.9 15.2,14.2 15.2,12.5 13.6,12 15.2,11.5 
							"/>
		</g>
	</g>
</g>
</svg>
